<svg width="40" height="40" viewBox="0 0 40 40" fill="none" xmlns="http://www.w3.org/2000/svg">
<g clip-path="url(#clip0_130_888)">
<path d="M21.5943 8.67064C21.7026 8.71208 21.8109 8.75338 21.9193 8.79455C22.2085 8.90485 22.497 9.01701 22.7854 9.12958C23.0856 9.24643 23.3864 9.36165 23.6872 9.47697C24.0539 9.61763 24.4204 9.75843 24.7867 9.9C25.5135 10.1808 26.2419 10.4567 26.9729 10.7264C27.2149 10.8157 27.4568 10.9055 27.6986 10.9951C27.9686 11.0951 28.2386 11.1948 28.5089 11.2936C28.755 11.3836 29.0005 11.4749 29.246 11.5665C29.3174 11.5922 29.3889 11.6179 29.4625 11.6444C29.9588 11.8316 30.2484 12.0517 30.5473 12.5C30.5682 12.6941 30.5682 12.6941 30.57 12.9279C30.571 13.0156 30.572 13.1032 30.573 13.1935C30.5733 13.3356 30.5733 13.3356 30.5735 13.4805C30.574 13.5779 30.5746 13.6753 30.5751 13.7757C30.5759 13.982 30.5763 14.1882 30.5762 14.3945C30.5762 14.6057 30.5773 14.8169 30.5794 15.028C30.5823 15.3325 30.5831 15.637 30.5833 15.9415C30.5844 16.0357 30.5855 16.13 30.5867 16.2271C30.5822 17.0601 30.5822 17.0601 30.2348 17.4219C29.8442 17.6562 29.8442 17.6562 28.2035 17.6562C28.2035 20.75 28.2035 23.8437 28.2035 27.0312C28.7449 27.0312 29.2863 27.0312 29.8442 27.0312C30.4015 27.4028 30.4015 27.4028 30.5473 27.7344C30.612 28.1678 30.6038 28.5524 30.4154 28.9502C30.1284 29.2528 29.9084 29.3866 29.4899 29.4047C29.3443 29.4061 29.1986 29.4062 29.0529 29.4053C28.9323 29.4059 28.9323 29.4059 28.8093 29.4065C28.5395 29.4077 28.2698 29.4071 28 29.4066C27.8067 29.407 27.6135 29.4075 27.4202 29.4082C26.9495 29.4094 26.4789 29.4096 26.0082 29.4092C25.6256 29.4089 25.2431 29.409 24.8605 29.4094C24.7788 29.4095 24.7788 29.4095 24.6955 29.4096C24.5849 29.4097 24.4743 29.4098 24.3636 29.4099C23.3263 29.411 22.289 29.4106 21.2516 29.4097C20.3027 29.4089 19.3538 29.4099 18.4049 29.4118C17.4304 29.4137 16.4559 29.4144 15.4815 29.4139C14.9344 29.4136 14.3874 29.4138 13.8403 29.4152C13.326 29.4165 12.8116 29.4161 12.2973 29.4146C12.1084 29.4143 11.9195 29.4146 11.7306 29.4154C11.473 29.4164 11.2154 29.4155 10.9578 29.4141C10.8828 29.4149 10.8079 29.4156 10.7306 29.4164C10.2918 29.4116 10.0344 29.3589 9.6879 29.0625C9.371 28.6545 9.39306 28.2302 9.45353 27.7344C9.64085 27.3389 9.76891 27.2639 10.1567 27.0312C10.6981 27.0312 11.2395 27.0312 11.7973 27.0312C11.7973 23.9375 11.7973 20.8437 11.7973 17.6562C11.2559 17.6562 10.7145 17.6562 10.1567 17.6562C9.60007 17.2852 9.60007 17.2852 9.45353 16.9531C9.42324 16.7402 9.42324 16.7402 9.42196 16.5074C9.42097 16.4198 9.41998 16.3322 9.41896 16.2419C9.41919 16.148 9.41942 16.0541 9.41965 15.9573C9.41924 15.8601 9.41883 15.763 9.41841 15.6628C9.41778 15.405 9.41834 15.1472 9.41922 14.8893C9.41935 14.7317 9.41841 14.5741 9.41708 14.4165C9.41468 14.113 9.41441 13.8096 9.41477 13.5062C9.41389 13.4124 9.41301 13.3186 9.41211 13.222C9.41918 12.3747 9.41918 12.3747 9.76603 12.0312C10.3201 11.6939 10.9523 11.4985 11.5589 11.2735C11.6747 11.2302 11.7904 11.187 11.9061 11.1437C12.2146 11.0283 12.5232 10.9134 12.8318 10.7986C13.3429 10.6085 13.8538 10.418 14.3647 10.2275C14.4922 10.18 14.6197 10.1324 14.7472 10.0849C15.546 9.78715 16.3428 9.48489 17.1369 9.17479C17.2986 9.11208 17.4602 9.04938 17.6218 8.98671C17.8414 8.90152 18.0607 8.81589 18.2794 8.72845C18.4754 8.65012 18.672 8.57369 18.8688 8.49761C18.923 8.47525 18.9772 8.4529 19.0331 8.42987C19.9395 8.08611 20.7278 8.32813 21.5943 8.67064ZM19.3463 10.9528C19.297 10.9711 19.2476 10.9894 19.1967 11.0083C19.0327 11.0693 18.869 11.1309 18.7052 11.1926C18.5891 11.236 18.4729 11.2792 18.3567 11.3225C18.0487 11.4373 17.741 11.5527 17.4333 11.6682C17.1303 11.7819 16.8271 11.8949 16.5238 12.008C15.9861 12.2087 15.4486 12.4101 14.9113 12.6117C14.5486 12.7477 14.1858 12.8832 13.8228 13.0184C13.5879 13.1058 13.3531 13.1935 13.1182 13.2811C13.0073 13.3225 12.8963 13.3637 12.7854 13.4049C12.6332 13.4614 12.4811 13.5182 12.329 13.575C12.2429 13.6071 12.1569 13.6391 12.0682 13.6721C11.8828 13.7324 11.8828 13.7324 11.7973 13.8281C11.7973 14.318 11.7973 14.8078 11.7973 15.3125C17.2113 15.3125 22.6254 15.3125 28.2035 15.3125C28.2035 14.8226 28.2035 14.3328 28.2035 13.8281C27.4743 13.5185 26.7382 13.2342 25.9962 12.9571C25.875 12.9117 25.7537 12.8663 25.6325 12.8209C25.3796 12.7261 25.1266 12.6314 24.8736 12.5368C24.4907 12.3937 24.108 12.2503 23.7252 12.1069C23.1859 11.9049 22.6464 11.7033 22.1068 11.5022C21.7853 11.3822 21.4642 11.2614 21.1433 11.1397C21.009 11.0892 20.8747 11.0387 20.7405 10.9881C20.6832 10.9661 20.6259 10.9441 20.5669 10.9215C20.0954 10.7451 19.811 10.779 19.3463 10.9528ZM14.141 17.6562C14.141 20.75 14.141 23.8437 14.141 27.0312C14.9145 27.0312 15.6879 27.0312 16.4848 27.0312C16.4848 23.9375 16.4848 20.8437 16.4848 17.6562C15.7113 17.6562 14.9379 17.6562 14.141 17.6562ZM18.8285 17.6562C18.8285 20.75 18.8285 23.8437 18.8285 27.0312C19.602 27.0312 20.3754 27.0312 21.1723 27.0312C21.1723 23.9375 21.1723 20.8437 21.1723 17.6562C20.3988 17.6562 19.6254 17.6562 18.8285 17.6562ZM23.516 17.6562C23.516 20.75 23.516 23.8437 23.516 27.0312C24.2895 27.0312 25.0629 27.0312 25.8598 27.0312C25.8598 23.9375 25.8598 20.8437 25.8598 17.6562C25.0863 17.6562 24.3129 17.6562 23.516 17.6562Z" fill="#FFE4C0"/>
<path d="M3.44706 5.52416C3.52661 5.52316 3.60615 5.52217 3.68811 5.52114C3.81641 5.52088 3.81641 5.52088 3.9473 5.52061C4.03573 5.52009 4.12417 5.51957 4.21528 5.51904C4.40237 5.51825 4.58947 5.51788 4.77656 5.51791C5.06206 5.51756 5.34746 5.51473 5.63294 5.51176C5.81488 5.51131 5.99681 5.511 6.17875 5.51085C6.30634 5.50916 6.30634 5.50916 6.4365 5.50745C6.93645 5.51044 7.26421 5.53659 7.65671 5.85936C8.01182 6.31367 8.01519 6.80511 8.01072 7.36082C8.01117 7.48473 8.01117 7.48473 8.01162 7.61114C8.01184 7.785 8.01126 7.95887 8.00995 8.13273C8.00828 8.39764 8.00994 8.66239 8.01194 8.92729C8.01173 9.09687 8.01133 9.26644 8.01072 9.43602C8.01135 9.51457 8.01198 9.59312 8.01263 9.67405C8.00629 10.1541 7.94514 10.5423 7.65671 10.9375C7.32758 11.225 7.00657 11.2971 6.57395 11.275C6.22114 11.2222 6.00437 11.0857 5.76218 10.8301C5.63186 10.6346 5.5525 10.4528 5.46921 10.2344C4.22491 12.1748 3.28142 14.1936 2.79343 16.4599C2.78162 16.5145 2.76982 16.5691 2.75765 16.6254C2.53174 17.7451 2.46867 18.8513 2.47117 19.9902C2.47118 20.0602 2.4712 20.1301 2.47122 20.2021C2.47399 21.3838 2.55772 22.5146 2.81296 23.6719C2.82718 23.7379 2.84139 23.8039 2.85603 23.872C3.70597 27.7016 5.94102 31.352 9.06296 33.75C9.10676 33.7837 9.15055 33.8174 9.19568 33.8522C9.90303 34.3935 10.6326 34.8726 11.4067 35.3125C11.4517 35.3387 11.4967 35.365 11.5431 35.392C15.3404 37.5996 20.1184 38.0968 24.3433 37.0298C25.7798 36.644 27.1345 36.0885 28.4416 35.3824C28.9167 35.1324 29.3199 35.0441 29.8482 35.2051C30.1758 35.3622 30.3581 35.5838 30.5003 35.9158C30.5873 36.2448 30.586 36.5551 30.4692 36.875C30.1943 37.2826 29.8744 37.5365 29.4389 37.7539C29.3828 37.7826 29.3266 37.8114 29.2687 37.841C27.3077 38.8169 25.2168 39.5251 23.0473 39.8437C22.9532 39.8576 22.8591 39.8714 22.7622 39.8857C21.8514 40.0106 20.948 40.028 20.0298 40.0244C19.9161 40.0242 19.9161 40.0242 19.8001 40.024C18.6789 40.0204 17.588 39.9809 16.4848 39.7656C16.4148 39.753 16.3447 39.7405 16.2725 39.7275C12.2753 39.0042 8.75998 37.0178 5.85984 34.2187C5.78632 34.1484 5.7128 34.0781 5.63706 34.0057C5.17819 33.5582 4.77113 33.0819 4.37546 32.5781C4.31363 32.5011 4.25179 32.424 4.18809 32.3447C2.1708 29.7896 0.840197 26.7889 0.234838 23.5937C0.222048 23.5305 0.209258 23.4673 0.196081 23.4021C-0.257215 21.0827 -0.187189 18.3979 0.312963 16.0937C0.32929 16.0156 0.345618 15.9375 0.36244 15.8571C0.964922 13.0392 2.17105 10.5418 3.82859 8.20311C3.88015 8.12577 3.93171 8.04842 3.98484 7.96873C3.93479 7.97145 3.88473 7.97417 3.83317 7.97697C3.37341 7.99136 3.05748 7.9668 2.65671 7.73436C2.38645 7.45679 2.19981 7.18566 2.17972 6.79137C2.19919 6.36596 2.31821 6.12462 2.60453 5.81328C2.87369 5.58572 3.09737 5.52714 3.44706 5.52416Z" fill="#FFC982"/>
<path d="M23.9847 0.312488C24.0654 0.329231 24.146 0.345974 24.2292 0.363224C28.0289 1.17909 31.3619 3.09904 34.1409 5.78124C34.2145 5.85153 34.288 5.92183 34.3637 5.99425C34.8226 6.44175 35.2296 6.9181 35.6253 7.42186C35.6871 7.4989 35.749 7.57595 35.8127 7.65532C37.6486 9.98061 38.9544 12.7011 39.595 15.5957C39.6093 15.6597 39.6236 15.7237 39.6383 15.7897C39.9245 17.1736 40.0416 18.545 40.0296 19.956C40.0292 20.0327 40.0289 20.1094 40.0285 20.1885C40.0223 21.3108 39.9954 22.4132 39.7659 23.5156C39.7427 23.63 39.7427 23.63 39.7189 23.7467C39.099 26.7099 37.9178 29.334 36.1722 31.7969C36.1206 31.8742 36.0691 31.9515 36.0159 32.0312C36.066 32.0285 36.116 32.0258 36.1676 32.023C36.6274 32.0086 36.9433 32.0332 37.3441 32.2656C37.6143 32.5432 37.801 32.8143 37.8211 33.2086C37.8016 33.634 37.6826 33.8753 37.3962 34.1867C37.1271 34.4143 36.9034 34.4728 36.5537 34.4758C36.4742 34.4768 36.3946 34.4778 36.3127 34.4788C36.1844 34.4791 36.1844 34.4791 36.0535 34.4794C35.965 34.4799 35.8766 34.4804 35.7855 34.4809C35.5984 34.4817 35.4113 34.4821 35.2242 34.4821C34.9387 34.4824 34.6533 34.4852 34.3678 34.4882C34.1859 34.4887 34.004 34.489 33.822 34.4891C33.6944 34.4908 33.6944 34.4908 33.5643 34.4925C33.0643 34.4895 32.7366 34.4634 32.3441 34.1406C31.989 33.6863 31.9856 33.1949 31.9901 32.6391C31.9898 32.5565 31.9895 32.4739 31.9892 32.3888C31.9889 32.215 31.9895 32.0411 31.9908 31.8672C31.9925 31.6023 31.9908 31.3376 31.9888 31.0727C31.989 30.9031 31.9894 30.7335 31.9901 30.5639C31.9894 30.4854 31.9888 30.4069 31.9881 30.3259C31.9945 29.8459 32.0556 29.4577 32.3441 29.0625C32.6732 28.775 32.9942 28.7029 33.4268 28.725C33.7796 28.7778 33.9964 28.9143 34.2386 29.1699C34.3689 29.3654 34.4483 29.5472 34.5316 29.7656C36.242 27.0982 37.4872 24.0827 37.5189 20.8645C37.5197 20.7999 37.5205 20.7353 37.5212 20.6687C37.5685 15.6446 35.9 11.1466 32.3792 7.51683C31.9263 7.05927 31.4487 6.64241 30.9378 6.24999C30.894 6.21626 30.8502 6.18254 30.8051 6.14779C30.0979 5.60659 29.3686 5.12631 28.5941 4.68749C28.5247 4.64749 28.5247 4.64749 28.4539 4.60669C26.7132 3.60859 24.7843 2.99226 22.8128 2.65624C22.7152 2.63942 22.6176 2.6226 22.5171 2.60527C18.7125 2.02805 14.8589 2.84096 11.4752 4.61829C11.0692 4.83058 10.7734 4.92327 10.3128 4.84374C9.96765 4.73503 9.75494 4.5588 9.57062 4.24803C9.41179 3.8772 9.3929 3.50488 9.53156 3.12499C9.81409 2.70135 10.15 2.45409 10.6009 2.23143C10.6587 2.20203 10.7165 2.17263 10.776 2.14234C12.5853 1.23763 14.4955 0.597254 16.4847 0.234363C16.5496 0.221573 16.6144 0.208783 16.6813 0.195606C19.0105 -0.252553 21.6698 -0.172409 23.9847 0.312488Z" fill="#FFDBAB"/>
</g>
<defs>
<clipPath id="clip0_130_888">
<rect width="40" height="40" fill="white"/>
</clipPath>
</defs>
</svg>
