<svg width="357" height="93" viewBox="0 0 357 93" fill="none" xmlns="http://www.w3.org/2000/svg">
<rect y="0.615967" width="357" height="92" rx="10" fill="#FFE4C0"/>
<g clip-path="url(#clip0_181_23)">
<path d="M71.7264 37.9347L55.0389 35.5158L47.5951 20.4033C47.1077 19.4472 46.1327 18.8472 45.0639 18.8472C43.9951 18.8472 43.0201 19.4472 42.5327 20.4033L35.0889 35.5158L18.4015 37.9347C17.3514 38.0847 16.4702 38.8346 16.1327 39.8472C15.814 40.8784 16.0764 41.9846 16.8452 42.7347L28.9202 54.4909L26.0702 71.1034C25.8827 72.1534 26.3139 73.2222 27.1951 73.8596C28.0576 74.4784 29.2014 74.5721 30.1576 74.066L45.0639 66.2283L59.9702 74.0659C60.3826 74.2909 60.8326 74.3847 61.2827 74.3847C61.8639 74.3847 62.4452 74.2159 62.9327 73.8596C63.8139 73.2222 64.2451 72.1534 64.0577 71.1034L61.2076 54.4909L73.2826 42.7347C74.0514 41.9846 74.3139 40.8784 73.9951 39.8472C73.6577 38.8346 72.7765 38.0847 71.7264 37.9347Z" fill="#F19924"/>
<path d="M49 41.616H41H42.6C43.6609 41.616 44.6783 42.0062 45.4284 42.7008C46.1786 43.3953 46.6 44.3374 46.6 45.3197C46.6 46.302 46.1786 47.244 45.4284 47.9386C44.6783 48.6332 43.6609 49.0234 42.6 49.0234H41L47.4 54.9493M49 45.3197H41" stroke="#262626" stroke-width="1.5" stroke-linecap="round" stroke-linejoin="round"/>
</g>
<path d="M96.4382 33.616V20.5251H101.104C102.119 20.5251 102.96 20.6998 103.629 21.0492C104.303 21.3986 104.805 21.8823 105.138 22.5002C105.47 23.1138 105.636 23.8234 105.636 24.6288C105.636 25.4299 105.468 26.1351 105.131 26.7445C104.799 27.3496 104.296 27.8205 103.623 28.1572C102.954 28.4938 102.112 28.6621 101.098 28.6621H97.5632V26.9618H100.919C101.558 26.9618 102.078 26.8702 102.479 26.687C102.884 26.5038 103.18 26.2374 103.367 25.888C103.555 25.5386 103.648 25.1188 103.648 24.6288C103.648 24.1344 103.553 23.7062 103.361 23.3439C103.173 22.9817 102.877 22.7047 102.472 22.513C102.072 22.317 101.545 22.2189 100.893 22.2189H98.4134V33.616H96.4382ZM102.901 27.7097L106.135 33.616H103.885L100.714 27.7097H102.901ZM111.995 33.8141C111.028 33.8141 110.194 33.6074 109.496 33.1941C108.801 32.7765 108.264 32.1905 107.885 31.4363C107.51 30.6778 107.322 29.7893 107.322 28.7708C107.322 27.7651 107.51 26.8788 107.885 26.1117C108.264 25.3447 108.792 24.7459 109.47 24.3155C110.152 23.8851 110.949 23.6699 111.861 23.6699C112.415 23.6699 112.952 23.7616 113.471 23.9448C113.991 24.128 114.458 24.4157 114.871 24.8077C115.285 25.1998 115.611 25.709 115.849 26.3354C116.088 26.9576 116.207 27.714 116.207 28.6046V29.2822H108.403V27.8503H114.334C114.334 27.3475 114.232 26.9022 114.028 26.5144C113.823 26.1224 113.535 25.8134 113.165 25.5876C112.798 25.3617 112.368 25.2488 111.873 25.2488C111.336 25.2488 110.868 25.3809 110.467 25.6451C110.071 25.905 109.764 26.2459 109.547 26.6678C109.334 27.0854 109.227 27.5393 109.227 28.0293V29.1479C109.227 29.8042 109.342 30.3624 109.572 30.8226C109.807 31.2829 110.133 31.6344 110.55 31.8773C110.968 32.116 111.456 32.2353 112.014 32.2353C112.376 32.2353 112.706 32.1841 113.005 32.0819C113.303 31.9753 113.561 31.8177 113.778 31.6089C113.996 31.4001 114.162 31.1422 114.277 30.8354L116.086 31.1614C115.941 31.6941 115.681 32.1607 115.306 32.5613C114.935 32.9576 114.469 33.2665 113.906 33.4881C113.348 33.7055 112.711 33.8141 111.995 33.8141ZM125.685 26.1948L123.953 26.5016C123.88 26.28 123.765 26.0691 123.608 25.8688C123.454 25.6685 123.245 25.5045 122.981 25.3766C122.717 25.2488 122.387 25.1849 121.99 25.1849C121.449 25.1849 120.998 25.3063 120.635 25.5492C120.273 25.7878 120.092 26.0968 120.092 26.4761C120.092 26.8042 120.213 27.0684 120.456 27.2687C120.699 27.4689 121.091 27.633 121.632 27.7609L123.192 28.1188C124.096 28.3276 124.769 28.6493 125.212 29.084C125.655 29.5187 125.877 30.0833 125.877 30.7779C125.877 31.366 125.706 31.8901 125.365 32.3503C125.029 32.8063 124.558 33.1643 123.953 33.4242C123.352 33.6841 122.655 33.8141 121.863 33.8141C120.763 33.8141 119.866 33.5797 119.172 33.111C118.477 32.638 118.051 31.9668 117.893 31.0975L119.74 30.8163C119.855 31.2978 120.092 31.6621 120.45 31.9093C120.808 32.1522 121.275 32.2736 121.85 32.2736C122.476 32.2736 122.977 32.1437 123.352 31.8837C123.727 31.6195 123.914 31.2978 123.914 30.9185C123.914 30.6117 123.799 30.3539 123.569 30.1451C123.343 29.9363 122.996 29.7786 122.527 29.6721L120.865 29.3077C119.949 29.0989 119.272 28.7665 118.833 28.3106C118.398 27.8546 118.181 27.2772 118.181 26.5783C118.181 25.9988 118.343 25.4917 118.667 25.057C118.99 24.6224 119.438 24.2836 120.009 24.0407C120.58 23.7935 121.234 23.6699 121.971 23.6699C123.032 23.6699 123.868 23.9001 124.477 24.3603C125.086 24.8163 125.489 25.4278 125.685 26.1948ZM132.21 33.8141C131.242 33.8141 130.409 33.6074 129.71 33.1941C129.016 32.7765 128.479 32.1905 128.1 31.4363C127.725 30.6778 127.537 29.7893 127.537 28.7708C127.537 27.7651 127.725 26.8788 128.1 26.1117C128.479 25.3447 129.007 24.7459 129.685 24.3155C130.367 23.8851 131.164 23.6699 132.075 23.6699C132.629 23.6699 133.166 23.7616 133.686 23.9448C134.206 24.128 134.673 24.4157 135.086 24.8077C135.499 25.1998 135.825 25.709 136.064 26.3354C136.303 26.9576 136.422 27.714 136.422 28.6046V29.2822H128.617V27.8503H134.549C134.549 27.3475 134.447 26.9022 134.242 26.5144C134.038 26.1224 133.75 25.8134 133.379 25.5876C133.013 25.3617 132.583 25.2488 132.088 25.2488C131.551 25.2488 131.083 25.3809 130.682 25.6451C130.286 25.905 129.979 26.2459 129.762 26.6678C129.548 27.0854 129.442 27.5393 129.442 28.0293V29.1479C129.442 29.8042 129.557 30.3624 129.787 30.8226C130.021 31.2829 130.347 31.6344 130.765 31.8773C131.183 32.116 131.671 32.2353 132.229 32.2353C132.591 32.2353 132.921 32.1841 133.22 32.0819C133.518 31.9753 133.776 31.8177 133.993 31.6089C134.21 31.4001 134.377 31.1422 134.492 30.8354L136.301 31.1614C136.156 31.6941 135.896 32.1607 135.521 32.5613C135.15 32.9576 134.683 33.2665 134.121 33.4881C133.563 33.7055 132.926 33.8141 132.21 33.8141ZM141.4 33.8333C140.778 33.8333 140.215 33.7182 139.712 33.4881C139.21 33.2538 138.811 32.915 138.517 32.4718C138.227 32.0286 138.082 31.4853 138.082 30.8418C138.082 30.2878 138.189 29.8319 138.402 29.4739C138.615 29.116 138.903 28.8326 139.265 28.6238C139.627 28.415 140.032 28.2573 140.479 28.1508C140.927 28.0442 141.383 27.9633 141.847 27.9079C142.435 27.8397 142.913 27.7843 143.279 27.7417C143.646 27.6948 143.912 27.6202 144.078 27.518C144.244 27.4157 144.327 27.2495 144.327 27.0194V26.9746C144.327 26.4164 144.17 25.9839 143.854 25.677C143.543 25.3702 143.079 25.2168 142.461 25.2168C141.817 25.2168 141.31 25.3596 140.94 25.6451C140.573 25.9263 140.32 26.2395 140.179 26.5847L138.383 26.1756C138.596 25.579 138.907 25.0975 139.316 24.731C139.729 24.3603 140.205 24.0918 140.741 23.9256C141.278 23.7552 141.843 23.6699 142.435 23.6699C142.827 23.6699 143.243 23.7168 143.682 23.8106C144.125 23.9001 144.538 24.0663 144.922 24.3091C145.31 24.552 145.627 24.8993 145.874 25.3511C146.121 25.7985 146.245 26.3802 146.245 27.0961V33.616H144.379V32.2736H144.302C144.178 32.5208 143.993 32.7637 143.746 33.0023C143.499 33.241 143.181 33.4391 142.793 33.5968C142.406 33.7545 141.941 33.8333 141.4 33.8333ZM141.815 32.2992C142.344 32.2992 142.795 32.1948 143.17 31.986C143.55 31.7772 143.837 31.5045 144.033 31.1678C144.234 30.8269 144.334 30.4626 144.334 30.0748V28.8091C144.266 28.8773 144.134 28.9413 143.938 29.0009C143.746 29.0563 143.526 29.1053 143.279 29.1479C143.032 29.1863 142.791 29.2225 142.557 29.2566C142.322 29.2864 142.126 29.312 141.969 29.3333C141.598 29.3802 141.259 29.459 140.952 29.5698C140.65 29.6806 140.407 29.8404 140.224 30.0492C140.045 30.2538 139.955 30.5265 139.955 30.8674C139.955 31.3404 140.13 31.6984 140.479 31.9413C140.829 32.1799 141.274 32.2992 141.815 32.2992ZM148.791 33.616V23.7978H150.638V25.3574H150.74C150.919 24.829 151.235 24.4136 151.686 24.111C152.142 23.8042 152.658 23.6508 153.233 23.6508C153.352 23.6508 153.493 23.655 153.655 23.6636C153.821 23.6721 153.951 23.6827 154.045 23.6955V25.5236C153.968 25.5023 153.832 25.4789 153.636 25.4533C153.44 25.4235 153.244 25.4086 153.048 25.4086C152.596 25.4086 152.193 25.5045 151.84 25.6962C151.49 25.8837 151.213 26.1458 151.009 26.4824C150.804 26.8148 150.702 27.1941 150.702 27.6202V33.616H148.791ZM159.483 33.8141C158.533 33.8141 157.714 33.5989 157.028 33.1685C156.347 32.7339 155.822 32.1351 155.456 31.3724C155.089 30.6096 154.906 29.736 154.906 28.7516C154.906 27.7545 155.094 26.8745 155.469 26.1117C155.844 25.3447 156.372 24.7459 157.054 24.3155C157.736 23.8851 158.539 23.6699 159.464 23.6699C160.21 23.6699 160.874 23.8084 161.458 24.0854C162.042 24.3582 162.513 24.7417 162.871 25.236C163.233 25.7303 163.448 26.3077 163.516 26.9682H161.656C161.554 26.508 161.32 26.1117 160.953 25.7793C160.591 25.4469 160.105 25.2807 159.496 25.2807C158.963 25.2807 158.496 25.4214 158.096 25.7026C157.7 25.9796 157.391 26.3759 157.169 26.8915C156.947 27.4029 156.837 28.008 156.837 28.7069C156.837 29.4228 156.945 30.0407 157.163 30.5606C157.38 31.0805 157.687 31.4832 158.083 31.7687C158.484 32.0542 158.955 32.1969 159.496 32.1969C159.858 32.1969 160.186 32.1309 160.48 31.9988C160.778 31.8624 161.028 31.6685 161.228 31.4171C161.433 31.1657 161.575 30.8631 161.656 30.5094H163.516C163.448 31.1444 163.241 31.7111 162.896 32.2097C162.551 32.7083 162.089 33.1003 161.509 33.3859C160.934 33.6714 160.259 33.8141 159.483 33.8141ZM167.471 27.7864V33.616H165.56V20.5251H167.446V25.3958H167.567C167.797 24.8674 168.149 24.4476 168.622 24.1366C169.095 23.8255 169.713 23.6699 170.476 23.6699C171.149 23.6699 171.737 23.8084 172.24 24.0854C172.747 24.3624 173.139 24.7758 173.416 25.3255C173.697 25.8709 173.838 26.5528 173.838 27.3709V33.616H171.927V27.6011C171.927 26.8809 171.741 26.3226 171.371 25.9263C171 25.5258 170.484 25.3255 169.824 25.3255C169.372 25.3255 168.967 25.4214 168.609 25.6131C168.256 25.8049 167.976 26.0861 167.772 26.4569C167.572 26.8234 167.471 27.2665 167.471 27.7864ZM181.305 33.616V20.5251H185.972C186.99 20.5251 187.834 20.7104 188.503 21.0812C189.172 21.4519 189.673 21.959 190.005 22.6025C190.337 23.2417 190.504 23.9618 190.504 24.763C190.504 25.5684 190.335 26.2928 189.999 26.9363C189.666 27.5755 189.163 28.0826 188.49 28.4576C187.821 28.8283 186.979 29.0137 185.965 29.0137H182.756V27.339H185.786C186.43 27.339 186.952 27.2282 187.352 27.0066C187.753 26.7807 188.047 26.4739 188.234 26.0861C188.422 25.6984 188.516 25.2573 188.516 24.763C188.516 24.2687 188.422 23.8297 188.234 23.4462C188.047 23.0627 187.751 22.7623 187.346 22.5449C186.945 22.3276 186.417 22.2189 185.761 22.2189H183.281V33.616H181.305ZM192.666 33.616V23.7978H194.577V33.616H192.666ZM193.631 22.2829C193.298 22.2829 193.013 22.1721 192.774 21.9505C192.54 21.7246 192.423 21.4562 192.423 21.1451C192.423 20.8297 192.54 20.5613 192.774 20.3397C193.013 20.1138 193.298 20.0009 193.631 20.0009C193.963 20.0009 194.247 20.1138 194.481 20.3397C194.72 20.5613 194.839 20.8297 194.839 21.1451C194.839 21.4562 194.72 21.7246 194.481 21.9505C194.247 22.1721 193.963 22.2829 193.631 22.2829ZM201.284 33.8141C200.333 33.8141 199.515 33.5989 198.829 33.1685C198.147 32.7339 197.623 32.1351 197.257 31.3724C196.89 30.6096 196.707 29.736 196.707 28.7516C196.707 27.7545 196.895 26.8745 197.27 26.1117C197.645 25.3447 198.173 24.7459 198.855 24.3155C199.537 23.8851 200.34 23.6699 201.265 23.6699C202.01 23.6699 202.675 23.8084 203.259 24.0854C203.843 24.3582 204.314 24.7417 204.672 25.236C205.034 25.7303 205.249 26.3077 205.317 26.9682H203.457C203.355 26.508 203.12 26.1117 202.754 25.7793C202.392 25.4469 201.906 25.2807 201.297 25.2807C200.764 25.2807 200.297 25.4214 199.897 25.7026C199.5 25.9796 199.191 26.3759 198.97 26.8915C198.748 27.4029 198.637 28.008 198.637 28.7069C198.637 29.4228 198.746 30.0407 198.963 30.5606C199.181 31.0805 199.488 31.4832 199.884 31.7687C200.284 32.0542 200.755 32.1969 201.297 32.1969C201.659 32.1969 201.987 32.1309 202.281 31.9988C202.579 31.8624 202.828 31.6685 203.029 31.4171C203.233 31.1657 203.376 30.8631 203.457 30.5094H205.317C205.249 31.1444 205.042 31.7111 204.697 32.2097C204.352 32.7083 203.89 33.1003 203.31 33.3859C202.735 33.6714 202.059 33.8141 201.284 33.8141ZM209.119 30.2857L209.106 27.9526H209.438L213.35 23.7978H215.639L211.177 28.5279H210.877L209.119 30.2857ZM207.361 33.616V20.5251H209.272V33.616H207.361ZM213.561 33.616L210.046 28.9498L211.362 27.6138L215.907 33.616H213.561Z" fill="#212121"/>
<path d="M97.6932 50.8887L97.1989 53.8887H96.2614L96.7557 50.8887H97.6932ZM99.875 50.8887L99.3807 53.8887H98.4432L98.9375 50.8887H99.875ZM101.169 51.8262L101.323 50.8887H107.868L107.715 51.8262H104.971L103.675 59.616H102.618L103.914 51.8262H101.169ZM109.667 59.7523C109.064 59.7523 108.56 59.6089 108.154 59.3219C107.748 59.035 107.461 58.633 107.293 58.116C107.128 57.5989 107.101 56.9966 107.212 56.3091C107.32 55.6387 107.534 55.0549 107.855 54.5577C108.179 54.0577 108.581 53.6714 109.061 53.3986C109.544 53.1231 110.076 52.9853 110.655 52.9853C111.257 52.9853 111.76 53.1302 112.164 53.4199C112.57 53.7069 112.857 54.1103 113.025 54.6302C113.192 55.1472 113.221 55.7523 113.11 56.4455C113.002 57.1103 112.784 57.6913 112.458 58.1884C112.134 58.6827 111.732 59.0677 111.252 59.3432C110.775 59.616 110.246 59.7523 109.667 59.7523ZM109.684 58.8489C110.144 58.8489 110.543 58.731 110.881 58.4952C111.222 58.2594 111.498 57.9484 111.708 57.562C111.921 57.1756 112.064 56.758 112.138 56.3091C112.206 55.883 112.203 55.4867 112.13 55.1202C112.056 54.7509 111.898 54.454 111.657 54.2296C111.415 54.0023 111.076 53.8887 110.638 53.8887C110.178 53.8887 109.776 54.008 109.432 54.2466C109.091 54.4853 108.816 54.7992 108.605 55.1884C108.395 55.5776 108.255 55.9966 108.184 56.4455C108.115 56.8716 108.117 57.268 108.188 57.6344C108.262 57.9981 108.419 58.2921 108.661 58.5165C108.905 58.7381 109.246 58.8489 109.684 58.8489ZM113.716 62.0705L115.224 53.0705H116.196L116.026 54.1103H116.145C116.236 53.9966 116.361 53.8518 116.52 53.6756C116.682 53.4966 116.899 53.3376 117.172 53.1984C117.447 53.0563 117.798 52.9853 118.224 52.9853C118.776 52.9853 119.237 53.1231 119.609 53.3986C119.982 53.6742 120.244 54.0648 120.398 54.5705C120.551 55.0762 120.571 55.6728 120.457 56.3603C120.344 57.0535 120.126 57.6543 119.805 58.1628C119.484 58.6685 119.092 59.0606 118.629 59.339C118.166 59.6145 117.662 59.7523 117.116 59.7523C116.696 59.7523 116.371 59.6827 116.141 59.5435C115.911 59.4015 115.743 59.241 115.638 59.062C115.533 58.8802 115.452 58.7296 115.395 58.6103H115.31L114.73 62.0705H113.716ZM115.668 56.3432C115.588 56.8376 115.588 57.2736 115.668 57.6515C115.75 58.0265 115.913 58.3205 116.158 58.5336C116.405 58.7438 116.73 58.8489 117.134 58.8489C117.554 58.8489 117.922 58.7381 118.237 58.5165C118.555 58.2921 118.817 57.991 119.021 57.6131C119.229 57.2324 119.372 56.8091 119.452 56.3432C119.526 55.883 119.523 55.4682 119.443 55.0989C119.364 54.7268 119.202 54.4327 118.957 54.2168C118.713 53.9981 118.378 53.8887 117.952 53.8887C117.543 53.8887 117.18 53.9924 116.865 54.1998C116.553 54.4043 116.294 54.6913 116.089 55.0606C115.888 55.427 115.747 55.8546 115.668 56.3432ZM124.961 59.616L126.409 50.8887H131.642L131.489 51.8262H127.313L126.819 54.7751H130.603L130.449 55.7126H126.665L126.017 59.616H124.961ZM136.025 56.9398L136.673 53.0705H137.679L136.588 59.616H135.582L135.77 58.508H135.701C135.497 58.8404 135.211 59.1231 134.845 59.356C134.478 59.5861 134.048 59.7012 133.554 59.7012C133.145 59.7012 132.795 59.6117 132.505 59.4327C132.218 59.2509 132.014 58.9782 131.892 58.6145C131.772 58.2481 131.758 57.7864 131.849 57.2296L132.548 53.0705H133.554L132.872 57.1614C132.795 57.6387 132.868 58.0194 133.089 58.3035C133.311 58.5876 133.63 58.7296 134.048 58.7296C134.298 58.7296 134.562 58.6657 134.841 58.5378C135.122 58.41 135.372 58.214 135.591 57.9498C135.812 57.6856 135.957 57.3489 136.025 56.9398ZM140.083 55.6785L139.435 59.616H138.43L139.521 53.0705H140.492L140.322 54.0932H140.407C140.612 53.7609 140.888 53.4938 141.238 53.2921C141.587 53.0876 142.009 52.9853 142.504 52.9853C142.941 52.9853 143.31 53.0762 143.612 53.258C143.915 53.437 144.13 53.7097 144.255 54.0762C144.383 54.4398 144.401 54.9001 144.31 55.4569L143.612 59.616H142.606L143.288 55.5251C143.373 55.0137 143.306 54.6131 143.087 54.3234C142.871 54.0336 142.529 53.8887 142.06 53.8887C141.737 53.8887 141.437 53.9583 141.161 54.0975C140.888 54.2367 140.657 54.4398 140.467 54.7069C140.279 54.9739 140.151 55.2978 140.083 55.6785ZM147.912 59.7523C147.364 59.7523 146.904 59.6145 146.532 59.339C146.159 59.0606 145.897 58.6685 145.743 58.1628C145.593 57.6543 145.574 57.0535 145.688 56.3603C145.804 55.6728 146.022 55.0762 146.34 54.5705C146.661 54.0648 147.054 53.6742 147.52 53.3986C147.986 53.1231 148.495 52.9853 149.046 52.9853C149.472 52.9853 149.797 53.0563 150.022 53.1984C150.249 53.3376 150.414 53.4966 150.516 53.6756C150.618 53.8518 150.696 53.9966 150.75 54.1103H150.836L151.373 50.8887H152.378L150.929 59.616H149.958L150.128 58.6103H150.009C149.915 58.7296 149.784 58.8802 149.617 59.062C149.449 59.241 149.228 59.4015 148.952 59.5435C148.679 59.6827 148.333 59.7523 147.912 59.7523ZM148.159 58.8489C148.563 58.8489 148.924 58.7438 149.242 58.5336C149.563 58.3205 149.83 58.0265 150.043 57.6515C150.256 57.2736 150.404 56.8376 150.486 56.3432C150.569 55.8546 150.566 55.427 150.478 55.0606C150.39 54.6913 150.221 54.4043 149.971 54.1998C149.721 53.9924 149.39 53.8887 148.978 53.8887C148.554 53.8887 148.186 53.9981 147.874 54.2168C147.561 54.4327 147.307 54.7268 147.111 55.0989C146.915 55.4682 146.779 55.883 146.702 56.3432C146.625 56.8091 146.624 57.2324 146.698 57.6131C146.772 57.991 146.928 58.2921 147.167 58.5165C147.408 58.7381 147.739 58.8489 148.159 58.8489ZM158.391 54.5364L157.436 54.7921C157.402 54.6387 157.343 54.491 157.257 54.3489C157.175 54.204 157.047 54.0861 156.874 53.9952C156.703 53.9015 156.471 53.8546 156.175 53.8546C155.775 53.8546 155.426 53.9469 155.131 54.1316C154.836 54.3134 154.667 54.5449 154.624 54.8262C154.581 55.0734 154.638 55.2708 154.794 55.4185C154.951 55.5663 155.212 55.687 155.578 55.7807L156.516 56.0194C157.078 56.1643 157.479 56.3816 157.718 56.6714C157.959 56.9583 158.042 57.3319 157.965 57.7921C157.902 58.1671 157.739 58.5023 157.475 58.7978C157.211 59.0932 156.873 59.3262 156.461 59.4966C156.049 59.6671 155.59 59.7523 155.084 59.7523C154.411 59.7523 153.88 59.6074 153.49 59.3177C153.101 59.0251 152.894 58.6018 152.868 58.0478L153.874 57.8091C153.9 58.1586 154.025 58.4228 154.249 58.6018C154.476 58.7779 154.794 58.866 155.203 58.866C155.672 58.866 156.063 58.7665 156.375 58.5677C156.688 58.366 156.865 58.1245 156.908 57.8432C156.951 57.6131 156.905 57.4214 156.772 57.268C156.641 57.1145 156.414 56.9995 156.09 56.9228L155.05 56.6671C154.471 56.5222 154.064 56.3006 153.831 56.0023C153.601 55.704 153.525 55.329 153.601 54.8773C153.664 54.508 153.823 54.1813 154.078 53.8972C154.337 53.6131 154.661 53.3901 155.05 53.2282C155.442 53.0663 155.868 52.9853 156.328 52.9853C156.976 52.9853 157.461 53.1273 157.782 53.4114C158.103 53.6927 158.306 54.0677 158.391 54.5364ZM160.876 58.4228L160.723 58.883C160.621 59.2069 160.49 59.5535 160.331 59.9228C160.172 60.2921 160.014 60.6401 159.858 60.9668C159.702 61.2935 159.575 61.5535 159.479 61.7466H158.712C158.774 61.5648 158.859 61.3248 158.967 61.0265C159.075 60.7282 159.19 60.3958 159.312 60.0293C159.435 59.6628 159.547 59.2864 159.649 58.9001L159.786 58.4228H160.876ZM166.047 59.616L167.495 50.8887H172.762L172.609 51.8262H168.399L167.904 54.7751H171.842L171.689 55.7126H167.751L167.257 58.6785H171.535L171.382 59.616H166.047ZM174.923 53.0705L176.048 55.7466L178.059 53.0705H179.218L176.559 56.3432L178.127 59.616H176.968L175.826 57.0762L173.832 59.616H172.673L175.298 56.3432L173.764 53.0705H174.923ZM179.153 62.0705L180.662 53.0705H181.634L181.463 54.1103H181.582C181.673 53.9966 181.798 53.8518 181.957 53.6756C182.119 53.4966 182.337 53.3376 182.609 53.1984C182.885 53.0563 183.236 52.9853 183.662 52.9853C184.213 52.9853 184.675 53.1231 185.047 53.3986C185.419 53.6742 185.682 54.0648 185.835 54.5705C185.989 55.0762 186.009 55.6728 185.895 56.3603C185.781 57.0535 185.564 57.6543 185.243 58.1628C184.922 58.6685 184.53 59.0606 184.067 59.339C183.604 59.6145 183.099 59.7523 182.554 59.7523C182.134 59.7523 181.808 59.6827 181.578 59.5435C181.348 59.4015 181.18 59.241 181.075 59.062C180.97 58.8802 180.889 58.7296 180.832 58.6103H180.747L180.168 62.0705H179.153ZM181.105 56.3432C181.026 56.8376 181.026 57.2736 181.105 57.6515C181.188 58.0265 181.351 58.3205 181.595 58.5336C181.842 58.7438 182.168 58.8489 182.571 58.8489C182.991 58.8489 183.359 58.7381 183.675 58.5165C183.993 58.2921 184.254 57.991 184.459 57.6131C184.666 57.2324 184.81 56.8091 184.889 56.3432C184.963 55.883 184.96 55.4682 184.881 55.0989C184.801 54.7268 184.639 54.4327 184.395 54.2168C184.151 53.9981 183.815 53.8887 183.389 53.8887C182.98 53.8887 182.618 53.9924 182.303 54.1998C181.99 54.4043 181.732 54.6913 181.527 55.0606C181.325 55.427 181.185 55.8546 181.105 56.3432ZM189.614 59.7523C188.986 59.7523 188.468 59.6131 188.059 59.3347C187.65 59.0535 187.364 58.6614 187.202 58.1586C187.04 57.6529 187.015 57.0648 187.125 56.3944C187.236 55.7239 187.456 55.133 187.786 54.6216C188.115 54.1074 188.526 53.7069 189.017 53.4199C189.509 53.1302 190.049 52.9853 190.637 52.9853C190.978 52.9853 191.306 53.0421 191.621 53.1557C191.936 53.2694 192.209 53.454 192.439 53.7097C192.669 53.9626 192.83 54.2978 192.921 54.7154C193.012 55.133 193.006 55.6472 192.904 56.258L192.836 56.6841H187.79L187.926 55.8148H191.949C192.015 55.4455 191.998 55.116 191.898 54.8262C191.801 54.5364 191.632 54.3077 191.391 54.1401C191.152 53.9725 190.85 53.8887 190.483 53.8887C190.105 53.8887 189.753 53.991 189.426 54.1955C189.1 54.3972 188.827 54.6529 188.608 54.9626C188.39 55.2694 188.253 55.5819 188.199 55.9001L188.08 56.6501C187.995 57.1927 188.007 57.6245 188.118 57.9455C188.232 58.2665 188.429 58.4981 188.711 58.6401C188.992 58.7793 189.344 58.8489 189.767 58.8489C190.037 58.8489 190.286 58.812 190.513 58.7381C190.74 58.6614 190.944 58.5478 191.123 58.3972C191.301 58.2438 191.452 58.0535 191.574 57.8262L192.495 58.0989C192.338 58.4285 192.118 58.7182 191.834 58.9682C191.553 59.2154 191.223 59.4086 190.846 59.5478C190.471 59.6841 190.06 59.7523 189.614 59.7523ZM193.895 59.616L194.985 53.0705H195.957L195.787 54.0591H195.855C196.025 53.7353 196.285 53.4725 196.635 53.2708C196.984 53.0691 197.355 52.9682 197.747 52.9682C197.824 52.9682 197.916 52.9697 198.024 52.9725C198.132 52.9725 198.216 52.9768 198.275 52.9853L198.105 54.008C198.071 53.9995 197.994 53.9867 197.875 53.9697C197.755 53.9498 197.627 53.9398 197.491 53.9398C197.173 53.9398 196.879 54.0066 196.609 54.1401C196.339 54.2708 196.113 54.4526 195.931 54.6856C195.75 54.9157 195.633 55.1785 195.582 55.4739L194.9 59.616H193.895ZM202.73 53.0705L202.594 53.9228H199.202L199.338 53.0705H202.73ZM200.583 51.5023H201.588L200.549 57.741C200.503 58.0251 200.51 58.2381 200.57 58.3802C200.632 58.5194 200.726 58.6131 200.851 58.6614C200.979 58.7069 201.117 58.7296 201.265 58.7296C201.375 58.7296 201.466 58.7239 201.537 58.7126C201.608 58.6984 201.665 58.687 201.708 58.6785L201.776 59.5819C201.699 59.6074 201.596 59.633 201.465 59.6586C201.337 59.687 201.179 59.7012 200.992 59.7012C200.708 59.7012 200.441 59.6401 200.191 59.518C199.941 59.3958 199.749 59.2097 199.615 58.9597C199.482 58.7097 199.446 58.3944 199.509 58.0137L200.583 51.5023ZM207.367 55.4057L207.213 56.3432H203.395L203.549 55.4057H207.367ZM208.932 59.616H207.824L212.477 50.8887H213.568L215.324 59.616H214.216L212.835 52.2694H212.767L208.932 59.616ZM209.903 56.2069H214.369L214.216 57.1444H209.75L209.903 56.2069ZM216.138 62.0705L217.646 53.0705H218.618L218.447 54.1103H218.567C218.658 53.9966 218.783 53.8518 218.942 53.6756C219.104 53.4966 219.321 53.3376 219.594 53.1984C219.869 53.0563 220.22 52.9853 220.646 52.9853C221.197 52.9853 221.659 53.1231 222.031 53.3986C222.403 53.6742 222.666 54.0648 222.82 54.5705C222.973 55.0762 222.993 55.6728 222.879 56.3603C222.766 57.0535 222.548 57.6543 222.227 58.1628C221.906 58.6685 221.514 59.0606 221.051 59.339C220.588 59.6145 220.084 59.7523 219.538 59.7523C219.118 59.7523 218.793 59.6827 218.562 59.5435C218.332 59.4015 218.165 59.241 218.06 59.062C217.955 58.8802 217.874 58.7296 217.817 58.6103H217.732L217.152 62.0705H216.138ZM218.089 56.3432C218.01 56.8376 218.01 57.2736 218.089 57.6515C218.172 58.0265 218.335 58.3205 218.58 58.5336C218.827 58.7438 219.152 58.8489 219.555 58.8489C219.976 58.8489 220.344 58.7381 220.659 58.5165C220.977 58.2921 221.239 57.991 221.443 57.6131C221.651 57.2324 221.794 56.8091 221.874 56.3432C221.947 55.883 221.945 55.4682 221.865 55.0989C221.786 54.7268 221.624 54.4327 221.379 54.2168C221.135 53.9981 220.8 53.8887 220.374 53.8887C219.964 53.8887 219.602 53.9924 219.287 54.1998C218.974 54.4043 218.716 54.6913 218.511 55.0606C218.31 55.427 218.169 55.8546 218.089 56.3432ZM223.462 62.0705L224.971 53.0705H225.942L225.772 54.1103H225.891C225.982 53.9966 226.107 53.8518 226.266 53.6756C226.428 53.4966 226.645 53.3376 226.918 53.1984C227.194 53.0563 227.544 52.9853 227.971 52.9853C228.522 52.9853 228.983 53.1231 229.355 53.3986C229.728 53.6742 229.99 54.0648 230.144 54.5705C230.297 55.0762 230.317 55.6728 230.203 56.3603C230.09 57.0535 229.873 57.6543 229.551 58.1628C229.23 58.6685 228.838 59.0606 228.375 59.339C227.912 59.6145 227.408 59.7523 226.863 59.7523C226.442 59.7523 226.117 59.6827 225.887 59.5435C225.657 59.4015 225.489 59.241 225.384 59.062C225.279 58.8802 225.198 58.7296 225.141 58.6103H225.056L224.476 62.0705H223.462ZM225.414 56.3432C225.334 56.8376 225.334 57.2736 225.414 57.6515C225.496 58.0265 225.659 58.3205 225.904 58.5336C226.151 58.7438 226.476 58.8489 226.88 58.8489C227.3 58.8489 227.668 58.7381 227.983 58.5165C228.301 58.2921 228.563 57.991 228.767 57.6131C228.975 57.2324 229.118 56.8091 229.198 56.3432C229.272 55.883 229.269 55.4682 229.189 55.0989C229.11 54.7268 228.948 54.4327 228.703 54.2168C228.459 53.9981 228.124 53.8887 227.698 53.8887C227.289 53.8887 226.926 53.9924 226.611 54.1998C226.299 54.4043 226.04 54.6913 225.836 55.0606C225.634 55.427 225.493 55.8546 225.414 56.3432ZM231.195 59.616L232.286 53.0705H233.258L233.087 54.0591H233.156C233.326 53.7353 233.586 53.4725 233.935 53.2708C234.285 53.0691 234.656 52.9682 235.048 52.9682C235.124 52.9682 235.217 52.9697 235.325 52.9725C235.433 52.9725 235.516 52.9768 235.576 52.9853L235.406 54.008C235.371 53.9995 235.295 53.9867 235.175 53.9697C235.056 53.9498 234.928 53.9398 234.792 53.9398C234.474 53.9398 234.18 54.0066 233.91 54.1401C233.64 54.2708 233.414 54.4526 233.232 54.6856C233.05 54.9157 232.934 55.1785 232.883 55.4739L232.201 59.616H231.195ZM238.186 59.7523C237.584 59.7523 237.08 59.6089 236.673 59.3219C236.267 59.035 235.98 58.633 235.812 58.116C235.648 57.5989 235.621 56.9966 235.732 56.3091C235.839 55.6387 236.054 55.0549 236.375 54.5577C236.699 54.0577 237.101 53.6714 237.581 53.3986C238.064 53.1231 238.595 52.9853 239.175 52.9853C239.777 52.9853 240.28 53.1302 240.683 53.4199C241.089 53.7069 241.376 54.1103 241.544 54.6302C241.712 55.1472 241.74 55.7523 241.629 56.4455C241.521 57.1103 241.304 57.6913 240.977 58.1884C240.653 58.6827 240.251 59.0677 239.771 59.3432C239.294 59.616 238.766 59.7523 238.186 59.7523ZM238.203 58.8489C238.663 58.8489 239.062 58.731 239.401 58.4952C239.741 58.2594 240.017 57.9484 240.227 57.562C240.44 57.1756 240.584 56.758 240.658 56.3091C240.726 55.883 240.723 55.4867 240.649 55.1202C240.575 54.7509 240.418 54.454 240.176 54.2296C239.935 54.0023 239.595 53.8887 239.158 53.8887C238.697 53.8887 238.295 54.008 237.952 54.2466C237.611 54.4853 237.335 54.7992 237.125 55.1884C236.915 55.5776 236.774 55.9966 236.703 56.4455C236.635 56.8716 236.636 57.268 236.707 57.6344C236.781 57.9981 236.939 58.2921 237.18 58.5165C237.425 58.7381 237.766 58.8489 238.203 58.8489ZM248.853 53.0705L245.342 59.616H244.319L242.99 53.0705H244.038L244.975 58.2864H245.044L247.72 53.0705H248.853ZM251.583 59.7523C250.955 59.7523 250.436 59.6131 250.027 59.3347C249.618 59.0535 249.333 58.6614 249.171 58.1586C249.009 57.6529 248.983 57.0648 249.094 56.3944C249.205 55.7239 249.425 55.133 249.755 54.6216C250.084 54.1074 250.495 53.7069 250.986 53.4199C251.478 53.1302 252.017 52.9853 252.605 52.9853C252.946 52.9853 253.275 53.0421 253.59 53.1557C253.905 53.2694 254.178 53.454 254.408 53.7097C254.638 53.9626 254.799 54.2978 254.89 54.7154C254.98 55.133 254.975 55.6472 254.873 56.258L254.804 56.6841H249.759L249.895 55.8148H253.918C253.983 55.4455 253.966 55.116 253.867 54.8262C253.77 54.5364 253.601 54.3077 253.36 54.1401C253.121 53.9725 252.819 53.8887 252.452 53.8887C252.074 53.8887 251.722 53.991 251.395 54.1955C251.069 54.3972 250.796 54.6529 250.577 54.9626C250.358 55.2694 250.222 55.5819 250.168 55.9001L250.049 56.6501C249.963 57.1927 249.976 57.6245 250.087 57.9455C250.201 58.2665 250.398 58.4981 250.679 58.6401C250.961 58.7793 251.313 58.8489 251.736 58.8489C252.006 58.8489 252.255 58.812 252.482 58.7381C252.709 58.6614 252.912 58.5478 253.091 58.3972C253.27 58.2438 253.421 58.0535 253.543 57.8262L254.463 58.0989C254.307 58.4285 254.087 58.7182 253.803 58.9682C253.522 59.2154 253.192 59.4086 252.814 59.5478C252.439 59.6841 252.029 59.7523 251.583 59.7523ZM258.326 59.7523C257.778 59.7523 257.318 59.6145 256.946 59.339C256.574 59.0606 256.311 58.6685 256.157 58.1628C256.007 57.6543 255.988 57.0535 256.102 56.3603C256.218 55.6728 256.436 55.0762 256.754 54.5705C257.075 54.0648 257.468 53.6742 257.934 53.3986C258.4 53.1231 258.909 52.9853 259.46 52.9853C259.886 52.9853 260.211 53.0563 260.436 53.1984C260.663 53.3376 260.828 53.4966 260.93 53.6756C261.032 53.8518 261.11 53.9966 261.164 54.1103H261.25L261.787 50.8887H262.792L261.343 59.616H260.372L260.542 58.6103H260.423C260.329 58.7296 260.199 58.8802 260.031 59.062C259.863 59.241 259.642 59.4015 259.366 59.5435C259.093 59.6827 258.747 59.7523 258.326 59.7523ZM258.574 58.8489C258.977 58.8489 259.338 58.7438 259.656 58.5336C259.977 58.3205 260.244 58.0265 260.457 57.6515C260.67 57.2736 260.818 56.8376 260.9 56.3432C260.983 55.8546 260.98 55.427 260.892 55.0606C260.804 54.6913 260.635 54.4043 260.385 54.1998C260.135 53.9924 259.804 53.8887 259.392 53.8887C258.968 53.8887 258.6 53.9981 258.288 54.2168C257.975 54.4327 257.721 54.7268 257.525 55.0989C257.329 55.4682 257.193 55.883 257.116 56.3432C257.039 56.8091 257.038 57.2324 257.112 57.6131C257.186 57.991 257.342 58.2921 257.581 58.5165C257.822 58.7381 258.153 58.8489 258.574 58.8489ZM264.169 59.6841C263.953 59.6841 263.772 59.6103 263.627 59.4626C263.483 59.312 263.407 59.1302 263.402 58.9171C263.399 58.704 263.474 58.5265 263.627 58.3844C263.781 58.2395 263.961 58.1671 264.169 58.1671C264.379 58.1671 264.561 58.241 264.714 58.3887C264.868 58.5364 264.941 58.7126 264.936 58.9171C264.933 59.0591 264.896 59.1884 264.825 59.3049C264.757 59.4214 264.664 59.5137 264.548 59.5819C264.434 59.6501 264.308 59.6841 264.169 59.6841ZM264.97 54.8262C264.754 54.8262 264.574 54.7523 264.429 54.6046C264.284 54.454 264.208 54.2722 264.203 54.0591C264.2 53.8461 264.275 53.6685 264.429 53.5265C264.582 53.3816 264.762 53.3091 264.97 53.3091C265.18 53.3091 265.362 53.383 265.515 53.5307C265.669 53.6785 265.743 53.8546 265.737 54.0591C265.734 54.2012 265.697 54.3305 265.626 54.4469C265.558 54.5634 265.466 54.6557 265.349 54.7239C265.235 54.7921 265.109 54.8262 264.97 54.8262ZM272.86 59.616H270.132L271.581 50.8887H274.36C275.206 50.8887 275.904 51.0663 276.452 51.4214C277.003 51.7765 277.387 52.2836 277.603 52.9427C277.821 53.6018 277.854 54.3887 277.701 55.3035C277.553 56.2012 277.266 56.9725 276.84 57.6174C276.417 58.2594 275.868 58.7538 275.195 59.1003C274.525 59.4441 273.746 59.616 272.86 59.616ZM271.347 58.6785H272.894C273.615 58.6785 274.238 58.5364 274.76 58.2523C275.286 57.9682 275.709 57.5634 276.03 57.0378C276.354 56.5123 276.576 55.8887 276.695 55.1671C276.814 54.4739 276.803 53.8788 276.661 53.3816C276.522 52.8816 276.248 52.4981 275.838 52.231C275.432 51.9611 274.888 51.8262 274.206 51.8262H272.48L271.347 58.6785ZM278.621 59.616L279.712 53.0705H280.718L279.627 59.616H278.621ZM280.522 51.9626C280.326 51.9626 280.157 51.8958 280.015 51.7623C279.875 51.6288 279.806 51.4682 279.806 51.2807C279.806 51.0932 279.875 50.9327 280.015 50.7992C280.157 50.6657 280.326 50.5989 280.522 50.5989C280.718 50.5989 280.885 50.6657 281.025 50.7992C281.167 50.9327 281.238 51.0932 281.238 51.2807C281.238 51.4682 281.167 51.6288 281.025 51.7623C280.885 51.8958 280.718 51.9626 280.522 51.9626ZM286.957 54.5364L286.003 54.7921C285.969 54.6387 285.909 54.491 285.824 54.3489C285.741 54.204 285.614 54.0861 285.44 53.9952C285.27 53.9015 285.037 53.8546 284.741 53.8546C284.341 53.8546 283.993 53.9469 283.697 54.1316C283.402 54.3134 283.233 54.5449 283.19 54.8262C283.148 55.0734 283.205 55.2708 283.361 55.4185C283.517 55.5663 283.778 55.687 284.145 55.7807L285.082 56.0194C285.645 56.1643 286.045 56.3816 286.284 56.6714C286.526 56.9583 286.608 57.3319 286.531 57.7921C286.469 58.1671 286.305 58.5023 286.041 58.7978C285.777 59.0932 285.439 59.3262 285.027 59.4966C284.615 59.6671 284.156 59.7523 283.651 59.7523C282.977 59.7523 282.446 59.6074 282.057 59.3177C281.668 59.0251 281.46 58.6018 281.435 58.0478L282.44 57.8091C282.466 58.1586 282.591 58.4228 282.815 58.6018C283.043 58.7779 283.361 58.866 283.77 58.866C284.239 58.866 284.629 58.7665 284.942 58.5677C285.254 58.366 285.432 58.1245 285.474 57.8432C285.517 57.6131 285.472 57.4214 285.338 57.268C285.207 57.1145 284.98 56.9995 284.656 56.9228L283.616 56.6671C283.037 56.5222 282.631 56.3006 282.398 56.0023C282.168 55.704 282.091 55.329 282.168 54.8773C282.23 54.508 282.389 54.1813 282.645 53.8972C282.903 53.6131 283.227 53.3901 283.616 53.2282C284.009 53.0663 284.435 52.9853 284.895 52.9853C285.543 52.9853 286.027 53.1273 286.348 53.4114C286.669 53.6927 286.872 54.0677 286.957 54.5364ZM290.38 59.7523C289.764 59.7523 289.258 59.6074 288.863 59.3177C288.471 59.0279 288.199 58.6288 288.045 58.1202C287.892 57.6117 287.869 57.0307 287.977 56.3773C288.085 55.7126 288.304 55.1259 288.633 54.6174C288.963 54.106 289.373 53.7069 289.865 53.4199C290.356 53.1302 290.897 52.9853 291.488 52.9853C291.949 52.9853 292.349 53.0705 292.69 53.241C293.031 53.4114 293.294 53.6501 293.478 53.9569C293.663 54.2637 293.75 54.6216 293.738 55.0307H292.733C292.704 54.7324 292.576 54.4682 292.349 54.2381C292.125 54.0052 291.792 53.8887 291.352 53.8887C290.96 53.8887 290.599 53.991 290.27 54.1955C289.94 54.3972 289.663 54.6827 289.439 55.052C289.214 55.4185 289.062 55.8489 288.983 56.3432C288.897 56.8489 288.904 57.2893 289.004 57.6643C289.103 58.0393 289.284 58.3305 289.545 58.5378C289.806 58.7452 290.136 58.8489 290.534 58.8489C290.795 58.8489 291.039 58.8035 291.267 58.7126C291.494 58.6216 291.696 58.491 291.872 58.3205C292.048 58.1501 292.187 57.9455 292.289 57.7069H293.295C293.17 58.0932 292.97 58.4413 292.694 58.7509C292.419 59.0577 292.085 59.302 291.693 59.4839C291.301 59.6628 290.863 59.7523 290.38 59.7523ZM297.143 59.7523C296.541 59.7523 296.037 59.6089 295.63 59.3219C295.224 59.035 294.937 58.633 294.77 58.116C294.605 57.5989 294.578 56.9966 294.689 56.3091C294.797 55.6387 295.011 55.0549 295.332 54.5577C295.656 54.0577 296.058 53.6714 296.538 53.3986C297.021 53.1231 297.552 52.9853 298.132 52.9853C298.734 52.9853 299.237 53.1302 299.64 53.4199C300.047 53.7069 300.333 54.1103 300.501 54.6302C300.669 55.1472 300.697 55.7523 300.586 56.4455C300.478 57.1103 300.261 57.6913 299.934 58.1884C299.61 58.6827 299.208 59.0677 298.728 59.3432C298.251 59.616 297.723 59.7523 297.143 59.7523ZM297.16 58.8489C297.62 58.8489 298.02 58.731 298.358 58.4952C298.699 58.2594 298.974 57.9484 299.184 57.562C299.397 57.1756 299.541 56.758 299.615 56.3091C299.683 55.883 299.68 55.4867 299.606 55.1202C299.532 54.7509 299.375 54.454 299.133 54.2296C298.892 54.0023 298.552 53.8887 298.115 53.8887C297.654 53.8887 297.252 54.008 296.909 54.2466C296.568 54.4853 296.292 54.7992 296.082 55.1884C295.872 55.5776 295.731 55.9966 295.66 56.4455C295.592 56.8716 295.593 57.268 295.664 57.6344C295.738 57.9981 295.896 58.2921 296.137 58.5165C296.382 58.7381 296.723 58.8489 297.16 58.8489ZM307.81 53.0705L304.299 59.616H303.276L301.947 53.0705H302.995L303.933 58.2864H304.001L306.677 53.0705H307.81ZM310.54 59.7523C309.912 59.7523 309.393 59.6131 308.984 59.3347C308.575 59.0535 308.29 58.6614 308.128 58.1586C307.966 57.6529 307.94 57.0648 308.051 56.3944C308.162 55.7239 308.382 55.133 308.712 54.6216C309.041 54.1074 309.452 53.7069 309.943 53.4199C310.435 53.1302 310.974 52.9853 311.562 52.9853C311.903 52.9853 312.232 53.0421 312.547 53.1557C312.862 53.2694 313.135 53.454 313.365 53.7097C313.595 53.9626 313.756 54.2978 313.847 54.7154C313.938 55.133 313.932 55.6472 313.83 56.258L313.761 56.6841H308.716L308.852 55.8148H312.875C312.94 55.4455 312.923 55.116 312.824 54.8262C312.727 54.5364 312.558 54.3077 312.317 54.1401C312.078 53.9725 311.776 53.8887 311.409 53.8887C311.031 53.8887 310.679 53.991 310.352 54.1955C310.026 54.3972 309.753 54.6529 309.534 54.9626C309.315 55.2694 309.179 55.5819 309.125 55.9001L309.006 56.6501C308.92 57.1927 308.933 57.6245 309.044 57.9455C309.158 58.2665 309.355 58.4981 309.636 58.6401C309.918 58.7793 310.27 58.8489 310.693 58.8489C310.963 58.8489 311.212 58.812 311.439 58.7381C311.666 58.6614 311.869 58.5478 312.048 58.3972C312.227 58.2438 312.378 58.0535 312.5 57.8262L313.42 58.0989C313.264 58.4285 313.044 58.7182 312.76 58.9682C312.479 59.2154 312.149 59.4086 311.771 59.5478C311.396 59.6841 310.986 59.7523 310.54 59.7523ZM314.82 59.616L315.911 53.0705H316.883L316.712 54.0591H316.781C316.951 53.7353 317.211 53.4725 317.56 53.2708C317.91 53.0691 318.281 52.9682 318.673 52.9682C318.749 52.9682 318.842 52.9697 318.95 52.9725C319.058 52.9725 319.141 52.9768 319.201 52.9853L319.031 54.008C318.996 53.9995 318.92 53.9867 318.8 53.9697C318.681 53.9498 318.553 53.9398 318.417 53.9398C318.099 53.9398 317.805 54.0066 317.535 54.1401C317.265 54.2708 317.039 54.4526 316.857 54.6856C316.675 54.9157 316.559 55.1785 316.508 55.4739L315.826 59.616H314.82ZM103.591 70.3205C103.438 71.2296 103.143 72.0151 102.709 72.677C102.274 73.3361 101.743 73.8447 101.115 74.2026C100.487 74.5577 99.8068 74.7353 99.0739 74.7353C98.3182 74.7353 97.6747 74.5506 97.1435 74.1813C96.6151 73.8091 96.2372 73.2836 96.0099 72.6046C95.7855 71.9228 95.75 71.116 95.9034 70.1841C96.0568 69.2751 96.3509 68.491 96.7855 67.8319C97.2202 67.1699 97.7528 66.6614 98.3835 66.3063C99.0142 65.9484 99.6989 65.7694 100.438 65.7694C101.188 65.7694 101.825 65.9555 102.351 66.3276C102.879 66.6969 103.256 67.2225 103.48 67.9043C103.707 68.5833 103.744 69.3887 103.591 70.3205ZM102.585 70.1841C102.71 69.4398 102.692 68.8134 102.53 68.3049C102.368 67.7964 102.099 67.4114 101.724 67.1501C101.349 66.8887 100.903 66.758 100.386 66.758C99.8466 66.758 99.3352 66.8958 98.8523 67.1714C98.3693 67.4441 97.956 67.8461 97.6122 68.3773C97.2685 68.9057 97.0341 69.5535 96.9091 70.3205C96.7841 71.0648 96.8026 71.6913 96.9645 72.1998C97.1264 72.7083 97.3949 73.0932 97.7699 73.3546C98.1449 73.616 98.5909 73.7466 99.108 73.7466C99.6477 73.7466 100.159 73.6103 100.642 73.3376C101.125 73.062 101.538 72.66 101.882 72.1316C102.226 71.6003 102.46 70.9512 102.585 70.1841ZM109.084 71.9398L109.732 68.0705H110.737L109.646 74.616H108.641L108.828 73.508H108.76C108.555 73.8404 108.27 74.1231 107.903 74.356C107.537 74.5861 107.107 74.7012 106.612 74.7012C106.203 74.7012 105.854 74.6117 105.564 74.4327C105.277 74.2509 105.072 73.9782 104.95 73.6145C104.831 73.2481 104.817 72.7864 104.908 72.2296L105.607 68.0705H106.612L105.93 72.1614C105.854 72.6387 105.926 73.0194 106.148 73.3035C106.369 73.5876 106.689 73.7296 107.107 73.7296C107.357 73.7296 107.621 73.6657 107.899 73.5378C108.18 73.41 108.43 73.214 108.649 72.9498C108.871 72.6856 109.016 72.3489 109.084 71.9398ZM111.488 74.616L112.579 68.0705H113.551L113.38 69.0591H113.449C113.619 68.7353 113.879 68.4725 114.228 68.2708C114.578 68.0691 114.949 67.9682 115.341 67.9682C115.417 67.9682 115.51 67.9697 115.618 67.9725C115.725 67.9725 115.809 67.9768 115.869 67.9853L115.699 69.008C115.664 68.9995 115.588 68.9867 115.468 68.9697C115.349 68.9498 115.221 68.9398 115.085 68.9398C114.767 68.9398 114.473 69.0066 114.203 69.1401C113.933 69.2708 113.707 69.4526 113.525 69.6856C113.343 69.9157 113.227 70.1785 113.176 70.4739L112.494 74.616H111.488ZM119.488 74.616L120.937 65.8887H123.886C124.567 65.8887 125.107 66.0038 125.505 66.2339C125.906 66.464 126.177 66.7807 126.319 67.1841C126.464 67.5876 126.494 68.0478 126.408 68.5648C126.323 69.0762 126.141 69.5307 125.863 69.9285C125.587 70.3262 125.212 70.6387 124.738 70.866C124.266 71.0932 123.692 71.2069 123.016 71.2069H120.63L120.8 70.2523H123.153C123.619 70.2523 124.005 70.1841 124.312 70.0478C124.619 69.9114 124.857 69.7168 125.028 69.464C125.198 69.2111 125.312 68.9114 125.369 68.5648C125.425 68.2126 125.41 67.9072 125.322 67.6486C125.237 67.3873 125.062 67.1856 124.798 67.0435C124.536 66.8986 124.17 66.8262 123.698 66.8262H121.84L120.545 74.616H119.488ZM124.244 70.6955L125.744 74.616H124.516L123.05 70.6955H124.244ZM129.684 74.7523C129.056 74.7523 128.538 74.6131 128.129 74.3347C127.72 74.0535 127.434 73.6614 127.272 73.1586C127.11 72.6529 127.085 72.0648 127.196 71.3944C127.306 70.7239 127.527 70.133 127.856 69.6216C128.186 69.1074 128.596 68.7069 129.088 68.4199C129.579 68.1302 130.119 67.9853 130.707 67.9853C131.048 67.9853 131.376 68.0421 131.691 68.1557C132.007 68.2694 132.279 68.454 132.51 68.7097C132.74 68.9626 132.9 69.2978 132.991 69.7154C133.082 70.133 133.076 70.6472 132.974 71.258L132.906 71.6841H127.86L127.997 70.8148H132.02C132.085 70.4455 132.068 70.116 131.968 69.8262C131.872 69.5364 131.703 69.3077 131.461 69.1401C131.223 68.9725 130.92 68.8887 130.554 68.8887C130.176 68.8887 129.824 68.991 129.497 69.1955C129.17 69.3972 128.897 69.6529 128.679 69.9626C128.46 70.2694 128.324 70.5819 128.27 70.9001L128.15 71.6501C128.065 72.1927 128.078 72.6245 128.189 72.9455C128.302 73.2665 128.5 73.4981 128.781 73.6401C129.062 73.7793 129.414 73.8489 129.838 73.8489C130.108 73.8489 130.356 73.812 130.583 73.7381C130.811 73.6614 131.014 73.5478 131.193 73.3972C131.372 73.2438 131.522 73.0535 131.645 72.8262L132.565 73.0989C132.409 73.4285 132.189 73.7182 131.904 73.9682C131.623 74.2154 131.294 74.4086 130.916 74.5478C130.541 74.6841 130.13 74.7523 129.684 74.7523ZM139.453 69.5364L138.499 69.7921C138.465 69.6387 138.405 69.491 138.32 69.3489C138.238 69.204 138.11 69.0861 137.936 68.9952C137.766 68.9015 137.533 68.8546 137.238 68.8546C136.837 68.8546 136.489 68.9469 136.194 69.1316C135.898 69.3134 135.729 69.5449 135.686 69.8262C135.644 70.0734 135.701 70.2708 135.857 70.4185C136.013 70.5663 136.275 70.687 136.641 70.7807L137.578 71.0194C138.141 71.1643 138.542 71.3816 138.78 71.6714C139.022 71.9583 139.104 72.3319 139.027 72.7921C138.965 73.1671 138.801 73.5023 138.537 73.7978C138.273 74.0932 137.935 74.3262 137.523 74.4966C137.111 74.6671 136.652 74.7523 136.147 74.7523C135.473 74.7523 134.942 74.6074 134.553 74.3177C134.164 74.0251 133.956 73.6018 133.931 73.0478L134.936 72.8091C134.962 73.1586 135.087 73.4228 135.311 73.6018C135.539 73.7779 135.857 73.866 136.266 73.866C136.735 73.866 137.125 73.7665 137.438 73.5677C137.75 73.366 137.928 73.1245 137.971 72.8432C138.013 72.6131 137.968 72.4214 137.834 72.268C137.703 72.1145 137.476 71.9995 137.152 71.9228L136.113 71.6671C135.533 71.5222 135.127 71.3006 134.894 71.0023C134.664 70.704 134.587 70.329 134.664 69.8773C134.726 69.508 134.885 69.1813 135.141 68.8972C135.4 68.6131 135.723 68.3901 136.113 68.2282C136.505 68.0663 136.931 67.9853 137.391 67.9853C138.039 67.9853 138.523 68.1273 138.844 68.4114C139.165 68.6927 139.368 69.0677 139.453 69.5364ZM142.962 74.7523C142.334 74.7523 141.815 74.6131 141.406 74.3347C140.997 74.0535 140.712 73.6614 140.55 73.1586C140.388 72.6529 140.362 72.0648 140.473 71.3944C140.584 70.7239 140.804 70.133 141.134 69.6216C141.463 69.1074 141.874 68.7069 142.365 68.4199C142.857 68.1302 143.396 67.9853 143.984 67.9853C144.325 67.9853 144.653 68.0421 144.969 68.1557C145.284 68.2694 145.557 68.454 145.787 68.7097C146.017 68.9626 146.178 69.2978 146.268 69.7154C146.359 70.133 146.354 70.6472 146.251 71.258L146.183 71.6841H141.138L141.274 70.8148H145.297C145.362 70.4455 145.345 70.116 145.246 69.8262C145.149 69.5364 144.98 69.3077 144.739 69.1401C144.5 68.9725 144.197 68.8887 143.831 68.8887C143.453 68.8887 143.101 68.991 142.774 69.1955C142.447 69.3972 142.175 69.6529 141.956 69.9626C141.737 70.2694 141.601 70.5819 141.547 70.9001L141.428 71.6501C141.342 72.1927 141.355 72.6245 141.466 72.9455C141.58 73.2665 141.777 73.4981 142.058 73.6401C142.339 73.7793 142.692 73.8489 143.115 73.8489C143.385 73.8489 143.634 73.812 143.861 73.7381C144.088 73.6614 144.291 73.5478 144.47 73.3972C144.649 73.2438 144.8 73.0535 144.922 72.8262L145.842 73.0989C145.686 73.4285 145.466 73.7182 145.182 73.9682C144.901 74.2154 144.571 74.4086 144.193 74.5478C143.818 74.6841 143.408 74.7523 142.962 74.7523ZM149.151 74.7694C148.737 74.7694 148.373 74.6913 148.06 74.535C147.748 74.3759 147.516 74.1472 147.366 73.8489C147.215 73.5478 147.174 73.1841 147.242 72.758C147.308 72.383 147.434 72.079 147.621 71.8461C147.809 71.6103 148.036 71.4256 148.303 71.2921C148.573 71.1557 148.863 71.0549 149.173 70.9895C149.485 70.9214 149.796 70.8688 150.106 70.8319C150.509 70.7807 150.837 70.741 151.09 70.7126C151.343 70.6841 151.533 70.6373 151.661 70.5719C151.789 70.5066 151.867 70.3944 151.896 70.2353V70.2012C151.964 69.7836 151.908 69.4583 151.729 69.2253C151.55 68.9895 151.231 68.8716 150.771 68.8716C150.293 68.8716 149.894 68.9768 149.573 69.187C149.252 69.3972 149.015 69.6216 148.862 69.8603L147.975 69.5194C148.208 69.1216 148.487 68.812 148.81 68.5904C149.134 68.366 149.474 68.2097 149.829 68.1216C150.184 68.0307 150.526 67.9853 150.856 67.9853C151.066 67.9853 151.303 68.0109 151.567 68.062C151.832 68.1103 152.079 68.2111 152.309 68.3645C152.542 68.518 152.717 68.7495 152.833 69.0591C152.952 69.3688 152.969 69.7836 152.884 70.3035L152.168 74.616H151.163L151.316 73.7296H151.265C151.174 73.8716 151.035 74.0236 150.847 74.1856C150.663 74.3475 150.428 74.4853 150.144 74.5989C149.863 74.7126 149.532 74.7694 149.151 74.7694ZM149.441 73.866C149.839 73.866 150.187 73.7878 150.485 73.6316C150.786 73.4753 151.028 73.2736 151.21 73.0265C151.394 72.7793 151.509 72.5194 151.555 72.2466L151.708 71.3262C151.657 71.3773 151.556 71.4242 151.406 71.4668C151.255 71.5066 151.085 71.5421 150.894 71.5734C150.707 71.6018 150.523 71.6273 150.344 71.6501C150.168 71.6699 150.026 71.687 149.918 71.7012C149.651 71.7353 149.397 71.7907 149.156 71.8674C148.917 71.9413 148.715 72.0535 148.55 72.204C148.388 72.3518 148.288 72.5535 148.248 72.8091C148.188 73.1586 148.272 73.4228 148.499 73.6018C148.727 73.7779 149.04 73.866 149.441 73.866ZM154.004 74.616L155.095 68.0705H156.066L155.896 69.0591H155.964C156.135 68.7353 156.395 68.4725 156.744 68.2708C157.093 68.0691 157.464 67.9682 157.856 67.9682C157.933 67.9682 158.025 67.9697 158.133 67.9725C158.241 67.9725 158.325 67.9768 158.385 67.9853L158.214 69.008C158.18 68.9995 158.103 68.9867 157.984 68.9697C157.865 68.9498 157.737 68.9398 157.6 68.9398C157.282 68.9398 156.988 69.0066 156.718 69.1401C156.449 69.2708 156.223 69.4526 156.041 69.6856C155.859 69.9157 155.743 70.1785 155.691 70.4739L155.01 74.616H154.004ZM160.935 74.7523C160.319 74.7523 159.813 74.6074 159.418 74.3177C159.026 74.0279 158.753 73.6288 158.6 73.1202C158.446 72.6117 158.424 72.0307 158.532 71.3773C158.64 70.7126 158.858 70.1259 159.188 69.6174C159.517 69.106 159.928 68.7069 160.419 68.4199C160.911 68.1302 161.452 67.9853 162.043 67.9853C162.503 67.9853 162.904 68.0705 163.245 68.241C163.586 68.4114 163.848 68.6501 164.033 68.9569C164.218 69.2637 164.304 69.6216 164.293 70.0307H163.287C163.259 69.7324 163.131 69.4682 162.904 69.2381C162.679 69.0052 162.347 68.8887 161.907 68.8887C161.515 68.8887 161.154 68.991 160.824 69.1955C160.495 69.3972 160.218 69.6827 159.993 70.052C159.769 70.4185 159.617 70.8489 159.537 71.3432C159.452 71.8489 159.459 72.2893 159.559 72.6643C159.658 73.0393 159.838 73.3305 160.1 73.5378C160.361 73.7452 160.691 73.8489 161.088 73.8489C161.35 73.8489 161.594 73.8035 161.821 73.7126C162.049 73.6216 162.25 73.491 162.426 73.3205C162.603 73.1501 162.742 72.9455 162.844 72.7069H163.85C163.725 73.0932 163.525 73.4413 163.249 73.7509C162.973 74.0577 162.64 74.302 162.248 74.4839C161.855 74.6628 161.418 74.7523 160.935 74.7523ZM166.65 70.6785L166.002 74.616H164.996L166.445 65.8887H167.451L166.922 69.0932H167.007C167.212 68.7523 167.485 68.4824 167.826 68.2836C168.169 68.0847 168.601 67.9853 169.121 67.9853C169.564 67.9853 169.938 68.0748 170.242 68.2538C170.549 68.4299 170.765 68.7012 170.89 69.0677C171.017 69.4313 171.036 69.8944 170.945 70.4569L170.246 74.616H169.24L169.922 70.5251C170.007 70.0052 169.938 69.6032 169.713 69.3191C169.492 69.0322 169.147 68.8887 168.678 68.8887C168.348 68.8887 168.042 68.9583 167.757 69.0975C167.476 69.2367 167.238 69.4398 167.042 69.7069C166.848 69.9739 166.718 70.2978 166.65 70.6785ZM175.597 74.616L177.046 65.8887H179.995C180.677 65.8887 181.215 66.0109 181.61 66.2552C182.008 66.4995 182.276 66.8305 182.415 67.2481C182.558 67.6657 182.586 68.133 182.501 68.6501C182.415 69.1614 182.232 69.6273 181.951 70.0478C181.673 70.4682 181.295 70.8035 180.817 71.0535C180.343 71.3035 179.768 71.4285 179.092 71.4285H176.978L177.131 70.491H179.211C179.677 70.491 180.066 70.41 180.379 70.2481C180.691 70.0861 180.935 69.866 181.112 69.5876C181.288 69.3091 181.404 68.9966 181.461 68.6501C181.518 68.2978 181.504 67.9853 181.418 67.7126C181.336 67.437 181.164 67.2211 180.903 67.0648C180.644 66.9057 180.279 66.8262 179.808 66.8262H177.95L176.654 74.616H175.597ZM183.066 74.616L184.157 68.0705H185.163L184.072 74.616H183.066ZM184.967 66.9626C184.771 66.9626 184.602 66.8958 184.46 66.7623C184.321 66.6288 184.251 66.4682 184.251 66.2807C184.251 66.0932 184.321 65.9327 184.46 65.7992C184.602 65.6657 184.771 65.5989 184.967 65.5989C185.163 65.5989 185.331 65.6657 185.47 65.7992C185.612 65.9327 185.683 66.0932 185.683 66.2807C185.683 66.4682 185.612 66.6288 185.47 66.7623C185.331 66.8958 185.163 66.9626 184.967 66.9626ZM188.556 74.7523C187.94 74.7523 187.434 74.6074 187.039 74.3177C186.647 74.0279 186.374 73.6288 186.221 73.1202C186.067 72.6117 186.045 72.0307 186.153 71.3773C186.261 70.7126 186.479 70.1259 186.809 69.6174C187.138 69.106 187.549 68.7069 188.04 68.4199C188.532 68.1302 189.073 67.9853 189.664 67.9853C190.124 67.9853 190.525 68.0705 190.866 68.241C191.207 68.4114 191.469 68.6501 191.654 68.9569C191.839 69.2637 191.925 69.6216 191.914 70.0307H190.908C190.88 69.7324 190.752 69.4682 190.525 69.2381C190.3 69.0052 189.968 68.8887 189.528 68.8887C189.136 68.8887 188.775 68.991 188.445 69.1955C188.116 69.3972 187.839 69.6827 187.614 70.052C187.39 70.4185 187.238 70.8489 187.158 71.3432C187.073 71.8489 187.08 72.2893 187.18 72.6643C187.279 73.0393 187.46 73.3305 187.721 73.5378C187.982 73.7452 188.312 73.8489 188.71 73.8489C188.971 73.8489 189.215 73.8035 189.442 73.7126C189.67 73.6216 189.871 73.491 190.048 73.3205C190.224 73.1501 190.363 72.9455 190.465 72.7069H191.471C191.346 73.0932 191.146 73.4413 190.87 73.7509C190.594 74.0577 190.261 74.302 189.869 74.4839C189.477 74.6628 189.039 74.7523 188.556 74.7523ZM193.947 72.2296L194.134 70.9853H194.339L197.697 68.0705H198.941L195.379 71.1557H195.293L193.947 72.2296ZM192.617 74.616L194.066 65.8887H195.072L193.623 74.616H192.617ZM196.776 74.616L194.765 71.3773L195.583 70.6785L198.055 74.616H196.776ZM204.633 69.5364L203.679 69.7921C203.645 69.6387 203.585 69.491 203.5 69.3489C203.417 69.204 203.289 69.0861 203.116 68.9952C202.946 68.9015 202.713 68.8546 202.417 68.8546C202.017 68.8546 201.669 68.9469 201.373 69.1316C201.078 69.3134 200.909 69.5449 200.866 69.8262C200.824 70.0734 200.88 70.2708 201.037 70.4185C201.193 70.5663 201.454 70.687 201.821 70.7807L202.758 71.0194C203.321 71.1643 203.721 71.3816 203.96 71.6714C204.201 71.9583 204.284 72.3319 204.207 72.7921C204.145 73.1671 203.981 73.5023 203.717 73.7978C203.453 74.0932 203.115 74.3262 202.703 74.4966C202.291 74.6671 201.832 74.7523 201.326 74.7523C200.653 74.7523 200.122 74.6074 199.733 74.3177C199.343 74.0251 199.136 73.6018 199.11 73.0478L200.116 72.8091C200.142 73.1586 200.267 73.4228 200.491 73.6018C200.718 73.7779 201.037 73.866 201.446 73.866C201.914 73.866 202.305 73.7665 202.618 73.5677C202.93 73.366 203.108 73.1245 203.15 72.8432C203.193 72.6131 203.147 72.4214 203.014 72.268C202.883 72.1145 202.656 71.9995 202.332 71.9228L201.292 71.6671C200.713 71.5222 200.306 71.3006 200.074 71.0023C199.843 70.704 199.767 70.329 199.843 69.8773C199.906 69.508 200.065 69.1813 200.321 68.8972C200.579 68.6131 200.903 68.3901 201.292 68.2282C201.684 68.0663 202.11 67.9853 202.571 67.9853C203.218 67.9853 203.703 68.1273 204.024 68.4114C204.345 68.6927 204.548 69.0677 204.633 69.5364ZM208.192 65.8887L207.067 72.1614H206.079L207.033 65.8887H208.192ZM206.283 74.6841C206.067 74.6841 205.887 74.6103 205.742 74.4626C205.597 74.312 205.522 74.1302 205.516 73.9171C205.513 73.704 205.589 73.5265 205.742 73.3844C205.896 73.2395 206.076 73.1671 206.283 73.1671C206.494 73.1671 206.675 73.241 206.829 73.3887C206.982 73.5364 207.056 73.7126 207.05 73.9171C207.048 74.0591 207.011 74.1884 206.94 74.3049C206.871 74.4214 206.779 74.5137 206.663 74.5819C206.549 74.6501 206.423 74.6841 206.283 74.6841ZM211.072 65.8887L210.578 68.8887H209.64L210.135 65.8887H211.072ZM213.254 65.8887L212.76 68.8887H211.822L212.316 65.8887H213.254Z" fill="#636363"/>
<defs>
<clipPath id="clip0_181_23">
<rect width="60" height="60" fill="white" transform="translate(15 16.616)"/>
</clipPath>
</defs>
</svg>
