<svg width="357" height="94" viewBox="0 0 357 94" fill="none" xmlns="http://www.w3.org/2000/svg">
<rect width="357" height="93.2321" rx="10" fill="#FFE4C0"/>
<path d="M22.8956 15C23.5291 15.0801 24.0876 15.2697 24.6763 15.5066C24.7717 15.5442 24.867 15.5818 24.9653 15.6206C25.1684 15.7007 25.3715 15.7812 25.5744 15.8619C26.1018 16.0717 26.6303 16.279 27.1589 16.486C27.262 16.5264 27.3652 16.5668 27.4715 16.6085C28.318 16.9389 29.1705 17.2475 30.0312 17.539C30.6731 17.758 31.3059 17.9929 31.9364 18.2425C33.3882 18.8117 34.8493 19.3563 36.31 19.9025C37.1157 20.2038 37.9212 20.5056 38.7267 20.8074C38.9609 20.8952 38.9609 20.8952 39.1998 20.9847C43.4145 22.5641 43.4145 22.5641 45.1893 23.2619C45.2966 23.3038 45.4039 23.3458 45.5145 23.3891C45.5941 23.4203 45.6737 23.4515 45.7557 23.4837C46.347 23.7142 46.9422 23.9304 47.542 24.1379C49.0712 24.6728 50.5844 25.2507 52.0995 25.8241C52.4064 25.94 52.7133 26.0559 53.0202 26.1718C54.814 26.8498 56.604 27.5365 58.3904 28.2339C59.3822 28.6195 60.3796 28.9825 61.3864 29.3269C62.3335 29.6519 63.2603 30.0201 64.1856 30.4029C64.1008 30.9281 63.9338 31.3788 63.7245 31.8671C63.6656 32.0054 63.6067 32.1437 63.546 32.2862C63.5008 32.3909 63.4556 32.4955 63.409 32.6033C63.3239 32.5846 63.2388 32.5659 63.1511 32.5466C60.1985 31.9705 57.1954 32.3625 54.6746 34.0539C52.7776 35.4038 51.5762 37.3505 51.0721 39.6171C50.9962 40.0953 50.9516 40.5729 50.9129 41.0555C50.9016 41.1941 50.8904 41.3326 50.8789 41.4753C50.8664 41.6327 50.8664 41.6327 50.8537 41.7932C50.9308 41.793 51.0079 41.7927 51.0873 41.7925C52.9661 41.7868 54.8449 41.7825 56.7236 41.7798C57.6322 41.7785 58.5408 41.7766 59.4494 41.7737C60.3264 41.7708 61.2034 41.7693 62.0804 41.7686C62.4148 41.7682 62.7492 41.7672 63.0836 41.7658C63.5524 41.7639 64.0212 41.7637 64.49 41.7638C64.6278 41.7629 64.7657 41.7619 64.9078 41.761C66.6965 41.7659 68.298 42.3049 69.5976 43.5628C71.1824 45.2495 71.4783 46.8938 71.4593 49.1685C71.4587 49.4197 71.4587 49.4197 71.4582 49.6761C71.4572 50.1163 71.4546 50.5565 71.4518 50.9968C71.4491 51.448 71.4479 51.8993 71.4466 52.3506C71.4439 53.2323 71.4395 54.114 71.434 54.9956C71.3566 54.9958 71.2792 54.996 71.1994 54.9962C69.3108 55.001 67.4222 55.0087 65.5335 55.0194C64.6202 55.0246 63.7068 55.0288 62.7935 55.0307C61.9114 55.0326 61.0294 55.0372 60.1473 55.0433C59.8115 55.0452 59.4756 55.0463 59.1397 55.0464C58.6678 55.0467 58.1961 55.0502 57.7243 55.0544C57.5866 55.0538 57.4489 55.0531 57.307 55.0524C55.7872 55.0734 54.565 55.5678 53.4834 56.6343C52.3526 57.8722 52.1882 59.173 52.2549 60.7944C52.3447 61.9254 52.9172 62.8729 53.7013 63.6678C54.8896 64.6772 56.1886 64.8908 57.7096 64.8887C57.8587 64.89 58.0079 64.8914 58.1616 64.8927C58.6504 64.8966 59.1392 64.8978 59.628 64.899C59.9686 64.9012 60.3092 64.9035 60.6498 64.906C61.452 64.9117 62.2541 64.9154 63.0563 64.9184C63.9704 64.9219 64.8844 64.9276 65.7984 64.9334C67.6769 64.9454 69.5555 64.9547 71.434 64.9622C71.4461 65.9795 71.4552 66.9967 71.4608 68.014C71.4635 68.4866 71.4671 68.9591 71.473 69.4316C71.4787 69.889 71.4818 70.3464 71.4831 70.8038C71.4845 71.0602 71.4885 71.3166 71.4926 71.573C71.4929 72.5671 71.3602 73.3929 71.0277 74.3314C70.896 74.672 70.896 74.672 70.9162 75.0582C70.771 75.2123 70.6239 75.365 70.4688 75.5092C70.2428 75.7311 70.049 75.97 69.8484 76.215C68.9969 77.1895 67.9896 77.6467 66.7743 78.0352C66.6462 78.0779 66.518 78.1206 66.386 78.1646C66.1574 78.1769 65.9283 78.1816 65.6994 78.182C65.5561 78.1826 65.4128 78.1832 65.2652 78.1838C65.1072 78.1837 64.9491 78.1837 64.7863 78.1837C64.5351 78.1844 64.5351 78.1844 64.279 78.1851C63.8133 78.1864 63.3476 78.1869 62.882 78.1873C62.3801 78.1878 61.8782 78.189 61.3763 78.1901C60.1636 78.1927 58.9509 78.194 57.7381 78.1951C57.167 78.1957 56.5958 78.1964 56.0246 78.1971C54.1257 78.1993 52.2268 78.2012 50.3279 78.2021C49.835 78.2023 49.3421 78.2026 48.8492 78.2029C48.7267 78.2029 48.6042 78.203 48.478 78.203C46.4945 78.2041 44.5109 78.2074 42.5274 78.2116C40.4906 78.2159 38.4539 78.2182 36.4171 78.2186C35.2737 78.2189 34.1303 78.22 32.9869 78.2233C32.0128 78.2262 31.0388 78.2272 30.0648 78.2259C29.5681 78.2253 29.0714 78.2256 28.5747 78.2281C28.0353 78.2308 27.496 78.2295 26.9566 78.2278C26.723 78.2299 26.723 78.2299 26.4847 78.2321C24.76 78.219 23.2477 77.5715 21.9653 76.4173C20.7724 75.1639 20.2751 73.4978 20.2276 71.8132C20.2203 71.5871 20.2203 71.5871 20.2129 71.3565C20.1468 69.0223 20.1536 66.6864 20.1515 64.3514C20.1511 63.9393 20.1506 63.5273 20.15 63.1152C20.1483 61.8206 20.147 60.526 20.1465 59.2315C20.1459 57.7458 20.1436 56.2602 20.1399 54.7745C20.1371 53.6183 20.1358 52.462 20.1356 51.3057C20.1355 50.6182 20.1347 49.9306 20.1324 49.2431C20.1303 48.5983 20.13 47.9535 20.1311 47.3087C20.1312 47.0733 20.1307 46.8378 20.1294 46.6024C20.118 44.3771 20.4151 42.4405 21.9895 40.7395C23.223 39.5928 23.223 39.5928 23.9311 39.5928C23.9311 39.5074 23.9311 39.4219 23.9311 39.3339C23.801 39.3127 23.801 39.3127 23.6682 39.291C23.1999 39.1856 22.7599 39.0244 22.3116 38.8556C22.2182 38.8209 22.1248 38.7861 22.0285 38.7503C21.7268 38.638 21.4254 38.5248 21.1239 38.4117C20.917 38.3344 20.71 38.2571 20.503 38.1799C19.2909 37.7269 18.082 37.2665 16.8778 36.7927C16.2557 36.5503 15.6289 36.3222 15 36.098C15.254 35.2109 15.5468 34.347 15.8757 33.485C15.9449 33.3022 15.9449 33.3022 16.0155 33.1156C16.162 32.7289 16.3091 32.3425 16.4562 31.9561C16.5528 31.7011 16.6493 31.4461 16.7459 31.1911C17.1428 30.1438 17.5413 29.0972 17.9506 28.0546C18.2694 27.2422 18.5773 26.4281 18.8639 25.6036C19.373 24.1392 19.9319 22.6936 20.4848 21.2453C20.591 20.9665 20.6972 20.6878 20.8034 20.409C21.0113 19.8631 21.2194 19.3173 21.4277 18.7716C21.6305 18.24 21.8328 17.7083 22.0347 17.1764C22.0825 17.0504 22.1303 16.9245 22.1796 16.7947C22.2699 16.5571 22.36 16.3195 22.45 16.0818C22.4899 15.9768 22.5297 15.8719 22.5708 15.7638C22.6056 15.6721 22.6403 15.5804 22.6762 15.4859C22.7661 15.2589 22.7661 15.2589 22.8956 15Z" fill="#F19924"/>
<path d="M22.8956 15C23.5291 15.0801 24.0876 15.2697 24.6763 15.5066C24.7717 15.5442 24.867 15.5818 24.9653 15.6206C25.1684 15.7007 25.3715 15.7812 25.5744 15.8619C26.1018 16.0717 26.6303 16.279 27.1589 16.486C27.262 16.5264 27.3652 16.5668 27.4715 16.6085C28.318 16.9389 29.1705 17.2475 30.0312 17.539C30.6731 17.758 31.3059 17.9929 31.9364 18.2425C33.3882 18.8117 34.8493 19.3563 36.31 19.9025C37.1157 20.2038 37.9212 20.5056 38.7267 20.8074C38.9609 20.8952 38.9609 20.8952 39.1998 20.9847C43.4144 22.5641 43.4144 22.5641 45.1893 23.2619C45.2966 23.3038 45.4039 23.3458 45.5145 23.3891C45.5941 23.4203 45.6737 23.4515 45.7557 23.4837C46.347 23.7142 46.9422 23.9304 47.542 24.1379C49.0712 24.6728 50.5844 25.2507 52.0995 25.8241C52.4064 25.94 52.7133 26.0559 53.0202 26.1718C54.814 26.8498 56.604 27.5365 58.3904 28.2339C59.3822 28.6195 60.3796 28.9825 61.3864 29.3269C62.3335 29.6519 63.2603 30.0201 64.1856 30.4029C64.1008 30.9281 63.9338 31.3788 63.7245 31.8671C63.6656 32.0054 63.6067 32.1437 63.546 32.2862C63.5008 32.3909 63.4556 32.4955 63.409 32.6033C63.3239 32.5846 63.2388 32.5659 63.1511 32.5466C60.1985 31.9705 57.1954 32.3625 54.6746 34.0539C52.7776 35.4038 51.5762 37.3505 51.0721 39.6171C50.9962 40.0953 50.9516 40.5729 50.9129 41.0555C50.9016 41.1941 50.8904 41.3326 50.8789 41.4753C50.8664 41.6327 50.8664 41.6327 50.8537 41.7932C48.2497 41.8421 45.6458 41.8784 43.0414 41.9005C41.8315 41.9111 40.6218 41.9255 39.412 41.9494C29.3362 42.1451 29.3362 42.1451 25.075 39.9693C24.3966 39.6243 23.6879 39.3733 22.9704 39.1226C22.7612 39.0449 22.5522 38.9668 22.3435 38.888C22.0469 38.7769 21.7503 38.6658 21.4536 38.555C20.2566 38.1081 19.0651 37.6506 17.8801 37.1728C17.3649 36.9662 16.8471 36.7683 16.3267 36.5753C16.24 36.5429 16.1532 36.5104 16.0638 36.477C15.7107 36.3453 15.3575 36.2172 15 36.098C15.254 35.2109 15.5468 34.347 15.8757 33.485C15.9449 33.3022 15.9449 33.3022 16.0155 33.1156C16.162 32.7289 16.3091 32.3425 16.4562 31.9561C16.5528 31.7011 16.6493 31.4461 16.7459 31.1911C17.1428 30.1438 17.5413 29.0972 17.9506 28.0546C18.2694 27.2422 18.5773 26.4281 18.8639 25.6036C19.373 24.1392 19.9319 22.6936 20.4848 21.2453C20.591 20.9665 20.6972 20.6878 20.8034 20.409C21.0113 19.8631 21.2194 19.3173 21.4277 18.7716C21.6305 18.24 21.8328 17.7083 22.0347 17.1764C22.0825 17.0504 22.1303 16.9245 22.1796 16.7947C22.2699 16.5571 22.36 16.3195 22.45 16.0818C22.4899 15.9768 22.5297 15.8719 22.5708 15.7638C22.6056 15.6721 22.6403 15.5804 22.6762 15.4859C22.7661 15.2589 22.7661 15.2589 22.8956 15Z" fill="#00FEC3"/>
<path d="M66.1366 33.9198C67.8617 35.283 68.971 36.9753 69.6223 39.075C69.7558 39.0777 69.8892 39.0803 70.0268 39.0831C71.5197 39.274 72.9277 40.2832 73.8598 41.4205C74.9711 42.9675 75.0045 44.4881 74.9961 46.3193C74.9968 46.5797 74.9978 46.8401 74.9989 47.1005C75.0012 47.8043 75.0003 48.5082 74.9987 49.2121C74.9974 49.9507 74.9986 50.6893 74.9994 51.428C75.0004 52.6682 74.9991 53.9085 74.9966 55.1487C74.9938 56.5799 74.9947 58.011 74.9976 59.4422C74.9999 60.6737 75.0003 61.9052 74.9989 63.1368C74.9981 63.8711 74.998 64.6054 74.9997 65.3397C75.0012 66.0304 75.0002 66.721 74.9972 67.4117C74.9965 67.6643 74.9967 67.9168 74.9978 68.1693C75.0068 70.3496 74.6823 72.009 73.1575 73.6586C72.5391 74.2543 71.6734 74.9287 70.7872 74.9287C70.827 74.7998 70.827 74.7998 70.8676 74.6683C70.9199 74.4969 70.9199 74.4969 70.9733 74.322C71.0078 74.2093 71.0423 74.0967 71.0779 73.9807C71.2497 73.3709 71.3225 72.8112 71.3315 72.177C71.3341 72.0164 71.3367 71.8558 71.3393 71.6903C71.3415 71.5163 71.3437 71.3424 71.3459 71.1685C71.3486 70.9895 71.3513 70.8105 71.354 70.6315C71.3612 70.1619 71.3676 69.6922 71.3738 69.2226C71.3804 68.7428 71.3876 68.263 71.3947 67.7832C71.4086 66.8428 71.4217 65.9025 71.4344 64.9621C71.3569 64.9625 71.2793 64.9628 71.1995 64.9632C69.3087 64.9718 67.418 64.9782 65.5272 64.9823C64.6128 64.9842 63.6985 64.987 62.7841 64.9914C61.9012 64.9957 61.0183 64.998 60.1354 64.999C59.7991 64.9997 59.4627 65.0011 59.1264 65.0032C58.6542 65.006 58.1821 65.0064 57.71 65.0062C57.5718 65.0076 57.4336 65.009 57.2913 65.0104C55.7433 65.0041 54.598 64.582 53.4428 63.5383C52.2291 62.1632 52.0128 60.7892 52.12 59.0109C52.1793 58.4663 52.3717 58.0388 52.6662 57.5843C52.7436 57.4508 52.821 57.3173 52.9008 57.1798C53.7329 56.0861 54.7803 55.2765 56.161 54.9956C56.3748 54.9843 56.589 54.9798 56.8031 54.98C56.9323 54.9798 57.0615 54.9797 57.1947 54.9795C57.4061 54.9802 57.4061 54.9802 57.6218 54.9809C57.7708 54.9809 57.9199 54.9808 58.0734 54.9808C58.5665 54.9809 59.0595 54.9819 59.5526 54.9829C59.8943 54.9832 60.236 54.9834 60.5777 54.9835C61.3854 54.9839 62.1931 54.985 63.0008 54.9863C63.9204 54.9877 64.8401 54.9884 65.7597 54.9891C67.6513 54.9904 69.5428 54.9927 71.4344 54.9956C71.4333 54.894 71.4322 54.7925 71.431 54.6879C71.4277 54.3857 71.4244 54.0835 71.4212 53.7813C71.4174 53.4386 71.4137 53.096 71.4099 52.7533C71.3937 51.2913 71.3937 51.2913 71.3885 50.6353C71.3845 50.1547 71.3782 49.6742 71.3712 49.1937C71.3704 49.0374 71.3696 48.8812 71.3687 48.7201C71.3365 46.789 70.942 45.0791 69.6061 43.6295C68.9618 43.0202 68.2321 42.656 67.4219 42.3109C67.3158 42.264 67.2096 42.2171 67.1003 42.1688C66.262 41.8681 65.3987 41.9007 64.5197 41.896C64.3719 41.8947 64.2241 41.8934 64.0718 41.8921C63.5844 41.888 63.0969 41.8848 62.6095 41.8816C62.2711 41.879 61.9326 41.8762 61.5942 41.8735C60.7952 41.867 59.9963 41.8612 59.1973 41.8556C58.2873 41.8492 57.3774 41.8421 56.4674 41.8349C54.5963 41.8202 52.7252 41.8064 50.8541 41.7931C50.8518 41.5457 50.8501 41.2983 50.8487 41.0509C50.8477 40.9131 50.8467 40.7753 50.8457 40.6334C50.8926 38.4333 52.0868 36.2336 53.6514 34.7329C57.0626 31.6856 62.3767 31.2601 66.1366 33.9198Z" fill="#6A6A6A"/>
<path d="M66.1366 33.9198C67.9525 35.3547 69.0578 37.0952 69.6223 39.3339C69.6566 39.454 69.6566 39.454 69.6915 39.5766C69.758 39.8802 69.7685 40.1542 69.7689 40.4649C69.7691 40.5818 69.7692 40.6987 69.7694 40.8191C69.7689 40.9403 69.7684 41.0615 69.7679 41.1864C69.7684 41.3061 69.7689 41.4258 69.7694 41.5492C69.7685 42.2054 69.7347 42.8291 69.6223 43.4758C69.2274 43.2865 68.8607 43.0689 68.4897 42.8367C67.1928 42.0548 66.0111 41.904 64.5197 41.896C64.3719 41.8947 64.2241 41.8934 64.0718 41.8921C63.5844 41.888 63.0969 41.8848 62.6095 41.8816C62.2711 41.879 61.9326 41.8762 61.5942 41.8735C60.7952 41.867 59.9963 41.8612 59.1973 41.8556C58.2873 41.8492 57.3774 41.8421 56.4674 41.8349C54.5963 41.8202 52.7252 41.8064 50.8541 41.7931C50.8518 41.5457 50.8501 41.2983 50.8487 41.0509C50.8477 40.9131 50.8467 40.7753 50.8457 40.6334C50.8926 38.4333 52.0868 36.2336 53.6514 34.7329C57.0626 31.6856 62.3767 31.2601 66.1366 33.9198Z" fill="#FBB21C"/>
<path d="M22.8956 15C23.5291 15.0801 24.0876 15.2697 24.6763 15.5066C24.7717 15.5442 24.867 15.5818 24.9653 15.6206C25.1684 15.7007 25.3715 15.7812 25.5744 15.8619C26.1018 16.0717 26.6303 16.279 27.1589 16.486C27.262 16.5264 27.3652 16.5668 27.4715 16.6085C28.318 16.9389 29.1705 17.2475 30.0312 17.539C30.6731 17.758 31.3059 17.9929 31.9364 18.2425C33.3882 18.8117 34.8493 19.3563 36.31 19.9025C37.1157 20.2038 37.9212 20.5056 38.7267 20.8074C38.9609 20.8952 38.9609 20.8952 39.1998 20.9847C43.4144 22.5641 43.4144 22.5641 45.1893 23.2619C45.2966 23.3038 45.4039 23.3458 45.5145 23.3891C45.5941 23.4203 45.6737 23.4515 45.7557 23.4837C46.347 23.7142 46.9422 23.9304 47.542 24.1379C49.0712 24.6728 50.5844 25.2507 52.0995 25.8241C52.4064 25.94 52.7133 26.0559 53.0202 26.1718C54.814 26.8498 56.604 27.5365 58.3904 28.2339C59.3822 28.6195 60.3796 28.9825 61.3864 29.3269C62.3335 29.6519 63.2603 30.0201 64.1856 30.4029C64.1008 30.9281 63.9338 31.3788 63.7245 31.8671C63.6656 32.0054 63.6067 32.1437 63.546 32.2862C63.5008 32.3909 63.4556 32.4955 63.409 32.6033C63.1526 32.5669 62.8965 32.5288 62.6404 32.49C62.4978 32.469 62.3551 32.448 62.2081 32.4263C62.0919 32.3993 61.9756 32.3722 61.8557 32.3444C61.7263 32.0855 61.7263 32.0855 61.8476 31.681C61.893 31.5582 61.9384 31.4354 61.9852 31.3089C61.8867 31.2991 61.7883 31.2892 61.6869 31.2791C61.0144 31.139 60.4039 30.8787 59.7686 30.6213C58.8741 30.2645 57.9834 29.9209 57.0656 29.6283C56.5551 29.455 56.0553 29.2577 55.5538 29.06C54.8249 28.7726 54.0944 28.4976 53.3534 28.2429C52.2755 27.8702 51.2129 27.4584 50.1499 27.0456C50.018 26.9944 50.018 26.9944 49.8834 26.9422C49.0672 26.625 48.2514 26.3067 47.4363 25.9864C46.4407 25.5956 45.4421 25.2222 44.4317 24.8715C43.7698 24.6404 43.1167 24.3909 42.4646 24.1333C41.643 23.809 40.8162 23.507 39.9811 23.2192C39.0797 22.9081 38.1886 22.5787 37.3019 22.228C36.2377 21.8089 35.1634 21.417 34.0887 21.0254C33.3677 20.7609 32.6619 20.4825 31.9633 20.164C31.5254 19.9731 31.0741 19.8266 30.6213 19.6759C29.7121 19.3672 28.8154 19.0313 27.9218 18.6803C27.8176 18.6394 27.7133 18.5985 27.6059 18.5563C27.0768 18.3483 26.5482 18.139 26.0201 17.9283C25.8226 17.8503 25.6251 17.7723 25.4277 17.6944C25.3366 17.6576 25.2456 17.6209 25.1518 17.583C24.7096 17.4093 24.414 17.3298 23.9311 17.3298C23.8842 17.4569 23.8373 17.584 23.7889 17.7149C23.6112 18.1963 23.433 18.6775 23.2548 19.1587C23.1784 19.3651 23.1021 19.5716 23.0259 19.7781C22.6397 20.8242 22.2499 21.8678 21.8318 22.9016C21.5072 23.7057 21.2152 24.5152 20.9409 25.3374C20.6825 26.0943 20.3905 26.8354 20.0915 27.577C19.5471 28.9275 19.0262 30.2864 18.512 31.6487C18.3623 32.0449 18.2119 32.4409 18.0615 32.8369C17.9659 33.0896 17.8703 33.3424 17.7748 33.5953C17.7299 33.7132 17.685 33.8312 17.6388 33.9527C17.5981 34.0609 17.5573 34.1692 17.5154 34.2807C17.4615 34.4233 17.4615 34.4233 17.4064 34.5688C17.3165 34.8035 17.3165 34.8035 17.3298 35.0625C17.4745 35.1166 17.6191 35.1707 17.7681 35.2264C18.3168 35.4315 18.8654 35.6369 19.4139 35.8423C19.6491 35.9303 19.8843 36.0183 20.1195 36.1062C21.3202 36.5551 22.5197 37.0063 23.7137 37.4728C25.972 38.3548 28.251 39.1814 30.5275 40.015C33.5627 41.1267 33.5627 41.1267 34.9331 41.6638C34.9331 41.7065 34.9331 41.7492 34.9331 41.7932C31.3193 42.1313 28.5995 41.4102 25.284 40.014C24.2341 39.575 23.1652 39.1868 22.0974 38.7939C20.6839 38.2726 19.2774 37.7362 17.8801 37.1728C17.3649 36.9662 16.8471 36.7683 16.3267 36.5753C16.24 36.5429 16.1532 36.5104 16.0638 36.477C15.7107 36.3453 15.3575 36.2172 15 36.098C15.254 35.2109 15.5468 34.347 15.8757 33.485C15.9449 33.3022 15.9449 33.3022 16.0155 33.1156C16.162 32.7289 16.3091 32.3425 16.4562 31.9561C16.5528 31.7011 16.6493 31.4461 16.7459 31.1911C17.1428 30.1438 17.5413 29.0972 17.9506 28.0546C18.2694 27.2422 18.5773 26.4281 18.8639 25.6036C19.373 24.1392 19.9319 22.6936 20.4848 21.2453C20.591 20.9665 20.6972 20.6878 20.8034 20.409C21.0113 19.8631 21.2194 19.3173 21.4277 18.7716C21.6305 18.24 21.8328 17.7083 22.0347 17.1764C22.0825 17.0504 22.1303 16.9245 22.1796 16.7947C22.2699 16.5571 22.36 16.3195 22.45 16.0818C22.4899 15.9768 22.5297 15.8719 22.5708 15.7638C22.6056 15.6721 22.6403 15.5804 22.6762 15.4859C22.7661 15.2589 22.7661 15.2589 22.8956 15Z" fill="#00FDC4"/>
<path d="M23.931 17.0708C25.238 17.5157 26.5355 17.973 27.8141 18.4946C28.6694 18.8434 29.5288 19.1663 30.4028 19.4654C31.374 19.7982 32.3271 20.163 33.2781 20.5496C34.2636 20.9489 35.258 21.3222 36.2545 21.6929C37.0359 21.984 37.8139 22.282 38.5896 22.588C39.5002 22.9463 40.42 23.2721 41.345 23.5912C42.1556 23.8724 42.9557 24.1752 43.7536 24.4905C44.4232 24.7544 45.0962 25.0069 45.7723 25.2536C47.0119 25.7082 48.2466 26.1755 49.4802 26.6464C49.8265 26.7786 50.1728 26.9105 50.5192 27.0424C51.7061 27.4948 52.8921 27.9495 54.074 28.415C54.7184 28.6674 55.3685 28.8997 56.023 29.1245C57.3167 29.571 58.5993 30.0464 59.8818 30.524C59.9858 30.5628 60.0897 30.6015 60.1969 30.6414C60.7931 30.8635 61.3891 31.086 61.9851 31.3087C61.8719 32.0692 61.8719 32.0692 61.7262 32.2148C61.405 32.2361 61.0852 32.2512 60.7636 32.2633C59.5552 32.3194 58.3838 32.5116 57.196 32.7325C57.196 32.22 57.196 31.7074 57.196 31.1793C56.9824 31.1366 56.7689 31.0939 56.5488 31.0499C56.2557 30.9508 55.9644 30.8464 55.6744 30.7386C55.5464 30.6912 55.5464 30.6912 55.4158 30.6428C55.1343 30.5385 54.8531 30.4334 54.5719 30.3284C54.3743 30.2549 54.1768 30.1815 53.9792 30.1081C53.5645 29.954 53.15 29.7996 52.7356 29.6449C52.21 29.4488 51.6842 29.2533 51.1583 29.058C50.7495 28.9061 50.3409 28.754 49.9322 28.6019C49.7388 28.5298 49.5453 28.4578 49.3518 28.3859C48.2151 27.9632 47.0849 27.5281 45.9609 27.0726C45.3187 26.8172 44.6664 26.5957 44.011 26.377C43.2854 26.1293 42.5761 25.8493 41.866 25.561C40.6531 25.0704 39.4296 24.6108 38.2028 24.1564C38.1061 24.1205 38.0093 24.0847 37.9096 24.0478C37.3081 23.825 36.7064 23.6027 36.1047 23.3805C35.2954 23.0817 34.4862 22.7827 33.6772 22.4831C33.3995 22.3804 33.1217 22.278 32.8438 22.1756C31.8147 21.7953 30.7932 21.3998 29.7761 20.9883C29.3008 20.7978 28.8231 20.6217 28.3399 20.4523C28.1893 20.3993 28.0386 20.3462 27.8834 20.2915C27.7751 20.2538 27.6668 20.2161 27.5552 20.1773C27.522 20.2532 27.4888 20.3291 27.4546 20.4073C27.0806 21.0872 26.415 21.5831 25.6946 21.8518C25.0642 22.0323 24.4512 22.0194 23.8016 21.9894C23.7838 22.0555 23.766 22.1216 23.7476 22.1897C23.4447 23.2564 23.0474 24.2858 22.6524 25.3208C22.5327 25.6347 22.4136 25.9488 22.2946 26.263C21.818 27.519 21.3268 28.7684 20.8246 30.0144C20.5342 30.7042 20.5342 30.7042 20.4362 31.4382C20.6145 31.615 20.6145 31.615 20.8488 31.7779C21.3988 32.2374 21.7743 32.6875 21.9895 33.3797C22.0403 34.0327 22.0283 34.6669 21.9895 35.3212C22.1416 35.3479 22.2938 35.3746 22.4506 35.4021C23.0916 35.5445 23.6782 35.7798 24.2839 36.0305C24.9646 36.31 25.6536 36.5554 26.3498 36.7936C27.5708 37.2136 28.766 37.6867 29.962 38.1723C31.3643 38.7396 32.7752 39.2692 34.2057 39.7607C35.1081 40.0738 35.9924 40.425 36.8769 40.7851C37.6861 41.1129 38.4993 41.4058 39.3339 41.6636C39.3339 41.7063 39.3339 41.749 39.3339 41.793C36.2158 42.0133 33.8013 41.6047 30.9266 40.4058C30.4811 40.2219 30.0323 40.0466 29.5837 39.8705C28.9004 39.6011 28.2189 39.3276 27.539 39.0495C26.471 38.6128 25.3973 38.1919 24.3193 37.7805C24.2354 37.7485 24.1514 37.7165 24.0649 37.6835C23.1475 37.3344 22.2268 36.9949 21.303 36.6632C20.8677 36.5069 20.4327 36.3497 19.9978 36.1924C19.7744 36.112 19.5509 36.0321 19.3272 35.9527C18.9995 35.8361 18.6725 35.7176 18.3456 35.5988C18.2451 35.5636 18.1447 35.5284 18.0412 35.4922C17.7996 35.4033 17.5639 35.2988 17.3298 35.1918C17.1766 34.7323 17.2299 34.636 17.3991 34.1961C17.4458 34.0729 17.4926 33.9496 17.5407 33.8226C17.5928 33.6891 17.6448 33.5556 17.6984 33.4181C17.7513 33.2796 17.8042 33.1411 17.8588 32.9985C18.0292 32.5534 18.2013 32.1091 18.3734 31.6647C18.486 31.3711 18.5985 31.0775 18.7109 30.7839C19.1662 29.5968 19.6245 28.411 20.1005 27.232C20.3816 26.5342 20.6402 25.8326 20.8812 25.1201C21.189 24.2266 21.514 23.343 21.8613 22.4642C22.3519 21.218 22.8161 19.9617 23.2839 18.7068C23.3171 18.6179 23.3503 18.5291 23.3845 18.4375C23.476 18.1925 23.5674 17.9474 23.6587 17.7023C23.8016 17.3297 23.8016 17.3297 23.931 17.0708Z" fill="#00D8A5"/>
<path d="M66.1364 33.92C67.9523 35.355 69.0576 37.0954 69.6221 39.3341C69.6563 39.4542 69.6563 39.4542 69.6913 39.5768C69.7578 39.8804 69.7683 40.1544 69.7687 40.4651C69.7689 40.582 69.769 40.6989 69.7692 40.8193C69.7687 40.9405 69.7682 41.0618 69.7677 41.1866C69.7682 41.3064 69.7687 41.4261 69.7692 41.5494C69.7683 42.2056 69.7345 42.8293 69.6221 43.476C69.2174 43.2808 68.8337 43.0609 68.4491 42.8289C68.3381 42.7621 68.2271 42.6954 68.1128 42.6266C67.8794 42.4832 67.6496 42.3337 67.4217 42.1817C67.5071 42.1817 67.5925 42.1817 67.6805 42.1817C67.4547 39.7423 67.0315 37.3801 65.0448 35.7119C63.1156 34.2266 61.0951 33.6445 58.6751 33.9382C58.3905 33.9955 58.1203 34.0692 57.8434 34.1567C57.7323 34.1899 57.6212 34.2231 57.5067 34.2573C55.3439 34.9671 54.0506 36.3047 52.9921 38.2652C52.4567 39.399 52.3695 40.5596 52.2777 41.7934C51.8078 41.7934 51.338 41.7934 50.8539 41.7934C50.7279 39.2744 51.5899 37.0321 53.2497 35.1374C56.5289 31.668 62.2674 31.1832 66.1364 33.92Z" fill="#F8B31D"/>
<path d="M59.1094 56.6C60.041 57.2754 60.6911 57.9934 60.9493 59.1377C61.0941 60.3642 60.9257 61.3702 60.2409 62.4019C59.6066 63.2058 58.8011 63.6074 57.8428 63.9268C56.5352 64.0482 55.4912 63.8311 54.4452 63.0208C53.607 62.22 53.1415 61.2436 53.1104 60.0842C53.1737 58.9042 53.4939 57.9121 54.3481 57.0667C55.7367 56.0576 57.5588 55.679 59.1094 56.6Z" fill="#FBFBFE"/>
<path d="M40.1106 29.6262C40.9568 29.9095 41.558 30.3089 42.0521 31.05C42.5839 32.1816 42.3466 33.3792 41.9565 34.522C41.4622 35.7662 40.8579 36.7481 39.7465 37.5137C38.8944 37.7977 38.1681 37.7532 37.352 37.3762C36.6377 36.9804 36.1487 36.4768 35.8392 35.7097C35.756 34.7852 35.7828 33.8684 36.0981 32.9915C36.1408 32.8704 36.1835 32.7493 36.2275 32.6245C36.7133 31.3557 37.3013 30.3467 38.5573 29.7557C39.0451 29.5118 39.5794 29.561 40.1106 29.6262Z" fill="#00D8A5"/>
<path d="M47.2292 32.3525C47.8087 32.7274 48.2521 33.2053 48.4715 33.8749C48.7734 35.5076 48.3715 36.9576 47.5543 38.3733C47.0814 39.0412 46.4636 39.7185 45.6759 39.9811C44.5686 40.0728 43.7578 39.9308 42.8607 39.2449C42.2008 38.6399 42.0355 37.9777 41.9951 37.1011C42.0409 35.5969 42.7563 33.8948 43.7895 32.7939C44.7436 31.9013 46.0505 31.7572 47.2292 32.3525Z" fill="#00D8A5"/>
<path d="M35.3212 27.9437C35.1438 28.9549 34.7762 29.8618 34.3862 30.8049C33.9336 31.91 33.524 33.0327 33.1208 34.1566C33.2004 34.1738 33.28 34.191 33.362 34.2087C33.4666 34.2315 33.5712 34.2544 33.679 34.2779C33.7826 34.3005 33.8862 34.323 33.993 34.3462C34.2857 34.4155 34.2857 34.4155 34.6741 34.5449C34.5955 35.0792 34.4102 35.4939 34.1563 35.9687C32.5281 35.4358 30.9144 34.8975 29.3672 34.1566C29.4953 33.7295 29.6235 33.3023 29.7555 32.8622C30.3487 32.9334 30.8748 33.0542 31.4382 33.2505C31.4806 33.1382 31.5231 33.0258 31.5668 32.9101C31.7242 32.4937 31.8817 32.0773 32.0394 31.661C32.1076 31.4808 32.1758 31.3005 32.2439 31.1202C32.3417 30.8612 32.4398 30.6022 32.5379 30.3433C32.5968 30.1874 32.6558 30.0315 32.7166 29.8709C32.862 29.4969 32.862 29.4969 32.9914 29.238C32.9246 29.2594 32.8579 29.2808 32.7891 29.3028C32.3787 29.387 31.9854 29.3755 31.5676 29.3675C31.4132 28.8657 31.3087 28.4723 31.3087 27.9437C31.721 27.8741 32.1336 27.8075 32.5465 27.7414C32.6623 27.7218 32.7782 27.7022 32.8976 27.682C33.7571 27.5466 34.5433 27.4769 35.3212 27.9437Z" fill="#00D8A5"/>
<path d="M25.1627 39.7975C25.3298 39.8597 25.3298 39.8597 25.5002 39.9231C25.6186 39.9677 25.737 40.0124 25.859 40.0583C25.9817 40.1041 26.1043 40.1499 26.2306 40.1971C26.6211 40.343 27.0114 40.4896 27.4016 40.6362C27.6668 40.7355 27.932 40.8347 28.1972 40.9338C28.8464 41.1766 29.4953 41.4199 30.1441 41.6636C30.1441 41.7064 30.1441 41.7491 30.1441 41.7931C30.0117 41.7943 29.8794 41.7955 29.743 41.7967C29.2439 41.802 28.7448 41.8105 28.2457 41.8199C28.0312 41.8236 27.8167 41.8263 27.6022 41.8282C25.5227 41.847 23.743 42.1552 22.1201 43.5713C21.3999 44.3186 20.9997 45.2644 20.5658 46.1939C20.4799 46.3667 20.3937 46.5393 20.307 46.7116C20.2955 46.2856 20.2887 45.8596 20.2827 45.4335C20.2794 45.3147 20.2762 45.1959 20.2728 45.0735C20.255 43.3837 20.8953 41.9688 22.0184 40.7146C23.0495 39.747 23.81 39.2907 25.1627 39.7975Z" fill="#6A6A6A"/>
<path d="M64.793 34.711C65.2658 35.1034 65.6983 35.5291 66.1273 35.9685C66.2055 36.0441 66.2838 36.1197 66.3644 36.1975C67.9031 37.8012 68.2543 39.9617 68.2119 42.0818C68.2074 42.2428 68.2029 42.4038 68.1982 42.5697C67.9419 42.4843 67.6857 42.3989 67.4216 42.3108C67.507 42.2681 67.5925 42.2254 67.6805 42.1814C67.4546 39.742 67.0315 37.3798 65.0447 35.7116C63.1155 34.2263 61.0951 33.6442 58.6751 33.938C58.3904 33.9952 58.1202 34.0689 57.8434 34.1564C57.7322 34.1896 57.6211 34.2228 57.5066 34.257C55.3438 34.9668 54.0505 36.3044 52.9921 38.265C52.4566 39.3987 52.3695 40.5593 52.2776 41.7931C52.0641 41.7931 51.8505 41.7931 51.6304 41.7931C51.4982 39.6337 52.2946 37.6275 53.6918 35.9988C56.4999 32.974 61.3585 32.1015 64.793 34.711Z" fill="#E69B15"/>
<path d="M46.3231 33.5093C46.6952 33.7682 46.6952 33.7682 46.9703 34.1565C47.0323 34.9276 46.9143 35.5061 46.6305 36.2193C46.5958 36.309 46.5612 36.3987 46.5255 36.4911C45.8323 38.2202 45.8323 38.2202 45.1582 38.5573C44.6292 38.616 44.3611 38.6439 43.9366 38.3065C43.5781 37.6038 43.6535 37.043 43.8532 36.3078C44.8546 33.3037 44.8546 33.3037 46.3231 33.5093Z" fill="#00FEC3"/>
<path d="M40.2396 31.1795C40.5323 31.4061 40.607 31.574 40.6683 31.9359C40.7476 33.3025 40.0926 34.7328 39.3335 35.8392C39.0064 36.1306 38.8668 36.2201 38.4275 36.2842C38.0392 36.2275 38.0392 36.2275 37.7318 36.0577C37.3404 35.4104 37.4489 34.6783 37.5826 33.9553C37.8499 32.9535 38.3126 31.9895 39.0019 31.2119C39.47 30.9835 39.7461 31.0333 40.2396 31.1795Z" fill="#00FEC3"/>
<path d="M59.5264 32.215C62.3195 32.0987 64.684 32.624 66.8536 34.5145C68.2887 35.8558 69.1439 37.4364 69.6224 39.334C69.6452 39.4141 69.6681 39.4942 69.6916 39.5767C69.7581 39.8803 69.7686 40.1543 69.769 40.465C69.7691 40.5819 69.7693 40.6988 69.7695 40.8192C69.769 40.9404 69.7685 41.0617 69.768 41.1865C69.7685 41.3063 69.769 41.426 69.7695 41.5493C69.7686 42.2055 69.7347 42.8292 69.6224 43.4759C69.249 43.3086 68.9917 43.1317 68.7163 42.8288C68.8017 42.8288 68.8872 42.8288 68.9752 42.8288C68.9547 39.7742 68.4686 37.1432 66.2317 34.8882C64.3313 33.091 62.0707 32.5132 59.5264 32.3445C59.5264 32.3018 59.5264 32.259 59.5264 32.215Z" fill="#E0991B"/>
<path d="M24.5778 18.624C25.1049 18.6738 25.5441 18.7379 26.0016 19.0123C25.812 19.6125 25.812 19.6125 25.4919 19.8294C25.2249 19.9184 25.2249 19.9184 24.8366 19.9184C24.9221 20.2174 25.0075 20.5164 25.0955 20.8244C24.8609 20.8083 24.8609 20.8083 24.5778 20.695C24.3351 20.331 24.3351 20.331 24.1895 19.9184C24.2946 19.6514 24.2946 19.6514 24.4483 19.4006C24.4533 19.185 24.4542 18.9691 24.4483 18.7535C24.491 18.7107 24.5338 18.668 24.5778 18.624Z" fill="#00FBC1"/>
<path d="M19.1418 32.8623C19.6364 32.933 20.0949 33.0864 20.5656 33.2506C20.4281 33.6308 20.4281 33.6308 20.1773 34.0272C19.7 34.1405 19.7 34.1405 19.2712 34.1567C19.3353 34.2795 19.3994 34.4023 19.4654 34.5288C19.6595 34.9333 19.6595 34.9333 19.6595 35.1921C19.4249 35.176 19.4249 35.176 19.1418 35.0627C18.8191 34.5954 18.7479 34.3553 18.7939 33.7845C18.8233 33.6511 18.8527 33.5176 18.8829 33.38C19.0111 33.3373 19.1392 33.2946 19.2712 33.2506C19.1858 33.1652 19.1004 33.0798 19.0124 32.9917C19.0551 32.949 19.0978 32.9063 19.1418 32.8623Z" fill="#00FBC1"/>
<path d="M103.578 23.964C103.51 23.3589 103.229 22.8901 102.734 22.5577C102.24 22.2211 101.618 22.0528 100.868 22.0528C100.331 22.0528 99.8665 22.138 99.4744 22.3084C99.0824 22.4746 98.7777 22.7047 98.5604 22.9988C98.3473 23.2886 98.2408 23.6188 98.2408 23.9895C98.2408 24.3006 98.3132 24.5691 98.4581 24.7949C98.6072 25.0208 98.8011 25.2104 99.0398 25.3638C99.2827 25.513 99.5426 25.6387 99.8196 25.741C100.097 25.839 100.363 25.9199 100.619 25.9839L101.897 26.3163C102.315 26.4185 102.743 26.557 103.182 26.7317C103.621 26.9064 104.028 27.1366 104.403 27.4221C104.778 27.7076 105.08 28.0613 105.31 28.4832C105.545 28.905 105.662 29.41 105.662 29.9981C105.662 30.7395 105.47 31.3979 105.087 31.9732C104.707 32.5485 104.156 33.0023 103.431 33.3347C102.711 33.6671 101.839 33.8333 100.817 33.8333C99.8366 33.8333 98.9886 33.6778 98.2727 33.3667C97.5568 33.0556 96.9964 32.6145 96.5916 32.0435C96.1868 31.4682 95.9631 30.7864 95.9205 29.9981H97.902C97.9403 30.4711 98.0938 30.8653 98.3622 31.1806C98.6349 31.4917 98.9822 31.7239 99.4041 31.8773C99.8303 32.0265 100.297 32.1011 100.804 32.1011C101.362 32.1011 101.859 32.0137 102.293 31.839C102.732 31.66 103.077 31.4128 103.329 31.0975C103.58 30.7779 103.706 30.405 103.706 29.9789C103.706 29.5911 103.595 29.2736 103.374 29.0265C103.156 28.7793 102.86 28.5748 102.485 28.4128C102.114 28.2509 101.695 28.1082 101.226 27.9846L99.679 27.5627C98.6307 27.2772 97.7997 26.8574 97.1861 26.3035C96.5767 25.7495 96.272 25.0165 96.272 24.1046C96.272 23.3503 96.4766 22.692 96.8857 22.1295C97.2947 21.567 97.8487 21.1302 98.5476 20.8191C99.2464 20.5038 100.035 20.3461 100.913 20.3461C101.799 20.3461 102.581 20.5016 103.259 20.8127C103.94 21.1238 104.477 21.552 104.869 22.0975C105.261 22.6387 105.466 23.2609 105.483 23.964H103.578ZM109.997 20.5251V33.616H108.022V20.5251H109.997ZM112.874 33.616V20.5251H117.54C118.558 20.5251 119.402 20.7104 120.071 21.0812C120.74 21.4519 121.241 21.959 121.573 22.6025C121.906 23.2417 122.072 23.9618 122.072 24.763C122.072 25.5684 121.904 26.2928 121.567 26.9363C121.235 27.5755 120.732 28.0826 120.058 28.4576C119.389 28.8283 118.548 29.0137 117.534 29.0137H114.325V27.339H117.355C117.998 27.339 118.52 27.2282 118.921 27.0066C119.321 26.7807 119.615 26.4739 119.803 26.0861C119.99 25.6984 120.084 25.2573 120.084 24.763C120.084 24.2687 119.99 23.8297 119.803 23.4462C119.615 23.0627 119.319 22.7623 118.914 22.5449C118.514 22.3276 117.985 22.2189 117.329 22.2189H114.849V33.616H112.874ZM136.822 35.2907C135.501 35.2907 134.329 35.1096 133.306 34.7474C132.287 34.3894 131.429 33.8631 130.73 33.1685C130.031 32.4697 129.501 31.6153 129.138 30.6053C128.776 29.5954 128.595 28.4427 128.595 27.1472C128.595 25.8859 128.778 24.7523 129.145 23.7466C129.511 22.741 130.044 21.8844 130.743 21.177C131.446 20.4654 132.3 19.9221 133.306 19.5471C134.312 19.1721 135.454 18.9846 136.732 18.9846C137.955 18.9846 139.033 19.1763 139.966 19.5599C140.9 19.9434 141.684 20.4697 142.319 21.1387C142.958 21.8077 143.439 22.5748 143.763 23.4398C144.087 24.3049 144.249 25.2189 144.249 26.182C144.249 26.8553 144.206 27.5137 144.121 28.1572C144.036 28.7964 143.878 29.3759 143.648 29.8958C143.422 30.4114 143.094 30.8248 142.664 31.1359C142.238 31.4427 141.684 31.6025 141.002 31.6153C140.64 31.628 140.288 31.5854 139.947 31.4874C139.606 31.3894 139.317 31.2317 139.078 31.0144C138.839 30.7928 138.694 30.5116 138.643 30.1707H138.567C138.464 30.4221 138.294 30.6564 138.055 30.8738C137.817 31.0868 137.512 31.2573 137.141 31.3851C136.775 31.5087 136.349 31.5599 135.863 31.5386C135.326 31.5172 134.842 31.3958 134.412 31.1742C133.981 30.9526 133.613 30.6458 133.306 30.2538C133.003 29.8617 132.771 29.3972 132.609 28.8603C132.447 28.3234 132.366 27.7268 132.366 27.0705C132.366 26.4398 132.458 25.8752 132.641 25.3766C132.824 24.8738 133.074 24.4413 133.389 24.079C133.709 23.7126 134.075 23.4228 134.488 23.2097C134.902 22.9966 135.339 22.8624 135.799 22.807C136.246 22.7559 136.657 22.7687 137.032 22.8454C137.407 22.9221 137.719 23.0393 137.966 23.1969C138.217 23.3546 138.375 23.5272 138.439 23.7147H138.522V22.9988H140.094V28.9306C140.094 29.2672 140.182 29.5528 140.356 29.7871C140.535 30.0215 140.789 30.1387 141.117 30.1387C141.505 30.1387 141.807 29.9959 142.025 29.7104C142.246 29.4249 142.402 28.986 142.491 28.3937C142.585 27.8013 142.632 27.0428 142.632 26.1181C142.632 25.4704 142.545 24.861 142.37 24.29C142.199 23.7147 141.946 23.1948 141.609 22.7303C141.277 22.2616 140.868 21.8589 140.382 21.5222C139.896 21.1856 139.342 20.9256 138.72 20.7424C138.102 20.5591 137.418 20.4675 136.668 20.4675C135.65 20.4675 134.744 20.6252 133.952 20.9405C133.159 21.2516 132.49 21.7012 131.944 22.2893C131.403 22.8773 130.992 23.5826 130.711 24.405C130.434 25.2232 130.295 26.1415 130.295 27.16C130.295 28.2211 130.438 29.1628 130.724 29.9853C131.009 30.8035 131.431 31.4938 131.989 32.0563C132.547 32.6188 133.238 33.0471 134.06 33.3411C134.883 33.6309 135.831 33.7758 136.905 33.7758C137.382 33.7758 137.851 33.7332 138.311 33.6479C138.771 33.567 139.18 33.4753 139.538 33.3731C139.9 33.2665 140.171 33.1813 140.35 33.1174L140.797 34.5172C140.533 34.6408 140.182 34.7623 139.743 34.8816C139.308 35.0009 138.835 35.0989 138.324 35.1756C137.817 35.2523 137.316 35.2907 136.822 35.2907ZM136.233 29.9725C136.787 29.9725 137.233 29.8617 137.569 29.6401C137.91 29.4185 138.155 29.0883 138.305 28.6493C138.458 28.2062 138.535 27.6522 138.535 26.9874C138.53 26.3397 138.447 25.8241 138.285 25.4405C138.128 25.0528 137.881 24.7758 137.544 24.6096C137.211 24.4391 136.783 24.3539 136.259 24.3539C135.778 24.3539 135.366 24.4711 135.025 24.7055C134.689 24.9398 134.431 25.2573 134.252 25.6579C134.077 26.0584 133.988 26.5038 133.983 26.9938C133.988 27.5094 134.06 27.9952 134.201 28.4512C134.346 28.9029 134.58 29.2694 134.904 29.5506C135.232 29.8319 135.675 29.9725 136.233 29.9725ZM151.359 20.5251V33.616H149.377V22.5066H149.3L146.168 24.552V22.66L149.435 20.5251H151.359ZM159.457 33.8333C158.447 33.829 157.585 33.5627 156.869 33.0343C156.153 32.5059 155.605 31.7367 155.226 30.7268C154.847 29.7168 154.657 28.5002 154.657 27.0769C154.657 25.6579 154.847 24.4455 155.226 23.4398C155.609 22.4341 156.159 21.6671 156.875 21.1387C157.595 20.6103 158.456 20.3461 159.457 20.3461C160.459 20.3461 161.317 20.6124 162.033 21.1451C162.749 21.6735 163.297 22.4405 163.676 23.4462C164.06 24.4476 164.251 25.6579 164.251 27.0769C164.251 28.5045 164.062 29.7232 163.683 30.7332C163.303 31.7388 162.756 32.508 162.04 33.0407C161.324 33.5691 160.463 33.8333 159.457 33.8333ZM159.457 32.1266C160.344 32.1266 161.036 31.6941 161.535 30.829C162.038 29.964 162.289 28.7133 162.289 27.0769C162.289 25.9903 162.174 25.0719 161.944 24.3219C161.718 23.5677 161.392 22.9966 160.966 22.6089C160.544 22.2168 160.041 22.0208 159.457 22.0208C158.575 22.0208 157.883 22.4555 157.38 23.3248C156.877 24.1941 156.624 25.4448 156.619 27.0769C156.619 28.1678 156.732 29.0904 156.958 29.8447C157.188 30.5947 157.514 31.1636 157.936 31.5513C158.358 31.9349 158.865 32.1266 159.457 32.1266ZM171.077 33.8333C170.067 33.829 169.204 33.5627 168.488 33.0343C167.772 32.5059 167.224 31.7367 166.845 30.7268C166.466 29.7168 166.276 28.5002 166.276 27.0769C166.276 25.6579 166.466 24.4455 166.845 23.4398C167.229 22.4341 167.778 21.6671 168.494 21.1387C169.214 20.6103 170.075 20.3461 171.077 20.3461C172.078 20.3461 172.937 20.6124 173.653 21.1451C174.368 21.6735 174.916 22.4405 175.295 23.4462C175.679 24.4476 175.871 25.6579 175.871 27.0769C175.871 28.5045 175.681 29.7232 175.302 30.7332C174.922 31.7388 174.375 32.508 173.659 33.0407C172.943 33.5691 172.082 33.8333 171.077 33.8333ZM171.077 32.1266C171.963 32.1266 172.655 31.6941 173.154 30.829C173.657 29.964 173.908 28.7133 173.908 27.0769C173.908 25.9903 173.793 25.0719 173.563 24.3219C173.337 23.5677 173.011 22.9966 172.585 22.6089C172.163 22.2168 171.66 22.0208 171.077 22.0208C170.194 22.0208 169.502 22.4555 168.999 23.3248C168.496 24.1941 168.243 25.4448 168.238 27.0769C168.238 28.1678 168.351 29.0904 168.577 29.8447C168.807 30.5947 169.133 31.1636 169.555 31.5513C169.977 31.9349 170.484 32.1266 171.077 32.1266Z" fill="#212121"/>
<path d="M97.6932 50.8887L97.1989 53.8887H96.2614L96.7557 50.8887H97.6932ZM99.875 50.8887L99.3807 53.8887H98.4432L98.9375 50.8887H99.875ZM102.857 50.8887L101.408 59.616H100.351L101.8 50.8887H102.857ZM105.044 55.6785L104.396 59.616H103.391L104.482 53.0705H105.453L105.283 54.0932H105.368C105.572 53.7609 105.849 53.4938 106.199 53.2921C106.548 53.0876 106.97 52.9853 107.464 52.9853C107.902 52.9853 108.271 53.0762 108.572 53.258C108.876 53.437 109.091 53.7097 109.216 54.0762C109.344 54.4398 109.362 54.9001 109.271 55.4569L108.572 59.616H107.567L108.249 55.5251C108.334 55.0137 108.267 54.6131 108.048 54.3234C107.832 54.0336 107.49 53.8887 107.021 53.8887C106.697 53.8887 106.398 53.9583 106.122 54.0975C105.849 54.2367 105.618 54.4398 105.428 54.7069C105.24 54.9739 105.112 55.2978 105.044 55.6785ZM116.619 53.0705L113.108 59.616H112.085L110.755 53.0705H111.804L112.741 58.2864H112.809L115.485 53.0705H116.619ZM119.348 59.7523C118.721 59.7523 118.202 59.6131 117.793 59.3347C117.384 59.0535 117.098 58.6614 116.936 58.1586C116.775 57.6529 116.749 57.0648 116.86 56.3944C116.971 55.7239 117.191 55.133 117.52 54.6216C117.85 54.1074 118.26 53.7069 118.752 53.4199C119.243 53.1302 119.783 52.9853 120.371 52.9853C120.712 52.9853 121.04 53.0421 121.355 53.1557C121.671 53.2694 121.944 53.454 122.174 53.7097C122.404 53.9626 122.564 54.2978 122.655 54.7154C122.746 55.133 122.74 55.6472 122.638 56.258L122.57 56.6841H117.525L117.661 55.8148H121.684C121.749 55.4455 121.732 55.116 121.632 54.8262C121.536 54.5364 121.367 54.3077 121.125 54.1401C120.887 53.9725 120.584 53.8887 120.218 53.8887C119.84 53.8887 119.488 53.991 119.161 54.1955C118.834 54.3972 118.561 54.6529 118.343 54.9626C118.124 55.2694 117.988 55.5819 117.934 55.9001L117.814 56.6501C117.729 57.1927 117.742 57.6245 117.853 57.9455C117.966 58.2665 118.164 58.4981 118.445 58.6401C118.726 58.7793 119.078 58.8489 119.502 58.8489C119.772 58.8489 120.02 58.812 120.248 58.7381C120.475 58.6614 120.678 58.5478 120.857 58.3972C121.036 58.2438 121.186 58.0535 121.309 57.8262L122.229 58.0989C122.073 58.4285 121.853 58.7182 121.569 58.9682C121.287 59.2154 120.958 59.4086 120.58 59.5478C120.205 59.6841 119.794 59.7523 119.348 59.7523ZM129.118 54.5364L128.163 54.7921C128.129 54.6387 128.069 54.491 127.984 54.3489C127.902 54.204 127.774 54.0861 127.6 53.9952C127.43 53.9015 127.197 53.8546 126.902 53.8546C126.501 53.8546 126.153 53.9469 125.858 54.1316C125.562 54.3134 125.393 54.5449 125.35 54.8262C125.308 55.0734 125.365 55.2708 125.521 55.4185C125.677 55.5663 125.939 55.687 126.305 55.7807L127.243 56.0194C127.805 56.1643 128.206 56.3816 128.444 56.6714C128.686 56.9583 128.768 57.3319 128.691 57.7921C128.629 58.1671 128.466 58.5023 128.201 58.7978C127.937 59.0932 127.599 59.3262 127.187 59.4966C126.775 59.6671 126.316 59.7523 125.811 59.7523C125.137 59.7523 124.606 59.6074 124.217 59.3177C123.828 59.0251 123.62 58.6018 123.595 58.0478L124.6 57.8091C124.626 58.1586 124.751 58.4228 124.975 58.6018C125.203 58.7779 125.521 58.866 125.93 58.866C126.399 58.866 126.789 58.7665 127.102 58.5677C127.414 58.366 127.592 58.1245 127.635 57.8432C127.677 57.6131 127.632 57.4214 127.498 57.268C127.368 57.1145 127.14 56.9995 126.816 56.9228L125.777 56.6671C125.197 56.5222 124.791 56.3006 124.558 56.0023C124.328 55.704 124.251 55.329 124.328 54.8773C124.39 54.508 124.549 54.1813 124.805 53.8972C125.064 53.6131 125.387 53.3901 125.777 53.2282C126.169 53.0663 126.595 52.9853 127.055 52.9853C127.703 52.9853 128.187 53.1273 128.508 53.4114C128.829 53.6927 129.032 54.0677 129.118 54.5364ZM133.836 53.0705L133.7 53.9228H130.308L130.444 53.0705H133.836ZM131.688 51.5023H132.694L131.654 57.741C131.609 58.0251 131.616 58.2381 131.675 58.3802C131.738 58.5194 131.832 58.6131 131.957 58.6614C132.085 58.7069 132.222 58.7296 132.37 58.7296C132.481 58.7296 132.572 58.7239 132.643 58.7126C132.714 58.6984 132.771 58.687 132.813 58.6785L132.881 59.5819C132.805 59.6074 132.701 59.633 132.57 59.6586C132.442 59.687 132.285 59.7012 132.097 59.7012C131.813 59.7012 131.546 59.6401 131.296 59.518C131.046 59.3958 130.854 59.2097 130.721 58.9597C130.587 58.7097 130.552 58.3944 130.614 58.0137L131.688 51.5023ZM137.633 59.616L138.724 53.0705H139.729L138.638 59.616H137.633ZM139.533 51.9626C139.337 51.9626 139.168 51.8958 139.026 51.7623C138.887 51.6288 138.817 51.4682 138.817 51.2807C138.817 51.0932 138.887 50.9327 139.026 50.7992C139.168 50.6657 139.337 50.5989 139.533 50.5989C139.729 50.5989 139.897 50.6657 140.036 50.7992C140.178 50.9327 140.249 51.0932 140.249 51.2807C140.249 51.4682 140.178 51.6288 140.036 51.7623C139.897 51.8958 139.729 51.9626 139.533 51.9626ZM142.134 55.6785L141.486 59.616H140.48L141.571 53.0705H142.543L142.373 54.0932H142.458C142.662 53.7609 142.939 53.4938 143.289 53.2921C143.638 53.0876 144.06 52.9853 144.554 52.9853C144.992 52.9853 145.361 53.0762 145.662 53.258C145.966 53.437 146.181 53.7097 146.306 54.0762C146.434 54.4398 146.452 54.9001 146.361 55.4569L145.662 59.616H144.657L145.338 55.5251C145.424 55.0137 145.357 54.6131 145.138 54.3234C144.922 54.0336 144.58 53.8887 144.111 53.8887C143.787 53.8887 143.488 53.9583 143.212 54.0975C142.939 54.2367 142.708 54.4398 142.517 54.7069C142.33 54.9739 142.202 55.2978 142.134 55.6785ZM151.71 50.8887H152.92L154.676 54.9626H154.778L157.864 50.8887H159.074L155.068 56.0194L154.472 59.616H153.415L154.011 56.0194L151.71 50.8887ZM160.631 59.7523C160.029 59.7523 159.525 59.6089 159.119 59.3219C158.712 59.035 158.425 58.633 158.258 58.116C158.093 57.5989 158.066 56.9966 158.177 56.3091C158.285 55.6387 158.499 55.0549 158.82 54.5577C159.144 54.0577 159.546 53.6714 160.026 53.3986C160.509 53.1231 161.04 52.9853 161.62 52.9853C162.222 52.9853 162.725 53.1302 163.129 53.4199C163.535 53.7069 163.822 54.1103 163.989 54.6302C164.157 55.1472 164.185 55.7523 164.075 56.4455C163.967 57.1103 163.749 57.6913 163.423 58.1884C163.099 58.6827 162.697 59.0677 162.217 59.3432C161.739 59.616 161.211 59.7523 160.631 59.7523ZM160.648 58.8489C161.109 58.8489 161.508 58.731 161.846 58.4952C162.187 58.2594 162.462 57.9484 162.673 57.562C162.886 57.1756 163.029 56.758 163.103 56.3091C163.171 55.883 163.168 55.4867 163.094 55.1202C163.021 54.7509 162.863 54.454 162.621 54.2296C162.38 54.0023 162.04 53.8887 161.603 53.8887C161.143 53.8887 160.741 54.008 160.397 54.2466C160.056 54.4853 159.781 54.7992 159.57 55.1884C159.36 55.5776 159.219 55.9966 159.148 56.4455C159.08 56.8716 159.082 57.268 159.153 57.6344C159.227 57.9981 159.384 58.2921 159.626 58.5165C159.87 58.7381 160.211 58.8489 160.648 58.8489ZM169.658 56.9398L170.306 53.0705H171.311L170.221 59.616H169.215L169.402 58.508H169.334C169.13 58.8404 168.844 59.1231 168.478 59.356C168.111 59.5861 167.681 59.7012 167.186 59.7012C166.777 59.7012 166.428 59.6117 166.138 59.4327C165.851 59.2509 165.647 58.9782 165.525 58.6145C165.405 58.2481 165.391 57.7864 165.482 57.2296L166.181 53.0705H167.186L166.505 57.1614C166.428 57.6387 166.5 58.0194 166.722 58.3035C166.944 58.5876 167.263 58.7296 167.681 58.7296C167.931 58.7296 168.195 58.6657 168.473 58.5378C168.755 58.41 169.005 58.214 169.223 57.9498C169.445 57.6856 169.59 57.3489 169.658 56.9398ZM172.062 59.616L173.153 53.0705H174.125L173.955 54.0591H174.023C174.193 53.7353 174.453 53.4725 174.803 53.2708C175.152 53.0691 175.523 52.9682 175.915 52.9682C175.991 52.9682 176.084 52.9697 176.192 52.9725C176.3 52.9725 176.384 52.9768 176.443 52.9853L176.273 54.008C176.239 53.9995 176.162 53.9867 176.043 53.9697C175.923 53.9498 175.795 53.9398 175.659 53.9398C175.341 53.9398 175.047 54.0066 174.777 54.1401C174.507 54.2708 174.281 54.4526 174.099 54.6856C173.918 54.9157 173.801 55.1785 173.75 55.4739L173.068 59.616H172.062ZM180.062 59.616L181.511 50.8887H186.744L186.591 51.8262H182.414L181.92 54.7751H185.704L185.551 55.7126H181.767L181.119 59.616H180.062ZM191.127 56.9398L191.775 53.0705H192.78L191.689 59.616H190.684L190.871 58.508H190.803C190.598 58.8404 190.313 59.1231 189.946 59.356C189.58 59.5861 189.15 59.7012 188.655 59.7012C188.246 59.7012 187.897 59.6117 187.607 59.4327C187.32 59.2509 187.115 58.9782 186.993 58.6145C186.874 58.2481 186.86 57.7864 186.951 57.2296L187.65 53.0705H188.655L187.973 57.1614C187.897 57.6387 187.969 58.0194 188.191 58.3035C188.412 58.5876 188.732 58.7296 189.15 58.7296C189.4 58.7296 189.664 58.6657 189.942 58.5378C190.223 58.41 190.473 58.214 190.692 57.9498C190.914 57.6856 191.059 57.3489 191.127 56.9398ZM197.469 53.0705L197.332 53.9228H193.94L194.077 53.0705H197.469ZM195.321 51.5023H196.327L195.287 57.741C195.241 58.0251 195.249 58.2381 195.308 58.3802C195.371 58.5194 195.464 58.6131 195.589 58.6614C195.717 58.7069 195.855 58.7296 196.003 58.7296C196.114 58.7296 196.205 58.7239 196.276 58.7126C196.347 58.6984 196.403 58.687 196.446 58.6785L196.514 59.5819C196.438 59.6074 196.334 59.633 196.203 59.6586C196.075 59.687 195.918 59.7012 195.73 59.7012C195.446 59.7012 195.179 59.6401 194.929 59.518C194.679 59.3958 194.487 59.2097 194.354 58.9597C194.22 58.7097 194.185 58.3944 194.247 58.0137L195.321 51.5023ZM202.459 56.9398L203.107 53.0705H204.112L203.021 59.616H202.016L202.203 58.508H202.135C201.93 58.8404 201.645 59.1231 201.278 59.356C200.912 59.5861 200.482 59.7012 199.987 59.7012C199.578 59.7012 199.229 59.6117 198.939 59.4327C198.652 59.2509 198.447 58.9782 198.325 58.6145C198.206 58.2481 198.192 57.7864 198.283 57.2296L198.982 53.0705H199.987L199.305 57.1614C199.229 57.6387 199.301 58.0194 199.523 58.3035C199.744 58.5876 200.064 58.7296 200.482 58.7296C200.732 58.7296 200.996 58.6657 201.274 58.5378C201.555 58.41 201.805 58.214 202.024 57.9498C202.246 57.6856 202.391 57.3489 202.459 56.9398ZM204.863 59.616L205.954 53.0705H206.926L206.755 54.0591H206.824C206.994 53.7353 207.254 53.4725 207.603 53.2708C207.953 53.0691 208.324 52.9682 208.716 52.9682C208.792 52.9682 208.885 52.9697 208.993 52.9725C209.1 52.9725 209.184 52.9768 209.244 52.9853L209.074 54.008C209.039 53.9995 208.963 53.9867 208.843 53.9697C208.724 53.9498 208.596 53.9398 208.46 53.9398C208.142 53.9398 207.848 54.0066 207.578 54.1401C207.308 54.2708 207.082 54.4526 206.9 54.6856C206.718 54.9157 206.602 55.1785 206.551 55.4739L205.869 59.616H204.863ZM211.88 59.7523C211.252 59.7523 210.733 59.6131 210.324 59.3347C209.915 59.0535 209.63 58.6614 209.468 58.1586C209.306 57.6529 209.28 57.0648 209.391 56.3944C209.502 55.7239 209.722 55.133 210.051 54.6216C210.381 54.1074 210.792 53.7069 211.283 53.4199C211.775 53.1302 212.314 52.9853 212.902 52.9853C213.243 52.9853 213.571 53.0421 213.887 53.1557C214.202 53.2694 214.475 53.454 214.705 53.7097C214.935 53.9626 215.096 54.2978 215.186 54.7154C215.277 55.133 215.272 55.6472 215.169 56.258L215.101 56.6841H210.056L210.192 55.8148H214.215C214.28 55.4455 214.263 55.116 214.164 54.8262C214.067 54.5364 213.898 54.3077 213.657 54.1401C213.418 53.9725 213.115 53.8887 212.749 53.8887C212.371 53.8887 212.019 53.991 211.692 54.1955C211.365 54.3972 211.093 54.6529 210.874 54.9626C210.655 55.2694 210.519 55.5819 210.465 55.9001L210.346 56.6501C210.26 57.1927 210.273 57.6245 210.384 57.9455C210.498 58.2665 210.695 58.4981 210.976 58.6401C211.257 58.7793 211.61 58.8489 212.033 58.8489C212.303 58.8489 212.551 58.812 212.779 58.7381C213.006 58.6614 213.209 58.5478 213.388 58.3972C213.567 58.2438 213.718 58.0535 213.84 57.8262L214.76 58.0989C214.604 58.4285 214.384 58.7182 214.1 58.9682C213.819 59.2154 213.489 59.4086 213.111 59.5478C212.736 59.6841 212.326 59.7523 211.88 59.7523ZM221.018 59.616L220.115 53.0705H221.172L221.751 58.0819H221.819L224.052 53.0705H225.126L225.672 58.0648H225.74L227.99 53.0705H229.047L225.961 59.616H224.973L224.376 54.5876H224.274L222.007 59.616H221.018ZM229.285 59.616L230.376 53.0705H231.382L230.291 59.616H229.285ZM231.186 51.9626C230.99 51.9626 230.821 51.8958 230.679 51.7623C230.539 51.6288 230.47 51.4682 230.47 51.2807C230.47 51.0932 230.539 50.9327 230.679 50.7992C230.821 50.6657 230.99 50.5989 231.186 50.5989C231.382 50.5989 231.549 50.6657 231.689 50.7992C231.831 50.9327 231.902 51.0932 231.902 51.2807C231.902 51.4682 231.831 51.6288 231.689 51.7623C231.549 51.8958 231.382 51.9626 231.186 51.9626ZM236.07 53.0705L235.934 53.9228H232.542L232.678 53.0705H236.07ZM233.923 51.5023H234.928L233.888 57.741C233.843 58.0251 233.85 58.2381 233.91 58.3802C233.972 58.5194 234.066 58.6131 234.191 58.6614C234.319 58.7069 234.457 58.7296 234.604 58.7296C234.715 58.7296 234.806 58.7239 234.877 58.7126C234.948 58.6984 235.005 58.687 235.048 58.6785L235.116 59.5819C235.039 59.6074 234.935 59.633 234.805 59.6586C234.677 59.687 234.519 59.7012 234.332 59.7012C234.048 59.7012 233.781 59.6401 233.531 59.518C233.281 59.3958 233.089 59.2097 232.955 58.9597C232.822 58.7097 232.786 58.3944 232.849 58.0137L233.923 51.5023ZM238.286 55.6785L237.638 59.616H236.633L238.082 50.8887H239.087L238.559 54.0932H238.644C238.849 53.7523 239.121 53.4824 239.462 53.2836C239.806 53.0847 240.238 52.9853 240.758 52.9853C241.201 52.9853 241.575 53.0748 241.879 53.2538C242.185 53.4299 242.401 53.7012 242.526 54.0677C242.654 54.4313 242.673 54.8944 242.582 55.4569L241.883 59.616H240.877L241.559 55.5251C241.644 55.0052 241.575 54.6032 241.35 54.3191C241.129 54.0322 240.783 53.8887 240.315 53.8887C239.985 53.8887 239.678 53.9583 239.394 54.0975C239.113 54.2367 238.874 54.4398 238.678 54.7069C238.485 54.9739 238.354 55.2978 238.286 55.6785ZM252.024 50.8887H253.081L252.041 57.1614C251.95 57.7182 251.777 58.1884 251.521 58.5719C251.268 58.9526 250.944 59.2424 250.549 59.4413C250.157 59.6373 249.706 59.7353 249.194 59.7353C248.706 59.7353 248.285 59.6472 247.933 59.4711C247.581 59.2949 247.322 59.0449 247.157 58.7211C246.993 58.3972 246.944 58.0137 247.012 57.5705H248.018C247.984 57.8262 248.011 58.0464 248.099 58.231C248.187 58.4128 248.326 58.5535 248.517 58.6529C248.71 58.7495 248.941 58.7978 249.211 58.7978C249.524 58.7978 249.802 58.7324 250.047 58.6018C250.294 58.4682 250.498 58.2751 250.66 58.0222C250.825 57.7665 250.939 57.4569 251.001 57.0932L252.024 50.8887ZM258.181 56.9398L258.829 53.0705H259.835L258.744 59.616H257.738L257.926 58.508H257.858C257.653 58.8404 257.368 59.1231 257.001 59.356C256.635 59.5861 256.204 59.7012 255.71 59.7012C255.301 59.7012 254.951 59.6117 254.662 59.4327C254.375 59.2509 254.17 58.9782 254.048 58.6145C253.929 58.2481 253.914 57.7864 254.005 57.2296L254.704 53.0705H255.71L255.028 57.1614C254.951 57.6387 255.024 58.0194 255.245 58.3035C255.467 58.5876 255.787 58.7296 256.204 58.7296C256.454 58.7296 256.718 58.6657 256.997 58.5378C257.278 58.41 257.528 58.214 257.747 57.9498C257.968 57.6856 258.113 57.3489 258.181 56.9398ZM266.075 54.5364L265.12 54.7921C265.086 54.6387 265.026 54.491 264.941 54.3489C264.859 54.204 264.731 54.0861 264.558 53.9952C264.387 53.9015 264.154 53.8546 263.859 53.8546C263.458 53.8546 263.11 53.9469 262.815 54.1316C262.519 54.3134 262.35 54.5449 262.308 54.8262C262.265 55.0734 262.322 55.2708 262.478 55.4185C262.634 55.5663 262.896 55.687 263.262 55.7807L264.2 56.0194C264.762 56.1643 265.163 56.3816 265.401 56.6714C265.643 56.9583 265.725 57.3319 265.648 57.7921C265.586 58.1671 265.423 58.5023 265.158 58.7978C264.894 59.0932 264.556 59.3262 264.144 59.4966C263.732 59.6671 263.273 59.7523 262.768 59.7523C262.094 59.7523 261.563 59.6074 261.174 59.3177C260.785 59.0251 260.577 58.6018 260.552 58.0478L261.558 57.8091C261.583 58.1586 261.708 58.4228 261.933 58.6018C262.16 58.7779 262.478 58.866 262.887 58.866C263.356 58.866 263.746 58.7665 264.059 58.5677C264.371 58.366 264.549 58.1245 264.592 57.8432C264.634 57.6131 264.589 57.4214 264.455 57.268C264.325 57.1145 264.097 56.9995 263.773 56.9228L262.734 56.6671C262.154 56.5222 261.748 56.3006 261.515 56.0023C261.285 55.704 261.208 55.329 261.285 54.8773C261.347 54.508 261.506 54.1813 261.762 53.8972C262.021 53.6131 262.344 53.3901 262.734 53.2282C263.126 53.0663 263.552 52.9853 264.012 52.9853C264.66 52.9853 265.144 53.1273 265.465 53.4114C265.786 53.6927 265.989 54.0677 266.075 54.5364ZM270.793 53.0705L270.657 53.9228H267.265L267.401 53.0705H270.793ZM268.645 51.5023H269.651L268.611 57.741C268.566 58.0251 268.573 58.2381 268.632 58.3802C268.695 58.5194 268.789 58.6131 268.914 58.6614C269.042 58.7069 269.179 58.7296 269.327 58.7296C269.438 58.7296 269.529 58.7239 269.6 58.7126C269.671 58.6984 269.728 58.687 269.77 58.6785L269.838 59.5819C269.762 59.6074 269.658 59.633 269.527 59.6586C269.4 59.687 269.242 59.7012 269.054 59.7012C268.77 59.7012 268.503 59.6401 268.253 59.518C268.003 59.3958 267.811 59.2097 267.678 58.9597C267.544 58.7097 267.509 58.3944 267.571 58.0137L268.645 51.5023ZM280.931 52.9512L280.471 53.9398H274.948L275.408 52.9512H280.931ZM277.232 59.616L274.743 55.7978L274.846 55.0819H276.397C276.8 55.0819 277.154 55.0251 277.458 54.9114C277.762 54.7949 278.007 54.6216 278.195 54.3915C278.382 54.1586 278.505 53.866 278.561 53.5137C278.655 52.9938 278.57 52.5861 278.306 52.2907C278.044 51.9924 277.59 51.8432 276.942 51.8432H275.306L275.749 50.8887H277.096C277.789 50.8887 278.338 51.0038 278.745 51.2339C279.151 51.4611 279.428 51.7736 279.576 52.1714C279.723 52.5663 279.755 53.0137 279.669 53.5137C279.596 53.9654 279.429 54.3816 279.171 54.7623C278.912 55.1401 278.547 55.4441 278.076 55.6742C277.604 55.9043 277.013 56.0194 276.303 56.0194H276.277L278.578 59.5478L278.561 59.616H277.232ZM281.272 50.8887L280.811 51.8773L276.482 51.8432L276.925 50.8887H281.272ZM285.57 50.8887L284.121 59.616H283.065L284.326 51.9966H284.275L281.906 53.4114L282.093 52.3376L284.513 50.8887H285.57ZM289.461 59.7353C288.819 59.7353 288.302 59.5606 287.91 59.2111C287.518 58.8589 287.259 58.3489 287.134 57.6813C287.009 57.0109 287.023 56.2012 287.177 55.2523C287.33 54.3091 287.582 53.5038 287.931 52.8361C288.281 52.1657 288.711 51.6543 289.222 51.302C289.734 50.9469 290.308 50.7694 290.944 50.7694C291.58 50.7694 292.096 50.9469 292.491 51.302C292.888 51.6572 293.153 52.1685 293.283 52.8361C293.417 53.5038 293.404 54.3091 293.245 55.2523C293.086 56.2012 292.832 57.0094 292.482 57.677C292.133 58.3447 291.702 58.8546 291.191 59.2069C290.68 59.5591 290.103 59.7353 289.461 59.7353ZM289.614 58.7978C290.254 58.7978 290.8 58.491 291.255 57.8773C291.712 57.2609 292.035 56.3859 292.222 55.2523C292.347 54.4966 292.373 53.8532 292.299 53.3219C292.225 52.7907 292.06 52.3859 291.805 52.1074C291.549 51.829 291.211 51.6898 290.79 51.6898C290.16 51.6898 289.617 52.0009 289.163 52.6231C288.708 53.2424 288.387 54.1188 288.2 55.2523C288.075 56.008 288.048 56.6501 288.119 57.1785C288.19 57.7069 288.352 58.1089 288.604 58.3844C288.857 58.66 289.194 58.7978 289.614 58.7978ZM296.961 59.7353C296.319 59.7353 295.802 59.5606 295.41 59.2111C295.018 58.8589 294.759 58.3489 294.634 57.6813C294.509 57.0109 294.523 56.2012 294.677 55.2523C294.83 54.3091 295.082 53.5038 295.431 52.8361C295.781 52.1657 296.211 51.6543 296.722 51.302C297.234 50.9469 297.808 50.7694 298.444 50.7694C299.08 50.7694 299.596 50.9469 299.991 51.302C300.388 51.6572 300.653 52.1685 300.783 52.8361C300.917 53.5038 300.904 54.3091 300.745 55.2523C300.586 56.2012 300.332 57.0094 299.982 57.677C299.633 58.3447 299.202 58.8546 298.691 59.2069C298.18 59.5591 297.603 59.7353 296.961 59.7353ZM297.114 58.7978C297.754 58.7978 298.3 58.491 298.755 57.8773C299.212 57.2609 299.535 56.3859 299.722 55.2523C299.847 54.4966 299.873 53.8532 299.799 53.3219C299.725 52.7907 299.56 52.3859 299.305 52.1074C299.049 51.829 298.711 51.6898 298.29 51.6898C297.66 51.6898 297.117 52.0009 296.663 52.6231C296.208 53.2424 295.887 54.1188 295.7 55.2523C295.575 56.008 295.548 56.6501 295.619 57.1785C295.69 57.7069 295.852 58.1089 296.104 58.3844C296.357 58.66 296.694 58.7978 297.114 58.7978ZM311.006 53.1387C311.006 52.6699 310.852 52.3148 310.542 52.0734C310.232 51.829 309.813 51.7069 309.285 51.7069C308.898 51.7069 308.55 51.7694 308.241 51.8944C307.931 52.0194 307.678 52.1913 307.482 52.41C307.286 52.6288 307.165 52.8773 307.12 53.1557C307.083 53.3887 307.107 53.589 307.192 53.7566C307.278 53.9214 307.398 54.0591 307.555 54.1699C307.714 54.2779 307.884 54.3674 308.066 54.4384C308.248 54.5066 308.415 54.562 308.569 54.6046L309.421 54.8432C309.634 54.9029 309.871 54.9853 310.133 55.0904C310.394 55.1955 310.638 55.339 310.866 55.5208C311.093 55.6998 311.266 55.9299 311.386 56.2111C311.508 56.4924 311.535 56.8376 311.467 57.2466C311.387 57.7182 311.192 58.1444 310.883 58.5251C310.576 58.9057 310.17 59.2083 309.664 59.4327C309.161 59.6572 308.575 59.7694 307.904 59.7694C307.279 59.7694 306.754 59.6685 306.327 59.4668C305.904 59.2651 305.592 58.9839 305.39 58.6231C305.191 58.2623 305.114 57.8432 305.16 57.366H306.251C306.222 57.6955 306.288 57.9682 306.447 58.1841C306.606 58.3972 306.827 58.5563 307.112 58.6614C307.396 58.7637 307.711 58.8148 308.058 58.8148C308.461 58.8148 308.833 58.7495 309.174 58.6188C309.518 58.4853 309.802 58.3006 310.026 58.0648C310.254 57.8262 310.393 57.5478 310.444 57.2296C310.495 56.9398 310.455 56.704 310.325 56.5222C310.194 56.3404 310.005 56.1927 309.758 56.079C309.511 55.9654 309.239 55.866 308.944 55.7807L307.921 55.4739C307.273 55.2779 306.781 54.9981 306.442 54.6344C306.107 54.2708 305.987 53.7949 306.08 53.2069C306.165 52.7182 306.371 52.2921 306.698 51.9285C307.025 51.562 307.43 51.2779 307.913 51.0762C308.396 50.8716 308.915 50.7694 309.472 50.7694C310.035 50.7694 310.516 50.8716 310.917 51.0762C311.317 51.2779 311.616 51.5577 311.812 51.9157C312.008 52.2708 312.08 52.6785 312.029 53.1387H311.006ZM315.318 50.8887L313.869 59.616H312.812L314.261 50.8887H315.318ZM315.988 59.616L317.437 50.8887H320.386C321.067 50.8887 321.606 51.0109 322.001 51.2552C322.398 51.4995 322.667 51.8305 322.806 52.2481C322.948 52.6657 322.977 53.133 322.891 53.6501C322.806 54.1614 322.623 54.6273 322.342 55.0478C322.063 55.4682 321.685 55.8035 321.208 56.0535C320.734 56.3035 320.158 56.4285 319.482 56.4285H317.369L317.522 55.491H319.602C320.067 55.491 320.457 55.41 320.769 55.2481C321.082 55.0861 321.326 54.866 321.502 54.5876C321.678 54.3091 321.795 53.9966 321.852 53.6501C321.908 53.2978 321.894 52.9853 321.809 52.7126C321.727 52.437 321.555 52.2211 321.293 52.0648C321.035 51.9057 320.67 51.8262 320.198 51.8262H318.34L317.045 59.616H315.988ZM326.235 50.8887L325.11 57.1614H324.122L325.076 50.8887H326.235ZM324.326 59.6841C324.11 59.6841 323.93 59.6103 323.785 59.4626C323.64 59.312 323.565 59.1302 323.559 58.9171C323.556 58.704 323.632 58.5265 323.785 58.3844C323.939 58.2395 324.119 58.1671 324.326 58.1671C324.537 58.1671 324.718 58.241 324.872 58.3887C325.025 58.5364 325.099 58.7126 325.093 58.9171C325.091 59.0591 325.054 59.1884 324.983 59.3049C324.914 59.4214 324.822 59.5137 324.706 59.5819C324.592 59.6501 324.466 59.6841 324.326 59.6841ZM101.358 68.1387C101.358 67.6699 101.203 67.3148 100.893 67.0734C100.584 66.829 100.165 66.7069 99.6364 66.7069C99.25 66.7069 98.902 66.7694 98.5923 66.8944C98.2827 67.0194 98.0298 67.1913 97.8338 67.41C97.6378 67.6288 97.517 67.8773 97.4716 68.1557C97.4347 68.3887 97.4588 68.589 97.544 68.7566C97.6293 68.9214 97.75 69.0591 97.9062 69.1699C98.0653 69.2779 98.2358 69.3674 98.4176 69.4384C98.5994 69.5066 98.767 69.562 98.9205 69.6046L99.7727 69.8432C99.9858 69.9029 100.223 69.9853 100.484 70.0904C100.746 70.1955 100.99 70.339 101.217 70.5208C101.445 70.6998 101.618 70.9299 101.737 71.2111C101.859 71.4924 101.886 71.8376 101.818 72.2466C101.739 72.7182 101.544 73.1444 101.234 73.5251C100.928 73.9057 100.521 74.2083 100.016 74.4327C99.5128 74.6572 98.9261 74.7694 98.2557 74.7694C97.6307 74.7694 97.1051 74.6685 96.679 74.4668C96.2557 74.2651 95.9432 73.9839 95.7415 73.6231C95.5426 73.2623 95.4659 72.8432 95.5114 72.366H96.6023C96.5739 72.6955 96.6392 72.9682 96.7983 73.1841C96.9574 73.3972 97.179 73.5563 97.4631 73.6614C97.7472 73.7637 98.0625 73.8148 98.4091 73.8148C98.8125 73.8148 99.1847 73.7495 99.5256 73.6188C99.8693 73.4853 100.153 73.3006 100.378 73.0648C100.605 72.8262 100.744 72.5478 100.795 72.2296C100.847 71.9398 100.807 71.704 100.676 71.5222C100.545 71.3404 100.357 71.1927 100.109 71.079C99.8622 70.9654 99.5909 70.866 99.2955 70.7807L98.2727 70.4739C97.625 70.2779 97.1321 69.9981 96.794 69.6344C96.4588 69.2708 96.3381 68.7949 96.4318 68.2069C96.517 67.7182 96.723 67.2921 97.0497 66.9285C97.3764 66.562 97.7813 66.2779 98.2642 66.0762C98.7472 65.8716 99.267 65.7694 99.8239 65.7694C100.386 65.7694 100.868 65.8716 101.268 66.0762C101.669 66.2779 101.967 66.5577 102.163 66.9157C102.359 67.2708 102.432 67.6785 102.381 68.1387H101.358ZM106.965 68.0705L106.828 68.9228H103.436L103.573 68.0705H106.965ZM104.817 66.5023H105.823L104.783 72.741C104.738 73.0251 104.745 73.2381 104.804 73.3802C104.867 73.5194 104.961 73.6131 105.086 73.6614C105.213 73.7069 105.351 73.7296 105.499 73.7296C105.61 73.7296 105.701 73.7239 105.772 73.7126C105.843 73.6984 105.9 73.687 105.942 73.6785L106.01 74.5819C105.934 74.6074 105.83 74.633 105.699 74.6586C105.571 74.687 105.414 74.7012 105.226 74.7012C104.942 74.7012 104.675 74.6401 104.425 74.518C104.175 74.3958 103.983 74.2097 103.85 73.9597C103.716 73.7097 103.681 73.3944 103.743 73.0137L104.817 66.5023ZM109.296 74.7694C108.881 74.7694 108.517 74.6913 108.205 74.535C107.892 74.3759 107.661 74.1472 107.51 73.8489C107.36 73.5478 107.319 73.1841 107.387 72.758C107.452 72.383 107.578 72.079 107.766 71.8461C107.953 71.6103 108.181 71.4256 108.448 71.2921C108.718 71.1557 109.007 71.0549 109.317 70.9895C109.63 70.9214 109.941 70.8688 110.25 70.8319C110.654 70.7807 110.982 70.741 111.235 70.7126C111.488 70.6841 111.678 70.6373 111.806 70.5719C111.934 70.5066 112.012 70.3944 112.04 70.2353V70.2012C112.108 69.7836 112.053 69.4583 111.874 69.2253C111.695 68.9895 111.375 68.8716 110.915 68.8716C110.438 68.8716 110.039 68.9768 109.718 69.187C109.397 69.3972 109.159 69.6216 109.006 69.8603L108.12 69.5194C108.353 69.1216 108.631 68.812 108.955 68.5904C109.279 68.366 109.618 68.2097 109.973 68.1216C110.328 68.0307 110.671 67.9853 111 67.9853C111.211 67.9853 111.448 68.0109 111.712 68.062C111.976 68.1103 112.223 68.2111 112.453 68.3645C112.686 68.518 112.861 68.7495 112.978 69.0591C113.097 69.3688 113.114 69.7836 113.029 70.3035L112.313 74.616H111.307L111.461 73.7296H111.409C111.319 73.8716 111.179 74.0236 110.992 74.1856C110.807 74.3475 110.573 74.4853 110.289 74.5989C110.007 74.7126 109.676 74.7694 109.296 74.7694ZM109.586 73.866C109.983 73.866 110.331 73.7878 110.63 73.6316C110.931 73.4753 111.172 73.2736 111.354 73.0265C111.539 72.7793 111.654 72.5194 111.699 72.2466L111.853 71.3262C111.801 71.3773 111.701 71.4242 111.55 71.4668C111.4 71.5066 111.229 71.5421 111.039 71.5734C110.851 71.6018 110.668 71.6273 110.489 71.6501C110.313 71.6699 110.171 71.687 110.063 71.7012C109.796 71.7353 109.542 71.7907 109.3 71.8674C109.061 71.9413 108.86 72.0535 108.695 72.204C108.533 72.3518 108.432 72.5535 108.392 72.8091C108.333 73.1586 108.417 73.4228 108.644 73.6018C108.871 73.7779 109.185 73.866 109.586 73.866ZM114.148 74.616L115.239 68.0705H116.211L116.04 69.0591H116.109C116.279 68.7353 116.539 68.4725 116.888 68.2708C117.238 68.0691 117.609 67.9682 118.001 67.9682C118.077 67.9682 118.17 67.9697 118.278 67.9725C118.386 67.9725 118.469 67.9768 118.529 67.9853L118.359 69.008C118.325 68.9995 118.248 68.9867 118.129 68.9697C118.009 68.9498 117.881 68.9398 117.745 68.9398C117.427 68.9398 117.133 69.0066 116.863 69.1401C116.593 69.2708 116.367 69.4526 116.185 69.6856C116.004 69.9157 115.887 70.1785 115.836 70.4739L115.154 74.616H114.148ZM122.984 68.0705L122.848 68.9228H119.456L119.592 68.0705H122.984ZM120.837 66.5023H121.842L120.803 72.741C120.757 73.0251 120.764 73.2381 120.824 73.3802C120.886 73.5194 120.98 73.6131 121.105 73.6614C121.233 73.7069 121.371 73.7296 121.518 73.7296C121.629 73.7296 121.72 73.7239 121.791 73.7126C121.862 73.6984 121.919 73.687 121.962 73.6785L122.03 74.5819C121.953 74.6074 121.849 74.633 121.719 74.6586C121.591 74.687 121.433 74.7012 121.246 74.7012C120.962 74.7012 120.695 74.6401 120.445 74.518C120.195 74.3958 120.003 74.2097 119.869 73.9597C119.736 73.7097 119.7 73.3944 119.763 73.0137L120.837 66.5023ZM132.764 68.1387C132.764 67.6699 132.609 67.3148 132.3 67.0734C131.99 66.829 131.571 66.7069 131.043 66.7069C130.656 66.7069 130.308 66.7694 129.999 66.8944C129.689 67.0194 129.436 67.1913 129.24 67.41C129.044 67.6288 128.923 67.8773 128.878 68.1557C128.841 68.3887 128.865 68.589 128.95 68.7566C129.036 68.9214 129.156 69.0591 129.312 69.1699C129.472 69.2779 129.642 69.3674 129.824 69.4384C130.006 69.5066 130.173 69.562 130.327 69.6046L131.179 69.8432C131.392 69.9029 131.629 69.9853 131.891 70.0904C132.152 70.1955 132.396 70.339 132.624 70.5208C132.851 70.6998 133.024 70.9299 133.143 71.2111C133.266 71.4924 133.293 71.8376 133.224 72.2466C133.145 72.7182 132.95 73.1444 132.641 73.5251C132.334 73.9057 131.928 74.2083 131.422 74.4327C130.919 74.6572 130.332 74.7694 129.662 74.7694C129.037 74.7694 128.511 74.6685 128.085 74.4668C127.662 74.2651 127.349 73.9839 127.148 73.6231C126.949 73.2623 126.872 72.8432 126.918 72.366H128.009C127.98 72.6955 128.045 72.9682 128.205 73.1841C128.364 73.3972 128.585 73.5563 128.869 73.6614C129.153 73.7637 129.469 73.8148 129.815 73.8148C130.219 73.8148 130.591 73.7495 130.932 73.6188C131.276 73.4853 131.56 73.3006 131.784 73.0648C132.011 72.8262 132.151 72.5478 132.202 72.2296C132.253 71.9398 132.213 71.704 132.082 71.5222C131.952 71.3404 131.763 71.1927 131.516 71.079C131.268 70.9654 130.997 70.866 130.702 70.7807L129.679 70.4739C129.031 70.2779 128.538 69.9981 128.2 69.6344C127.865 69.2708 127.744 68.7949 127.838 68.2069C127.923 67.7182 128.129 67.2921 128.456 66.9285C128.783 66.562 129.188 66.2779 129.67 66.0762C130.153 65.8716 130.673 65.7694 131.23 65.7694C131.793 65.7694 132.274 65.8716 132.675 66.0762C133.075 66.2779 133.374 66.5577 133.57 66.9157C133.766 67.2708 133.838 67.6785 133.787 68.1387H132.764ZM134.434 74.616L135.525 68.0705H136.496L136.326 69.0932H136.411C136.607 68.7438 136.873 68.4725 137.208 68.2793C137.546 68.0833 137.928 67.9853 138.354 67.9853C138.78 67.9853 139.123 68.0833 139.381 68.2793C139.64 68.4725 139.82 68.7438 139.922 69.0932H139.99C140.212 68.7523 140.507 68.4824 140.877 68.2836C141.249 68.0847 141.669 67.9853 142.138 67.9853C142.718 67.9853 143.164 68.1685 143.476 68.535C143.792 68.9015 143.885 69.4682 143.757 70.2353L143.025 74.616H142.019L142.752 70.2353C142.828 69.7495 142.752 69.4043 142.522 69.1998C142.294 68.9924 142.002 68.8887 141.644 68.8887C141.184 68.8887 140.804 69.0265 140.506 69.302C140.208 69.5776 140.025 69.9285 139.956 70.3546L139.24 74.616H138.218L138.968 70.133C139.027 69.758 138.956 69.4569 138.755 69.2296C138.553 69.0023 138.26 68.8887 137.877 68.8887C137.615 68.8887 137.36 68.9597 137.11 69.1018C136.86 69.241 136.645 69.4341 136.466 69.6813C136.287 69.9256 136.172 70.2069 136.121 70.5251L135.439 74.616H134.434ZM146.772 74.7694C146.358 74.7694 145.994 74.6913 145.681 74.535C145.369 74.3759 145.137 74.1472 144.987 73.8489C144.836 73.5478 144.795 73.1841 144.863 72.758C144.929 72.383 145.055 72.079 145.243 71.8461C145.43 71.6103 145.657 71.4256 145.924 71.2921C146.194 71.1557 146.484 71.0549 146.794 70.9895C147.106 70.9214 147.417 70.8688 147.727 70.8319C148.13 70.7807 148.458 70.741 148.711 70.7126C148.964 70.6841 149.154 70.6373 149.282 70.5719C149.41 70.5066 149.488 70.3944 149.517 70.2353V70.2012C149.585 69.7836 149.529 69.4583 149.35 69.2253C149.172 68.9895 148.852 68.8716 148.392 68.8716C147.914 68.8716 147.515 68.9768 147.194 69.187C146.873 69.3972 146.636 69.6216 146.483 69.8603L145.596 69.5194C145.829 69.1216 146.108 68.812 146.431 68.5904C146.755 68.366 147.095 68.2097 147.45 68.1216C147.805 68.0307 148.147 67.9853 148.477 67.9853C148.687 67.9853 148.924 68.0109 149.189 68.062C149.453 68.1103 149.7 68.2111 149.93 68.3645C150.163 68.518 150.338 68.7495 150.454 69.0591C150.574 69.3688 150.591 69.7836 150.505 70.3035L149.789 74.616H148.784L148.937 73.7296H148.886C148.795 73.8716 148.656 74.0236 148.468 74.1856C148.284 74.3475 148.049 74.4853 147.765 74.5989C147.484 74.7126 147.153 74.7694 146.772 74.7694ZM147.062 73.866C147.46 73.866 147.808 73.7878 148.106 73.6316C148.407 73.4753 148.649 73.2736 148.831 73.0265C149.015 72.7793 149.13 72.5194 149.176 72.2466L149.329 71.3262C149.278 71.3773 149.177 71.4242 149.027 71.4668C148.876 71.5066 148.706 71.5421 148.515 71.5734C148.328 71.6018 148.145 71.6273 147.966 71.6501C147.789 71.6699 147.647 71.687 147.539 71.7012C147.272 71.7353 147.018 71.7907 146.777 71.8674C146.538 71.9413 146.336 72.0535 146.172 72.204C146.01 72.3518 145.909 72.5535 145.869 72.8091C145.809 73.1586 145.893 73.4228 146.12 73.6018C146.348 73.7779 146.662 73.866 147.062 73.866ZM154.08 65.8887L152.631 74.616H151.625L153.074 65.8887H154.08ZM156.927 65.8887L155.478 74.616H154.473L155.922 65.8887H156.927ZM159.025 73.4228L158.871 73.883C158.769 74.2069 158.638 74.5535 158.479 74.9228C158.32 75.2921 158.163 75.6401 158.006 75.9668C157.85 76.2935 157.724 76.5535 157.627 76.7466H156.86C156.923 76.5648 157.008 76.3248 157.116 76.0265C157.224 75.7282 157.339 75.3958 157.461 75.0293C157.583 74.6628 157.695 74.2864 157.798 73.9001L157.934 73.4228H159.025ZM166.922 74.616H164.195L165.644 65.8887H168.422C169.269 65.8887 169.966 66.0663 170.515 66.4214C171.066 66.7765 171.449 67.2836 171.665 67.9427C171.884 68.6018 171.917 69.3887 171.763 70.3035C171.615 71.2012 171.328 71.9725 170.902 72.6174C170.479 73.2594 169.931 73.7538 169.257 74.1003C168.587 74.4441 167.809 74.616 166.922 74.616ZM165.409 73.6785H166.956C167.678 73.6785 168.3 73.5364 168.823 73.2523C169.348 72.9682 169.772 72.5634 170.093 72.0378C170.417 71.5123 170.638 70.8887 170.757 70.1671C170.877 69.4739 170.865 68.8788 170.723 68.3816C170.584 67.8816 170.31 67.4981 169.901 67.231C169.495 66.9611 168.951 66.8262 168.269 66.8262H166.543L165.409 73.6785ZM172.684 74.616L173.775 68.0705H174.746L174.576 69.0591H174.644C174.814 68.7353 175.074 68.4725 175.424 68.2708C175.773 68.0691 176.144 67.9682 176.536 67.9682C176.613 67.9682 176.705 67.9697 176.813 67.9725C176.921 67.9725 177.005 67.9768 177.064 67.9853L176.894 69.008C176.86 68.9995 176.783 68.9867 176.664 68.9697C176.544 68.9498 176.417 68.9398 176.28 68.9398C175.962 68.9398 175.668 69.0066 175.398 69.1401C175.128 69.2708 174.902 69.4526 174.721 69.6856C174.539 69.9157 174.422 70.1785 174.371 70.4739L173.689 74.616H172.684ZM179.7 74.7523C179.072 74.7523 178.554 74.6131 178.145 74.3347C177.735 74.0535 177.45 73.6614 177.288 73.1586C177.126 72.6529 177.1 72.0648 177.211 71.3944C177.322 70.7239 177.542 70.133 177.872 69.6216C178.201 69.1074 178.612 68.7069 179.103 68.4199C179.595 68.1302 180.135 67.9853 180.723 67.9853C181.064 67.9853 181.392 68.0421 181.707 68.1557C182.022 68.2694 182.295 68.454 182.525 68.7097C182.755 68.9626 182.916 69.2978 183.007 69.7154C183.098 70.133 183.092 70.6472 182.99 71.258L182.922 71.6841H177.876L178.012 70.8148H182.035C182.1 70.4455 182.083 70.116 181.984 69.8262C181.887 69.5364 181.718 69.3077 181.477 69.1401C181.238 68.9725 180.936 68.8887 180.569 68.8887C180.191 68.8887 179.839 68.991 179.512 69.1955C179.186 69.3972 178.913 69.6529 178.694 69.9626C178.475 70.2694 178.339 70.5819 178.285 70.9001L178.166 71.6501C178.081 72.1927 178.093 72.6245 178.204 72.9455C178.318 73.2665 178.515 73.4981 178.797 73.6401C179.078 73.7793 179.43 73.8489 179.853 73.8489C180.123 73.8489 180.372 73.812 180.599 73.7381C180.826 73.6614 181.029 73.5478 181.208 73.3972C181.387 73.2438 181.538 73.0535 181.66 72.8262L182.581 73.0989C182.424 73.4285 182.204 73.7182 181.92 73.9682C181.639 74.2154 181.309 74.4086 180.931 74.5478C180.556 74.6841 180.146 74.7523 179.7 74.7523ZM185.89 74.7694C185.475 74.7694 185.111 74.6913 184.799 74.535C184.486 74.3759 184.255 74.1472 184.104 73.8489C183.953 73.5478 183.912 73.1841 183.98 72.758C184.046 72.383 184.172 72.079 184.36 71.8461C184.547 71.6103 184.775 71.4256 185.042 71.2921C185.311 71.1557 185.601 71.0549 185.911 70.9895C186.223 70.9214 186.534 70.8688 186.844 70.8319C187.248 70.7807 187.576 70.741 187.828 70.7126C188.081 70.6841 188.272 70.6373 188.4 70.5719C188.527 70.5066 188.605 70.3944 188.634 70.2353V70.2012C188.702 69.7836 188.647 69.4583 188.468 69.2253C188.289 68.9895 187.969 68.8716 187.509 68.8716C187.032 68.8716 186.632 68.9768 186.311 69.187C185.99 69.3972 185.753 69.6216 185.6 69.8603L184.713 69.5194C184.946 69.1216 185.225 68.812 185.549 68.5904C185.873 68.366 186.212 68.2097 186.567 68.1216C186.922 68.0307 187.265 67.9853 187.594 67.9853C187.804 67.9853 188.042 68.0109 188.306 68.062C188.57 68.1103 188.817 68.2111 189.047 68.3645C189.28 68.518 189.455 68.7495 189.571 69.0591C189.691 69.3688 189.708 69.7836 189.623 70.3035L188.907 74.616H187.901L188.054 73.7296H188.003C187.912 73.8716 187.773 74.0236 187.586 74.1856C187.401 74.3475 187.167 74.4853 186.882 74.5989C186.601 74.7126 186.27 74.7694 185.89 74.7694ZM186.179 73.866C186.577 73.866 186.925 73.7878 187.223 73.6316C187.525 73.4753 187.766 73.2736 187.948 73.0265C188.132 72.7793 188.248 72.5194 188.293 72.2466L188.446 71.3262C188.395 71.3773 188.294 71.4242 188.144 71.4668C187.993 71.5066 187.823 71.5421 187.632 71.5734C187.445 71.6018 187.262 71.6273 187.083 71.6501C186.907 71.6699 186.765 71.687 186.657 71.7012C186.39 71.7353 186.135 71.7907 185.894 71.8674C185.655 71.9413 185.453 72.0535 185.289 72.204C185.127 72.3518 185.026 72.5535 184.986 72.8091C184.926 73.1586 185.01 73.4228 185.238 73.6018C185.465 73.7779 185.779 73.866 186.179 73.866ZM190.742 74.616L191.833 68.0705H192.805L192.634 69.0932H192.719C192.915 68.7438 193.181 68.4725 193.516 68.2793C193.854 68.0833 194.237 67.9853 194.663 67.9853C195.089 67.9853 195.431 68.0833 195.69 68.2793C195.948 68.4725 196.129 68.7438 196.231 69.0932H196.299C196.521 68.7523 196.816 68.4824 197.185 68.2836C197.558 68.0847 197.978 67.9853 198.447 67.9853C199.026 67.9853 199.472 68.1685 199.785 68.535C200.1 68.9015 200.194 69.4682 200.066 70.2353L199.333 74.616H198.327L199.06 70.2353C199.137 69.7495 199.06 69.4043 198.83 69.1998C198.603 68.9924 198.31 68.8887 197.952 68.8887C197.492 68.8887 197.113 69.0265 196.815 69.302C196.516 69.5776 196.333 69.9285 196.265 70.3546L195.549 74.616H194.526L195.276 70.133C195.336 69.758 195.265 69.4569 195.063 69.2296C194.862 69.0023 194.569 68.8887 194.185 68.8887C193.924 68.8887 193.668 68.9597 193.418 69.1018C193.168 69.241 192.954 69.4341 192.775 69.6813C192.596 69.9256 192.481 70.2069 192.43 70.5251L191.748 74.616H190.742ZM204.683 74.616L206.132 65.8887H209.183C209.791 65.8887 210.276 65.9938 210.636 66.204C210.997 66.4114 211.244 66.6913 211.378 67.0435C211.511 67.393 211.541 67.7807 211.467 68.2069C211.405 68.5819 211.287 68.8915 211.114 69.1359C210.943 69.3802 210.739 69.5734 210.5 69.7154C210.264 69.8574 210.018 69.9626 209.763 70.0307L209.746 70.116C210.007 70.133 210.259 70.2268 210.5 70.3972C210.741 70.5677 210.928 70.812 211.058 71.1302C211.189 71.4484 211.217 71.8376 211.143 72.2978C211.07 72.7353 210.903 73.1288 210.645 73.4782C210.386 73.8276 210.026 74.1046 209.562 74.3091C209.099 74.5137 208.524 74.616 207.837 74.616H204.683ZM205.893 73.6785H207.99C208.68 73.6785 209.193 73.5449 209.528 73.2779C209.866 73.008 210.07 72.6813 210.138 72.2978C210.183 72.0023 210.151 71.7296 210.04 71.4796C209.932 71.2268 209.751 71.0251 209.499 70.8745C209.249 70.7211 208.933 70.6444 208.553 70.6444H206.405L205.893 73.6785ZM206.558 69.7239H208.518C208.837 69.7239 209.135 69.6614 209.413 69.5364C209.692 69.4114 209.925 69.2353 210.112 69.008C210.3 68.7807 210.416 68.5137 210.462 68.2069C210.53 67.8234 210.453 67.4981 210.232 67.231C210.01 66.9611 209.609 66.8262 209.03 66.8262H207.036L206.558 69.7239ZM212.352 74.616L213.442 68.0705H214.448L213.357 74.616H212.352ZM214.252 66.9626C214.056 66.9626 213.887 66.8958 213.745 66.7623C213.606 66.6288 213.536 66.4682 213.536 66.2807C213.536 66.0932 213.606 65.9327 213.745 65.7992C213.887 65.6657 214.056 65.5989 214.252 65.5989C214.448 65.5989 214.616 65.6657 214.755 65.7992C214.897 65.9327 214.968 66.0932 214.968 66.2807C214.968 66.4682 214.897 66.6288 214.755 66.7623C214.616 66.8958 214.448 66.9626 214.252 66.9626ZM217.432 77.2069C216.944 77.2069 216.534 77.1444 216.205 77.0194C215.875 76.8972 215.611 76.7353 215.412 76.5336C215.213 76.3347 215.063 76.1216 214.961 75.8944L215.864 75.3319C215.932 75.4512 216.02 75.5876 216.128 75.741C216.236 75.8972 216.4 76.0322 216.618 76.1458C216.84 76.2623 217.151 76.3205 217.551 76.3205C218.077 76.3205 218.537 76.1927 218.932 75.937C219.327 75.6813 219.571 75.2807 219.665 74.7353L219.87 73.4057H219.784C219.694 73.5251 219.567 73.6728 219.405 73.8489C219.243 74.0222 219.026 74.177 218.753 74.3134C218.48 74.4469 218.131 74.5137 217.705 74.5137C217.174 74.5137 216.719 74.3887 216.341 74.1387C215.963 73.8887 215.692 73.5251 215.527 73.0478C215.365 72.5705 215.341 71.991 215.455 71.3091C215.566 70.6387 215.779 70.0549 216.094 69.5577C216.412 69.0577 216.804 68.6714 217.27 68.3986C217.736 68.1231 218.245 67.9853 218.796 67.9853C219.222 67.9853 219.549 68.0563 219.776 68.1984C220.006 68.3376 220.174 68.4966 220.279 68.6756C220.384 68.8518 220.463 68.9966 220.517 69.1103H220.62L220.79 68.0705H221.762L220.654 74.8035C220.56 75.366 220.357 75.8234 220.044 76.1756C219.732 76.5307 219.348 76.7907 218.894 76.9555C218.439 77.1231 217.952 77.2069 217.432 77.2069ZM217.961 73.6103C218.361 73.6103 218.718 73.518 219.03 73.3333C219.346 73.1486 219.607 72.883 219.814 72.5364C220.022 72.1898 220.165 71.7751 220.245 71.2921C220.324 70.8205 220.319 70.4043 220.228 70.0435C220.137 69.6827 219.965 69.4001 219.712 69.1955C219.462 68.991 219.134 68.8887 218.728 68.8887C218.299 68.8887 217.928 68.9966 217.615 69.2126C217.306 69.4285 217.054 69.7182 216.861 70.0819C216.668 70.4455 216.534 70.8489 216.461 71.2921C216.387 71.7466 216.39 72.1486 216.469 72.4981C216.549 72.8447 216.711 73.1174 216.955 73.3163C217.202 73.5123 217.537 73.6103 217.961 73.6103ZM225.29 65.8887L224.165 72.1614H223.176L224.131 65.8887H225.29ZM223.381 74.6841C223.165 74.6841 222.985 74.6103 222.84 74.4626C222.695 74.312 222.62 74.1302 222.614 73.9171C222.611 73.704 222.686 73.5265 222.84 73.3844C222.993 73.2395 223.174 73.1671 223.381 73.1671C223.591 73.1671 223.773 73.241 223.926 73.3887C224.08 73.5364 224.154 73.7126 224.148 73.9171C224.145 74.0591 224.108 74.1884 224.037 74.3049C223.969 74.4214 223.877 74.5137 223.76 74.5819C223.647 74.6501 223.52 74.6841 223.381 74.6841ZM228.17 65.8887L227.675 68.8887H226.738L227.232 65.8887H228.17ZM230.352 65.8887L229.857 68.8887H228.92L229.414 65.8887H230.352Z" fill="#444444"/>
</svg>
