<svg width="357" height="93" viewBox="0 0 357 93" fill="none" xmlns="http://www.w3.org/2000/svg">
<rect y="0.615967" width="357" height="92" rx="10" fill="#FFE4C0"/>
<path fill-rule="evenodd" clip-rule="evenodd" d="M41.9711 40.8119V75.4379L41.948 75.461L15.0231 63.9452L15 63.9059V29.2822L15.0231 29.3238L41.948 40.8396L41.9711 40.8119Z" fill="#FCD062"/>
<path fill-rule="evenodd" clip-rule="evenodd" d="M41.9941 40.8281L68.9191 29.3123L68.9421 29.2708V63.8945L68.9191 63.9337L41.9941 75.4495V40.8281Z" fill="#F8AA3A"/>
<path fill-rule="evenodd" clip-rule="evenodd" d="M68.9188 29.2822L41.9939 17.771H41.9477L15.0205 29.2845V29.3122L41.9454 40.8281L68.9188 29.2822Z" fill="#F8B84E"/>
<path fill-rule="evenodd" clip-rule="evenodd" d="M50.6392 21.4658L24.1689 33.2055V48.9192L28.8445 46.6114L33.4601 53.5348L33.4555 37.1957L59.815 25.3891L50.6392 21.4658Z" fill="#E9EDED"/>
<path d="M60.0638 60.4674L53.332 63.3452L46.6025 66.2254M53.332 58.7412L46.6025 61.6213" stroke="#34485C" stroke-linecap="round" stroke-linejoin="round"/>
<path d="M67.4999 51.527C66.3995 52.1377 64.3865 50.893 63.17 51.2182C62.0697 51.5133 61.1377 53.5554 59.9996 53.536C58.7415 53.5147 57.6199 51.4302 56.4044 51.105C55.304 50.8098 53.4759 52.1125 52.4994 51.527C51.4203 50.8786 51.4919 48.5133 50.6026 47.6229C49.7964 46.8178 47.5618 47.0326 47.0092 46.0358C46.3986 44.9354 47.6431 42.9224 47.317 41.7069C47.0228 40.6066 44.9798 39.6746 44.9992 38.5355C45.0205 37.2774 47.105 36.1568 47.4312 34.9403C47.7254 33.8399 46.4228 32.0128 47.0092 31.0353C47.6567 29.9562 50.0229 30.0289 50.9122 29.1385C51.7184 28.3324 51.5036 26.0978 52.4994 25.5452C53.5997 24.9345 55.6137 26.179 56.8292 25.8539C57.9296 25.5587 58.8615 23.5167 59.9996 23.536C61.2577 23.5573 62.3794 25.642 63.5949 25.9672C64.6952 26.2623 66.5234 24.9597 67.4999 25.5452C68.5789 26.1936 68.5073 28.5589 69.3977 29.4492C70.2028 30.2544 72.4374 30.0395 72.99 31.0363C73.6017 32.1366 72.3561 34.1496 72.6823 35.3651C72.9765 36.4655 75.0194 37.3974 75.0001 38.5355C74.9788 39.7936 72.8942 40.9163 72.5681 42.1318C72.2739 43.2312 73.5765 45.0593 72.99 46.0358C72.3426 47.1158 69.9764 47.0443 69.087 47.9336C68.2818 48.7398 68.4957 50.9734 67.4999 51.527Z" fill="#F19924"/>
<path d="M59.9995 49.665C66.1461 49.665 71.1289 44.6822 71.1289 38.5356C71.1289 32.389 66.1461 27.4062 59.9995 27.4062C53.8529 27.4062 48.8701 32.389 48.8701 38.5356C48.8701 44.6822 53.8529 49.665 59.9995 49.665Z" fill="#F8B84E"/>
<path d="M55.1529 36.1104C55.039 36.112 54.9293 36.1538 54.8432 36.2284L54.8393 36.2323C54.8289 36.2419 54.8189 36.2518 54.8093 36.2623C54.749 36.321 54.705 36.3945 54.6817 36.4755C54.6585 36.5565 54.6568 36.6421 54.6768 36.724V40.4721C54.6768 40.6005 54.7277 40.7236 54.8185 40.8143C54.9092 40.905 55.0323 40.956 55.1606 40.956C55.289 40.956 55.4121 40.905 55.5028 40.8143C55.5935 40.7236 55.6445 40.6005 55.6445 40.4721V39.0273H56.6046C56.7329 39.0273 56.856 38.9762 56.9467 38.8855C57.0375 38.7947 57.0884 38.6717 57.0884 38.5434C57.0884 38.415 57.0375 38.2919 56.9467 38.2012C56.856 38.1104 56.7329 38.0595 56.6046 38.0595H55.6445V37.0917H57.0884C57.2168 37.0917 57.3399 37.0407 57.4306 36.9499C57.5213 36.8592 57.5723 36.7362 57.5723 36.6078C57.5723 36.4795 57.5213 36.3564 57.4306 36.2656C57.3399 36.1749 57.2168 36.1239 57.0884 36.1239H55.27C55.2319 36.1151 55.1929 36.1108 55.1539 36.1114L55.1529 36.1104ZM59.024 36.1104C58.9101 36.112 58.8004 36.1538 58.7143 36.2284L58.7104 36.2323C58.7 36.2419 58.69 36.2518 58.6804 36.2623C58.6201 36.321 58.5761 36.3945 58.5528 36.4755C58.5296 36.5565 58.5278 36.6421 58.5478 36.724V40.4721C58.5478 40.6005 58.5988 40.7236 58.6896 40.8143C58.7803 40.905 58.9034 40.956 59.0317 40.956C59.1601 40.956 59.2831 40.905 59.3739 40.8143C59.4646 40.7236 59.5156 40.6005 59.5156 40.4721V39.0273H60.4776C60.6059 39.0273 60.729 38.9762 60.8197 38.8855C60.9105 38.7947 60.9615 38.6717 60.9615 38.5434C60.9615 38.415 60.9105 38.2919 60.8197 38.2012C60.729 38.1104 60.6059 38.0595 60.4776 38.0595H59.5156V37.0917H60.9595C61.0879 37.0917 61.2109 37.0407 61.3017 36.9499C61.3924 36.8592 61.4434 36.7362 61.4434 36.6078C61.4434 36.4795 61.3924 36.3564 61.3017 36.2656C61.2109 36.1749 61.0879 36.1239 60.9595 36.1239H59.1411C59.103 36.1151 59.064 36.1108 59.025 36.1114L59.024 36.1104ZM62.8951 36.1104C62.7812 36.112 62.6715 36.1538 62.5854 36.2284L62.5815 36.2323C62.5711 36.2419 62.5611 36.2518 62.5515 36.2623C62.4911 36.321 62.4472 36.3945 62.4239 36.4755C62.4007 36.5565 62.3989 36.6421 62.4189 36.724V40.3657C62.4017 40.4373 62.401 40.5118 62.417 40.5838C62.4329 40.6557 62.4651 40.723 62.511 40.7806C62.557 40.8382 62.6154 40.8846 62.682 40.9161C62.7485 40.9477 62.8214 40.9637 62.8951 40.9628H64.8306C64.9589 40.9628 65.082 40.9118 65.1728 40.821C65.2635 40.7303 65.3145 40.6072 65.3145 40.4789C65.3145 40.3506 65.2635 40.2275 65.1728 40.1367C65.082 40.046 64.9589 39.995 64.8306 39.995H63.3867V39.0273H64.3467C64.4751 39.0273 64.5981 38.9762 64.6889 38.8855C64.7796 38.7947 64.8306 38.6717 64.8306 38.5434C64.8306 38.415 64.7796 38.2919 64.6889 38.2012C64.5981 38.1104 64.4751 38.0595 64.3467 38.0595H63.3867V37.0917H64.8306C64.9589 37.0917 65.082 37.0407 65.1728 36.9499C65.2635 36.8592 65.3145 36.7362 65.3145 36.6078C65.3145 36.4795 65.2635 36.3564 65.1728 36.2656C65.082 36.1749 64.9589 36.1239 64.8306 36.1239H63.0122C62.9741 36.1151 62.9351 36.1108 62.896 36.1114L62.8951 36.1104ZM66.7662 36.1104C66.677 36.1118 66.5899 36.1378 66.5146 36.1857C66.4392 36.2335 66.3786 36.3012 66.3394 36.3814C66.2901 36.4749 66.2727 36.5819 66.29 36.6862V38.4669C66.2817 38.5182 66.2817 38.5705 66.29 38.6218V40.4721C66.29 40.6005 66.341 40.7236 66.4317 40.8143C66.5225 40.905 66.6456 40.956 66.7739 40.956C66.9022 40.956 67.0253 40.905 67.1161 40.8143C67.2068 40.7236 67.2578 40.6005 67.2578 40.4721V39.7114L68.361 40.8157C68.4518 40.9065 68.5749 40.9576 68.7033 40.9577C68.8317 40.9578 68.9549 40.9069 69.0457 40.8161C69.1366 40.7254 69.1877 40.6023 69.1878 40.4739C69.1879 40.3455 69.137 40.2223 69.0462 40.1315L67.9217 39.0088C68.2711 38.9645 68.5927 38.795 68.8265 38.5316C69.0604 38.2681 69.1907 37.9288 69.1933 37.5765C69.1933 36.7801 68.5372 36.1249 67.7417 36.1249H66.8833C66.8452 36.1157 66.8062 36.1112 66.7671 36.1114L66.7662 36.1104ZM52.2573 36.1239C51.4531 36.1239 50.8057 36.8023 50.8057 37.6085V39.4772C50.8057 40.2834 51.4531 40.9628 52.2573 40.9628C53.0615 40.9628 53.709 40.2834 53.709 39.4772V37.6085C53.709 36.8023 53.0615 36.1239 52.2573 36.1239ZM52.2573 37.0917C52.5254 37.0917 52.7412 37.3046 52.7412 37.6085V39.4772C52.7412 39.7811 52.5254 39.995 52.2573 39.995C51.9892 39.995 51.7734 39.7811 51.7734 39.4772V37.6085C51.7734 37.3046 51.9892 37.0917 52.2573 37.0917ZM67.2578 37.0917H67.7417C68.0185 37.0917 68.2256 37.2998 68.2256 37.5756C68.2256 37.8524 68.0185 38.0595 67.7417 38.0595H67.2578V37.0917Z" fill="#E9EDED"/>
<path d="M107.004 20.5251V33.616H105.189L98.5348 24.0151H98.4134V33.616H96.4382V20.5251H98.2663L104.927 30.1387H105.048V20.5251H107.004ZM113.964 33.8141C112.996 33.8141 112.163 33.6074 111.464 33.1941C110.77 32.7765 110.233 32.1905 109.854 31.4363C109.479 30.6778 109.291 29.7893 109.291 28.7708C109.291 27.7651 109.479 26.8788 109.854 26.1117C110.233 25.3447 110.761 24.7459 111.439 24.3155C112.121 23.8851 112.917 23.6699 113.829 23.6699C114.383 23.6699 114.92 23.7616 115.44 23.9448C115.96 24.128 116.427 24.4157 116.84 24.8077C117.253 25.1998 117.579 25.709 117.818 26.3354C118.057 26.9576 118.176 27.714 118.176 28.6046V29.2822H110.371V27.8503H116.303C116.303 27.3475 116.201 26.9022 115.996 26.5144C115.792 26.1224 115.504 25.8134 115.133 25.5876C114.767 25.3617 114.336 25.2488 113.842 25.2488C113.305 25.2488 112.836 25.3809 112.436 25.6451C112.04 25.905 111.733 26.2459 111.515 26.6678C111.302 27.0854 111.196 27.5393 111.196 28.0293V29.1479C111.196 29.8042 111.311 30.3624 111.541 30.8226C111.775 31.2829 112.101 31.6344 112.519 31.8773C112.937 32.116 113.425 32.2353 113.983 32.2353C114.345 32.2353 114.675 32.1841 114.974 32.0819C115.272 31.9753 115.53 31.8177 115.747 31.6089C115.964 31.4001 116.131 31.1422 116.246 30.8354L118.055 31.1614C117.91 31.6941 117.65 32.1607 117.275 32.5613C116.904 32.9576 116.437 33.2665 115.875 33.4881C115.317 33.7055 114.68 33.8141 113.964 33.8141ZM122.407 33.616L119.518 23.7978H121.493L123.417 31.008H123.513L125.444 23.7978H127.419L129.336 30.9761H129.432L131.344 23.7978H133.319L130.436 33.616H128.486L126.492 26.5272H126.345L124.351 33.616H122.407ZM140.05 33.616V20.5251H148.167V22.2253H142.025V26.214H147.586V27.9079H142.025V33.616H140.05ZM156.047 29.5442V23.7978H157.965V33.616H156.086V31.9157H155.983C155.757 32.4398 155.395 32.8766 154.897 33.2261C154.402 33.5712 153.787 33.7438 153.049 33.7438C152.419 33.7438 151.86 33.6053 151.375 33.3283C150.893 33.0471 150.514 32.6316 150.237 32.0819C149.964 31.5322 149.828 30.8525 149.828 30.0428V23.7978H151.739V29.8127C151.739 30.4817 151.924 31.0144 152.295 31.4107C152.666 31.807 153.147 32.0052 153.74 32.0052C154.098 32.0052 154.453 31.9157 154.807 31.7367C155.165 31.5577 155.461 31.2871 155.696 30.9249C155.934 30.5627 156.051 30.1025 156.047 29.5442ZM162.444 27.7864V33.616H160.533V23.7978H162.367V25.3958H162.489C162.715 24.8759 163.068 24.4583 163.55 24.143C164.036 23.8276 164.647 23.6699 165.384 23.6699C166.053 23.6699 166.639 23.8106 167.142 24.0918C167.645 24.3688 168.035 24.7822 168.312 25.3319C168.589 25.8816 168.727 26.5613 168.727 27.3709V33.616H166.816V27.6011C166.816 26.8894 166.631 26.3333 166.26 25.9327C165.889 25.5279 165.38 25.3255 164.732 25.3255C164.289 25.3255 163.895 25.4214 163.55 25.6131C163.209 25.8049 162.938 26.0861 162.738 26.4569C162.542 26.8234 162.444 27.2665 162.444 27.7864ZM174.966 33.8077C174.173 33.8077 173.466 33.6053 172.844 33.2005C172.226 32.7914 171.74 32.2097 171.387 31.4555C171.037 30.6969 170.862 29.7871 170.862 28.7261C170.862 27.665 171.039 26.7573 171.393 26.003C171.751 25.2488 172.241 24.6714 172.863 24.2708C173.485 23.8702 174.191 23.6699 174.979 23.6699C175.588 23.6699 176.078 23.7722 176.449 23.9768C176.824 24.177 177.114 24.4114 177.318 24.6799C177.527 24.9484 177.689 25.1849 177.804 25.3894H177.919V20.5251H179.83V33.616H177.964V32.0883H177.804C177.689 32.2971 177.523 32.5357 177.306 32.8042C177.093 33.0726 176.798 33.307 176.423 33.5073C176.048 33.7076 175.563 33.8077 174.966 33.8077ZM175.388 32.1778C175.938 32.1778 176.402 32.0329 176.781 31.7431C177.165 31.4491 177.455 31.0421 177.651 30.5222C177.851 30.0023 177.951 29.3972 177.951 28.7069C177.951 28.0251 177.853 27.4285 177.657 26.9171C177.461 26.4057 177.173 26.0073 176.794 25.7218C176.415 25.4363 175.946 25.2935 175.388 25.2935C174.813 25.2935 174.333 25.4427 173.95 25.741C173.566 26.0393 173.276 26.4462 173.08 26.9618C172.889 27.4775 172.793 28.0591 172.793 28.7069C172.793 29.3631 172.891 29.9533 173.087 30.4775C173.283 31.0016 173.573 31.4171 173.956 31.7239C174.344 32.0265 174.821 32.1778 175.388 32.1778ZM189.915 26.1948L188.183 26.5016C188.111 26.28 187.996 26.0691 187.838 25.8688C187.685 25.6685 187.476 25.5045 187.212 25.3766C186.947 25.2488 186.617 25.1849 186.221 25.1849C185.68 25.1849 185.228 25.3063 184.866 25.5492C184.504 25.7878 184.322 26.0968 184.322 26.4761C184.322 26.8042 184.444 27.0684 184.687 27.2687C184.93 27.4689 185.322 27.633 185.863 27.7609L187.423 28.1188C188.326 28.3276 188.999 28.6493 189.442 29.084C189.886 29.5187 190.107 30.0833 190.107 30.7779C190.107 31.366 189.937 31.8901 189.596 32.3503C189.259 32.8063 188.788 33.1643 188.183 33.4242C187.582 33.6841 186.886 33.8141 186.093 33.8141C184.994 33.8141 184.097 33.5797 183.402 33.111C182.707 32.638 182.281 31.9668 182.124 31.0975L183.971 30.8163C184.086 31.2978 184.322 31.6621 184.68 31.9093C185.038 32.1522 185.505 32.2736 186.08 32.2736C186.707 32.2736 187.207 32.1437 187.582 31.8837C187.957 31.6195 188.145 31.2978 188.145 30.9185C188.145 30.6117 188.03 30.3539 187.8 30.1451C187.574 29.9363 187.227 29.7786 186.758 29.6721L185.096 29.3077C184.18 29.0989 183.502 28.7665 183.063 28.3106C182.629 27.8546 182.411 27.2772 182.411 26.5783C182.411 25.9988 182.573 25.4917 182.897 25.057C183.221 24.6224 183.668 24.2836 184.239 24.0407C184.81 23.7935 185.464 23.6699 186.202 23.6699C187.263 23.6699 188.098 23.9001 188.707 24.3603C189.317 24.8163 189.719 25.4278 189.915 26.1948ZM208.497 27.0705C208.497 28.4682 208.241 29.6699 207.73 30.6756C207.219 31.677 206.518 32.4484 205.627 32.9895C204.741 33.5265 203.733 33.7949 202.604 33.7949C201.47 33.7949 200.458 33.5265 199.567 32.9895C198.681 32.4484 197.982 31.6749 197.471 30.6692C196.96 29.6636 196.704 28.464 196.704 27.0705C196.704 25.6728 196.96 24.4732 197.471 23.4718C197.982 22.4661 198.681 21.6948 199.567 21.1579C200.458 20.6167 201.47 20.3461 202.604 20.3461C203.733 20.3461 204.741 20.6167 205.627 21.1579C206.518 21.6948 207.219 22.4661 207.73 23.4718C208.241 24.4732 208.497 25.6728 208.497 27.0705ZM206.541 27.0705C206.541 26.0052 206.369 25.1082 206.023 24.3795C205.683 23.6465 205.214 23.0925 204.617 22.7175C204.025 22.3383 203.354 22.1486 202.604 22.1486C201.849 22.1486 201.176 22.3383 200.584 22.7175C199.991 23.0925 199.523 23.6465 199.178 24.3795C198.837 25.1082 198.666 26.0052 198.666 27.0705C198.666 28.1359 198.837 29.035 199.178 29.768C199.523 30.4966 199.991 31.0506 200.584 31.4299C201.176 31.8049 201.849 31.9924 202.604 31.9924C203.354 31.9924 204.025 31.8049 204.617 31.4299C205.214 31.0506 205.683 30.4966 206.023 29.768C206.369 29.035 206.541 28.1359 206.541 27.0705ZM215.479 23.7978V25.3319H209.931V23.7978H215.479ZM211.452 33.616V22.66C211.452 22.0464 211.586 21.5371 211.855 21.1323C212.123 20.7232 212.479 20.4185 212.922 20.2182C213.365 20.0137 213.847 19.9114 214.367 19.9114C214.75 19.9114 215.078 19.9434 215.351 20.0073C215.624 20.067 215.826 20.1224 215.958 20.1735L215.511 21.7204C215.421 21.6948 215.306 21.665 215.166 21.6309C215.025 21.5925 214.855 21.5734 214.654 21.5734C214.19 21.5734 213.857 21.6884 213.657 21.9185C213.461 22.1486 213.363 22.481 213.363 22.9157V33.616H211.452ZM222.123 23.7978V25.3319H216.575V23.7978H222.123ZM218.096 33.616V22.66C218.096 22.0464 218.231 21.5371 218.499 21.1323C218.768 20.7232 219.123 20.4185 219.567 20.2182C220.01 20.0137 220.491 19.9114 221.011 19.9114C221.395 19.9114 221.723 19.9434 221.996 20.0073C222.268 20.067 222.471 20.1224 222.603 20.1735L222.155 21.7204C222.066 21.6948 221.951 21.665 221.81 21.6309C221.67 21.5925 221.499 21.5734 221.299 21.5734C220.834 21.5734 220.502 21.6884 220.302 21.9185C220.106 22.1486 220.008 22.481 220.008 22.9157V33.616H218.096ZM227.94 33.8141C226.973 33.8141 226.14 33.6074 225.441 33.1941C224.746 32.7765 224.209 32.1905 223.83 31.4363C223.455 30.6778 223.268 29.7893 223.268 28.7708C223.268 27.7651 223.455 26.8788 223.83 26.1117C224.209 25.3447 224.738 24.7459 225.415 24.3155C226.097 23.8851 226.894 23.6699 227.806 23.6699C228.36 23.6699 228.897 23.7616 229.417 23.9448C229.937 24.128 230.403 24.4157 230.817 24.8077C231.23 25.1998 231.556 25.709 231.795 26.3354C232.033 26.9576 232.153 27.714 232.153 28.6046V29.2822H224.348V27.8503H230.28C230.28 27.3475 230.177 26.9022 229.973 26.5144C229.768 26.1224 229.481 25.8134 229.11 25.5876C228.743 25.3617 228.313 25.2488 227.819 25.2488C227.282 25.2488 226.813 25.3809 226.412 25.6451C226.016 25.905 225.709 26.2459 225.492 26.6678C225.279 27.0854 225.172 27.5393 225.172 28.0293V29.1479C225.172 29.8042 225.287 30.3624 225.518 30.8226C225.752 31.2829 226.078 31.6344 226.496 31.8773C226.913 32.116 227.401 32.2353 227.959 32.2353C228.322 32.2353 228.652 32.1841 228.95 32.0819C229.248 31.9753 229.506 31.8177 229.724 31.6089C229.941 31.4001 230.107 31.1422 230.222 30.8354L232.031 31.1614C231.886 31.6941 231.626 32.1607 231.251 32.5613C230.881 32.9576 230.414 33.2665 229.851 33.4881C229.293 33.7055 228.656 33.8141 227.94 33.8141ZM234.273 33.616V23.7978H236.12V25.3574H236.223C236.402 24.829 236.717 24.4136 237.169 24.111C237.625 23.8042 238.14 23.6508 238.716 23.6508C238.835 23.6508 238.975 23.655 239.137 23.6636C239.304 23.6721 239.434 23.6827 239.527 23.6955V25.5236C239.451 25.5023 239.314 25.4789 239.118 25.4533C238.922 25.4235 238.726 25.4086 238.53 25.4086C238.078 25.4086 237.676 25.5045 237.322 25.6962C236.973 25.8837 236.696 26.1458 236.491 26.4824C236.287 26.8148 236.184 27.1941 236.184 27.6202V33.616H234.273Z" fill="#212121"/>
<path d="M97.6932 50.8887L97.1989 53.8887H96.2614L96.7557 50.8887H97.6932ZM99.875 50.8887L99.3807 53.8887H98.4432L98.9375 50.8887H99.875ZM103.078 59.616H100.351L101.8 50.8887H104.578C105.425 50.8887 106.123 51.0663 106.671 51.4214C107.222 51.7765 107.605 52.2836 107.821 52.9427C108.04 53.6018 108.073 54.3887 107.919 55.3035C107.772 56.2012 107.485 56.9725 107.059 57.6174C106.635 58.2594 106.087 58.7538 105.414 59.1003C104.743 59.4441 103.965 59.616 103.078 59.616ZM101.566 58.6785H103.113C103.834 58.6785 104.456 58.5364 104.979 58.2523C105.505 57.9682 105.928 57.5634 106.249 57.0378C106.573 56.5123 106.794 55.8887 106.914 55.1671C107.033 54.4739 107.022 53.8788 106.88 53.3816C106.74 52.8816 106.466 52.4981 106.057 52.231C105.651 51.9611 105.107 51.8262 104.425 51.8262H102.699L101.566 58.6785ZM111.542 59.7523C110.939 59.7523 110.435 59.6089 110.029 59.3219C109.623 59.035 109.336 58.633 109.168 58.116C109.003 57.5989 108.976 56.9966 109.087 56.3091C109.195 55.6387 109.409 55.0549 109.73 54.5577C110.054 54.0577 110.456 53.6714 110.936 53.3986C111.419 53.1231 111.951 52.9853 112.53 52.9853C113.132 52.9853 113.635 53.1302 114.039 53.4199C114.445 53.7069 114.732 54.1103 114.9 54.6302C115.067 55.1472 115.096 55.7523 114.985 56.4455C114.877 57.1103 114.659 57.6913 114.333 58.1884C114.009 58.6827 113.607 59.0677 113.127 59.3432C112.65 59.616 112.121 59.7523 111.542 59.7523ZM111.559 58.8489C112.019 58.8489 112.418 58.731 112.756 58.4952C113.097 58.2594 113.373 57.9484 113.583 57.562C113.796 57.1756 113.939 56.758 114.013 56.3091C114.081 55.883 114.078 55.4867 114.005 55.1202C113.931 54.7509 113.773 54.454 113.532 54.2296C113.29 54.0023 112.951 53.8887 112.513 53.8887C112.053 53.8887 111.651 54.008 111.307 54.2466C110.966 54.4853 110.691 54.7992 110.48 55.1884C110.27 55.5776 110.13 55.9966 110.059 56.4455C109.99 56.8716 109.992 57.268 110.063 57.6344C110.137 57.9981 110.294 58.2921 110.536 58.5165C110.78 58.7381 111.121 58.8489 111.559 58.8489ZM117.653 55.6785L117.006 59.616H116L117.091 53.0705H118.062L117.892 54.0932H117.977C118.182 53.7609 118.459 53.4938 118.808 53.2921C119.158 53.0876 119.58 52.9853 120.074 52.9853C120.511 52.9853 120.881 53.0762 121.182 53.258C121.486 53.437 121.7 53.7097 121.825 54.0762C121.953 54.4398 121.972 54.9001 121.881 55.4569L121.182 59.616H120.176L120.858 55.5251C120.943 55.0137 120.876 54.6131 120.658 54.3234C120.442 54.0336 120.099 53.8887 119.631 53.8887C119.307 53.8887 119.007 53.9583 118.732 54.0975C118.459 54.2367 118.227 54.4398 118.037 54.7069C117.849 54.9739 117.722 55.2978 117.653 55.6785ZM125.355 50.8887L125.235 51.6557C125.199 51.8887 125.115 52.1373 124.984 52.4015C124.856 52.6628 124.691 52.9171 124.49 53.1643C124.288 53.4086 124.059 53.6216 123.804 53.8035L123.326 53.3603C123.548 53.1046 123.745 52.839 123.919 52.5634C124.095 52.285 124.21 51.9881 124.264 51.6728L124.4 50.8887H125.355ZM129.359 53.0705L129.223 53.9228H125.831L125.967 53.0705H129.359ZM127.212 51.5023H128.217L127.178 57.741C127.132 58.0251 127.139 58.2381 127.199 58.3802C127.261 58.5194 127.355 58.6131 127.48 58.6614C127.608 58.7069 127.746 58.7296 127.893 58.7296C128.004 58.7296 128.095 58.7239 128.166 58.7126C128.237 58.6984 128.294 58.687 128.337 58.6785L128.405 59.5819C128.328 59.6074 128.224 59.633 128.094 59.6586C127.966 59.687 127.808 59.7012 127.621 59.7012C127.337 59.7012 127.07 59.6401 126.82 59.518C126.57 59.3958 126.378 59.2097 126.244 58.9597C126.111 58.7097 126.075 58.3944 126.138 58.0137L127.212 51.5023ZM134.741 50.8887H136.003L137.776 58.133H137.878L142.037 50.8887H143.298L141.849 59.616H140.861L141.969 52.9853H141.884L138.048 59.616H137.094L135.474 52.9853H135.389L134.281 59.616H133.293L134.741 50.8887ZM143.832 59.616L144.923 53.0705H145.929L144.838 59.616H143.832ZM145.733 51.9626C145.537 51.9626 145.368 51.8958 145.225 51.7623C145.086 51.6288 145.017 51.4682 145.017 51.2807C145.017 51.0932 145.086 50.9327 145.225 50.7992C145.368 50.6657 145.537 50.5989 145.733 50.5989C145.929 50.5989 146.096 50.6657 146.235 50.7992C146.377 50.9327 146.449 51.0932 146.449 51.2807C146.449 51.4682 146.377 51.6288 146.235 51.7623C146.096 51.8958 145.929 51.9626 145.733 51.9626ZM152.168 54.5364L151.214 54.7921C151.18 54.6387 151.12 54.491 151.035 54.3489C150.952 54.204 150.825 54.0861 150.651 53.9952C150.481 53.9015 150.248 53.8546 149.952 53.8546C149.552 53.8546 149.204 53.9469 148.908 54.1316C148.613 54.3134 148.444 54.5449 148.401 54.8262C148.359 55.0734 148.415 55.2708 148.572 55.4185C148.728 55.5663 148.989 55.687 149.356 55.7807L150.293 56.0194C150.856 56.1643 151.256 56.3816 151.495 56.6714C151.737 56.9583 151.819 57.3319 151.742 57.7921C151.68 58.1671 151.516 58.5023 151.252 58.7978C150.988 59.0932 150.65 59.3262 150.238 59.4966C149.826 59.6671 149.367 59.7523 148.862 59.7523C148.188 59.7523 147.657 59.6074 147.268 59.3177C146.879 59.0251 146.671 58.6018 146.646 58.0478L147.651 57.8091C147.677 58.1586 147.802 58.4228 148.026 58.6018C148.254 58.7779 148.572 58.866 148.981 58.866C149.45 58.866 149.84 58.7665 150.153 58.5677C150.465 58.366 150.643 58.1245 150.685 57.8432C150.728 57.6131 150.683 57.4214 150.549 57.268C150.418 57.1145 150.191 56.9995 149.867 56.9228L148.827 56.6671C148.248 56.5222 147.842 56.3006 147.609 56.0023C147.379 55.704 147.302 55.329 147.379 54.8773C147.441 54.508 147.6 54.1813 147.856 53.8972C148.114 53.6131 148.438 53.3901 148.827 53.2282C149.219 53.0663 149.646 52.9853 150.106 52.9853C150.754 52.9853 151.238 53.1273 151.559 53.4114C151.88 53.6927 152.083 54.0677 152.168 54.5364ZM158.438 54.5364L157.483 54.7921C157.449 54.6387 157.39 54.491 157.304 54.3489C157.222 54.204 157.094 54.0861 156.921 53.9952C156.75 53.9015 156.517 53.8546 156.222 53.8546C155.821 53.8546 155.473 53.9469 155.178 54.1316C154.882 54.3134 154.713 54.5449 154.671 54.8262C154.628 55.0734 154.685 55.2708 154.841 55.4185C154.998 55.5663 155.259 55.687 155.625 55.7807L156.563 56.0194C157.125 56.1643 157.526 56.3816 157.765 56.6714C158.006 56.9583 158.088 57.3319 158.012 57.7921C157.949 58.1671 157.786 58.5023 157.522 58.7978C157.257 59.0932 156.919 59.3262 156.507 59.4966C156.096 59.6671 155.637 59.7523 155.131 59.7523C154.458 59.7523 153.926 59.6074 153.537 59.3177C153.148 59.0251 152.941 58.6018 152.915 58.0478L153.921 57.8091C153.946 58.1586 154.071 58.4228 154.296 58.6018C154.523 58.7779 154.841 58.866 155.25 58.866C155.719 58.866 156.11 58.7665 156.422 58.5677C156.735 58.366 156.912 58.1245 156.955 57.8432C156.998 57.6131 156.952 57.4214 156.819 57.268C156.688 57.1145 156.461 56.9995 156.137 56.9228L155.097 56.6671C154.517 56.5222 154.111 56.3006 153.878 56.0023C153.648 55.704 153.571 55.329 153.648 54.8773C153.711 54.508 153.87 54.1813 154.125 53.8972C154.384 53.6131 154.708 53.3901 155.097 53.2282C155.489 53.0663 155.915 52.9853 156.375 52.9853C157.023 52.9853 157.507 53.1273 157.828 53.4114C158.15 53.6927 158.353 54.0677 158.438 54.5364ZM170.81 55.3205C170.656 56.2296 170.362 57.0151 169.928 57.677C169.493 58.3361 168.962 58.8447 168.334 59.2026C167.706 59.5577 167.026 59.7353 166.293 59.7353C165.537 59.7353 164.893 59.5506 164.362 59.1813C163.834 58.8091 163.456 58.2836 163.229 57.6046C163.004 56.9228 162.969 56.116 163.122 55.1841C163.276 54.2751 163.57 53.491 164.004 52.8319C164.439 52.1699 164.972 51.6614 165.602 51.3063C166.233 50.9484 166.918 50.7694 167.656 50.7694C168.406 50.7694 169.044 50.9555 169.57 51.3276C170.098 51.6969 170.474 52.2225 170.699 52.9043C170.926 53.5833 170.963 54.3887 170.81 55.3205ZM169.804 55.1841C169.929 54.4398 169.911 53.8134 169.749 53.3049C169.587 52.7964 169.318 52.4114 168.943 52.1501C168.568 51.8887 168.122 51.758 167.605 51.758C167.065 51.758 166.554 51.8958 166.071 52.1714C165.588 52.4441 165.175 52.8461 164.831 53.3773C164.487 53.9057 164.253 54.5535 164.128 55.3205C164.003 56.0648 164.021 56.6913 164.183 57.1998C164.345 57.7083 164.614 58.0932 164.989 58.3546C165.364 58.616 165.81 58.7466 166.327 58.7466C166.866 58.7466 167.378 58.6103 167.861 58.3376C168.344 58.062 168.757 57.66 169.101 57.1316C169.445 56.6003 169.679 55.9512 169.804 55.1841ZM176.303 56.9398L176.95 53.0705H177.956L176.865 59.616H175.859L176.047 58.508H175.979C175.774 58.8404 175.489 59.1231 175.122 59.356C174.756 59.5861 174.325 59.7012 173.831 59.7012C173.422 59.7012 173.072 59.6117 172.783 59.4327C172.496 59.2509 172.291 58.9782 172.169 58.6145C172.05 58.2481 172.036 57.7864 172.126 57.2296L172.825 53.0705H173.831L173.149 57.1614C173.072 57.6387 173.145 58.0194 173.366 58.3035C173.588 58.5876 173.908 58.7296 174.325 58.7296C174.575 58.7296 174.839 58.6657 175.118 58.5378C175.399 58.41 175.649 58.214 175.868 57.9498C176.089 57.6856 176.234 57.3489 176.303 56.9398ZM182.645 53.0705L182.508 53.9228H179.116L179.252 53.0705H182.645ZM180.497 51.5023H181.502L180.463 57.741C180.417 58.0251 180.424 58.2381 180.484 58.3802C180.547 58.5194 180.64 58.6131 180.765 58.6614C180.893 58.7069 181.031 58.7296 181.179 58.7296C181.289 58.7296 181.38 58.7239 181.451 58.7126C181.522 58.6984 181.579 58.687 181.622 58.6785L181.69 59.5819C181.613 59.6074 181.51 59.633 181.379 59.6586C181.251 59.687 181.093 59.7012 180.906 59.7012C180.622 59.7012 180.355 59.6401 180.105 59.518C179.855 59.3958 179.663 59.2097 179.529 58.9597C179.396 58.7097 179.36 58.3944 179.423 58.0137L180.497 51.5023ZM185.845 50.8887L184.72 57.1614H183.731L184.686 50.8887H185.845ZM183.936 59.6841C183.72 59.6841 183.539 59.6103 183.395 59.4626C183.25 59.312 183.174 59.1302 183.169 58.9171C183.166 58.704 183.241 58.5265 183.395 58.3844C183.548 58.2395 183.728 58.1671 183.936 58.1671C184.146 58.1671 184.328 58.241 184.481 58.3887C184.635 58.5364 184.708 58.7126 184.703 58.9171C184.7 59.0591 184.663 59.1884 184.592 59.3049C184.524 59.4214 184.431 59.5137 184.315 59.5819C184.201 59.6501 184.075 59.6841 183.936 59.6841ZM189.918 59.616L191.366 50.8887H196.634L196.48 51.8262H192.27L191.776 54.7751H195.713L195.56 55.7126H191.622L191.128 58.6785H195.406L195.253 59.616H189.918ZM198.794 53.0705L199.919 55.7466L201.93 53.0705H203.089L200.43 56.3432L201.999 59.616H200.839L199.697 57.0762L197.703 59.616H196.544L199.169 56.3432L197.635 53.0705H198.794ZM203.025 62.0705L204.533 53.0705H205.505L205.334 54.1103H205.453C205.544 53.9966 205.669 53.8518 205.828 53.6756C205.99 53.4966 206.208 53.3376 206.48 53.1984C206.756 53.0563 207.107 52.9853 207.533 52.9853C208.084 52.9853 208.546 53.1231 208.918 53.3986C209.29 53.6742 209.553 54.0648 209.706 54.5705C209.86 55.0762 209.88 55.6728 209.766 56.3603C209.652 57.0535 209.435 57.6543 209.114 58.1628C208.793 58.6685 208.401 59.0606 207.938 59.339C207.475 59.6145 206.971 59.7523 206.425 59.7523C206.005 59.7523 205.679 59.6827 205.449 59.5435C205.219 59.4015 205.051 59.241 204.946 59.062C204.841 58.8802 204.76 58.7296 204.703 58.6103H204.618L204.039 62.0705H203.025ZM204.976 56.3432C204.897 56.8376 204.897 57.2736 204.976 57.6515C205.059 58.0265 205.222 58.3205 205.466 58.5336C205.713 58.7438 206.039 58.8489 206.442 58.8489C206.863 58.8489 207.23 58.7381 207.546 58.5165C207.864 58.2921 208.125 57.991 208.33 57.6131C208.537 57.2324 208.681 56.8091 208.76 56.3432C208.834 55.883 208.831 55.4682 208.752 55.0989C208.672 54.7268 208.51 54.4327 208.266 54.2168C208.022 53.9981 207.686 53.8887 207.26 53.8887C206.851 53.8887 206.489 53.9924 206.174 54.1998C205.861 54.4043 205.603 54.6913 205.398 55.0606C205.196 55.427 205.056 55.8546 204.976 56.3432ZM213.212 50.8887L211.763 59.616H210.758L212.207 50.8887H213.212ZM216.307 59.7523C215.705 59.7523 215.201 59.6089 214.794 59.3219C214.388 59.035 214.101 58.633 213.934 58.116C213.769 57.5989 213.742 56.9966 213.853 56.3091C213.961 55.6387 214.175 55.0549 214.496 54.5577C214.82 54.0577 215.222 53.6714 215.702 53.3986C216.185 53.1231 216.716 52.9853 217.296 52.9853C217.898 52.9853 218.401 53.1302 218.804 53.4199C219.211 53.7069 219.498 54.1103 219.665 54.6302C219.833 55.1472 219.861 55.7523 219.75 56.4455C219.642 57.1103 219.425 57.6913 219.098 58.1884C218.775 58.6827 218.373 59.0677 217.892 59.3432C217.415 59.616 216.887 59.7523 216.307 59.7523ZM216.324 58.8489C216.784 58.8489 217.184 58.731 217.522 58.4952C217.863 58.2594 218.138 57.9484 218.348 57.562C218.561 57.1756 218.705 56.758 218.779 56.3091C218.847 55.883 218.844 55.4867 218.77 55.1202C218.696 54.7509 218.539 54.454 218.297 54.2296C218.056 54.0023 217.716 53.8887 217.279 53.8887C216.819 53.8887 216.417 54.008 216.073 54.2466C215.732 54.4853 215.456 54.7992 215.246 55.1884C215.036 55.5776 214.895 55.9966 214.824 56.4455C214.756 56.8716 214.757 57.268 214.828 57.6344C214.902 57.9981 215.06 58.2921 215.301 58.5165C215.546 58.7381 215.887 58.8489 216.324 58.8489ZM220.766 59.616L221.857 53.0705H222.828L222.658 54.0591H222.726C222.896 53.7353 223.156 53.4725 223.506 53.2708C223.855 53.0691 224.226 52.9682 224.618 52.9682C224.695 52.9682 224.787 52.9697 224.895 52.9725C225.003 52.9725 225.087 52.9768 225.146 52.9853L224.976 54.008C224.942 53.9995 224.865 53.9867 224.746 53.9697C224.626 53.9498 224.499 53.9398 224.362 53.9398C224.044 53.9398 223.75 54.0066 223.48 54.1401C223.21 54.2708 222.984 54.4526 222.803 54.6856C222.621 54.9157 222.504 55.1785 222.453 55.4739L221.771 59.616H220.766ZM227.782 59.7523C227.154 59.7523 226.636 59.6131 226.227 59.3347C225.817 59.0535 225.532 58.6614 225.37 58.1586C225.208 57.6529 225.183 57.0648 225.293 56.3944C225.404 55.7239 225.624 55.133 225.954 54.6216C226.283 54.1074 226.694 53.7069 227.185 53.4199C227.677 53.1302 228.217 52.9853 228.805 52.9853C229.146 52.9853 229.474 53.0421 229.789 53.1557C230.104 53.2694 230.377 53.454 230.607 53.7097C230.837 53.9626 230.998 54.2978 231.089 54.7154C231.18 55.133 231.174 55.6472 231.072 56.258L231.004 56.6841H225.958L226.094 55.8148H230.117C230.183 55.4455 230.165 55.116 230.066 54.8262C229.969 54.5364 229.8 54.3077 229.559 54.1401C229.32 53.9725 229.018 53.8887 228.651 53.8887C228.273 53.8887 227.921 53.991 227.594 54.1955C227.268 54.3972 226.995 54.6529 226.776 54.9626C226.558 55.2694 226.421 55.5819 226.367 55.9001L226.248 56.6501C226.163 57.1927 226.175 57.6245 226.286 57.9455C226.4 58.2665 226.597 58.4981 226.879 58.6401C227.16 58.7793 227.512 58.8489 227.935 58.8489C228.205 58.8489 228.454 58.812 228.681 58.7381C228.908 58.6614 229.112 58.5478 229.29 58.3972C229.469 58.2438 229.62 58.0535 229.742 57.8262L230.663 58.0989C230.506 58.4285 230.286 58.7182 230.002 58.9682C229.721 59.2154 229.391 59.4086 229.013 59.5478C228.638 59.6841 228.228 59.7523 227.782 59.7523ZM243.653 55.3205C243.5 56.2296 243.206 57.0151 242.771 57.677C242.337 58.3361 241.805 58.8447 241.178 59.2026C240.55 59.5577 239.869 59.7353 239.136 59.7353C238.381 59.7353 237.737 59.5506 237.206 59.1813C236.678 58.8091 236.3 58.2836 236.072 57.6046C235.848 56.9228 235.813 56.116 235.966 55.1841C236.119 54.2751 236.413 53.491 236.848 52.8319C237.283 52.1699 237.815 51.6614 238.446 51.3063C239.077 50.9484 239.761 50.7694 240.5 50.7694C241.25 50.7694 241.888 50.9555 242.413 51.3276C242.942 51.6969 243.318 52.2225 243.543 52.9043C243.77 53.5833 243.807 54.3887 243.653 55.3205ZM242.648 55.1841C242.773 54.4398 242.754 53.8134 242.592 53.3049C242.43 52.7964 242.162 52.4114 241.787 52.1501C241.412 51.8887 240.966 51.758 240.449 51.758C239.909 51.758 239.398 51.8958 238.915 52.1714C238.432 52.4441 238.018 52.8461 237.675 53.3773C237.331 53.9057 237.097 54.5535 236.972 55.3205C236.847 56.0648 236.865 56.6913 237.027 57.1998C237.189 57.7083 237.457 58.0932 237.832 58.3546C238.207 58.616 238.653 58.7466 239.17 58.7466C239.71 58.7466 240.222 58.6103 240.705 58.3376C241.188 58.062 241.601 57.66 241.945 57.1316C242.288 56.6003 242.523 55.9512 242.648 55.1841ZM249.146 56.9398L249.794 53.0705H250.8L249.709 59.616H248.703L248.891 58.508H248.822C248.618 58.8404 248.332 59.1231 247.966 59.356C247.599 59.5861 247.169 59.7012 246.675 59.7012C246.266 59.7012 245.916 59.6117 245.626 59.4327C245.339 59.2509 245.135 58.9782 245.013 58.6145C244.893 58.2481 244.879 57.7864 244.97 57.2296L245.669 53.0705H246.675L245.993 57.1614C245.916 57.6387 245.989 58.0194 246.21 58.3035C246.432 58.5876 246.751 58.7296 247.169 58.7296C247.419 58.7296 247.683 58.6657 247.962 58.5378C248.243 58.41 248.493 58.214 248.712 57.9498C248.933 57.6856 249.078 57.3489 249.146 56.9398ZM251.551 59.616L252.642 53.0705H253.613L253.443 54.0591H253.511C253.681 53.7353 253.941 53.4725 254.291 53.2708C254.64 53.0691 255.011 52.9682 255.403 52.9682C255.48 52.9682 255.572 52.9697 255.68 52.9725C255.788 52.9725 255.872 52.9768 255.931 52.9853L255.761 54.008C255.727 53.9995 255.65 53.9867 255.531 53.9697C255.412 53.9498 255.284 53.9398 255.147 53.9398C254.829 53.9398 254.535 54.0066 254.265 54.1401C253.995 54.2708 253.77 54.4526 253.588 54.6856C253.406 54.9157 253.289 55.1785 253.238 55.4739L252.556 59.616H251.551ZM259.55 59.616L260.999 50.8887H262.056L260.761 58.6785H264.817L264.664 59.616H259.55ZM268.073 59.7694C267.658 59.7694 267.295 59.6913 266.982 59.535C266.67 59.3759 266.438 59.1472 266.288 58.8489C266.137 58.5478 266.096 58.1841 266.164 57.758C266.229 57.383 266.356 57.079 266.543 56.8461C266.731 56.6103 266.958 56.4256 267.225 56.2921C267.495 56.1557 267.785 56.0549 268.094 55.9895C268.407 55.9214 268.718 55.8688 269.028 55.8319C269.431 55.7807 269.759 55.741 270.012 55.7126C270.265 55.6841 270.455 55.6373 270.583 55.5719C270.711 55.5066 270.789 55.3944 270.817 55.2353V55.2012C270.886 54.7836 270.83 54.4583 270.651 54.2253C270.472 53.9895 270.153 53.8716 269.692 53.8716C269.215 53.8716 268.816 53.9768 268.495 54.187C268.174 54.3972 267.937 54.6216 267.783 54.8603L266.897 54.5194C267.13 54.1216 267.408 53.812 267.732 53.5904C268.056 53.366 268.396 53.2097 268.751 53.1216C269.106 53.0307 269.448 52.9853 269.778 52.9853C269.988 52.9853 270.225 53.0109 270.489 53.062C270.754 53.1103 271.001 53.2111 271.231 53.3645C271.464 53.518 271.638 53.7495 271.755 54.0591C271.874 54.3688 271.891 54.7836 271.806 55.3035L271.09 59.616H270.085L270.238 58.7296H270.187C270.096 58.8716 269.957 59.0236 269.769 59.1856C269.585 59.3475 269.35 59.4853 269.066 59.5989C268.785 59.7126 268.454 59.7694 268.073 59.7694ZM268.363 58.866C268.761 58.866 269.109 58.7878 269.407 58.6316C269.708 58.4753 269.95 58.2736 270.131 58.0265C270.316 57.7793 270.431 57.5194 270.477 57.2466L270.63 56.3262C270.579 56.3773 270.478 56.4242 270.327 56.4668C270.177 56.5066 270.006 56.5421 269.816 56.5734C269.629 56.6018 269.445 56.6273 269.266 56.6501C269.09 56.6699 268.948 56.687 268.84 56.7012C268.573 56.7353 268.319 56.7907 268.077 56.8674C267.839 56.9413 267.637 57.0535 267.472 57.204C267.31 57.3518 267.21 57.5535 267.17 57.8091C267.11 58.1586 267.194 58.4228 267.421 58.6018C267.648 58.7779 267.962 58.866 268.363 58.866ZM276.863 53.0705L276.727 53.9228H273.335L273.471 53.0705H276.863ZM274.716 51.5023H275.721L274.681 57.741C274.636 58.0251 274.643 58.2381 274.703 58.3802C274.765 58.5194 274.859 58.6131 274.984 58.6614C275.112 58.7069 275.25 58.7296 275.397 58.7296C275.508 58.7296 275.599 58.7239 275.67 58.7126C275.741 58.6984 275.798 58.687 275.841 58.6785L275.909 59.5819C275.832 59.6074 275.728 59.633 275.598 59.6586C275.47 59.687 275.312 59.7012 275.125 59.7012C274.841 59.7012 274.574 59.6401 274.324 59.518C274.074 59.3958 273.882 59.2097 273.748 58.9597C273.615 58.7097 273.579 58.3944 273.642 58.0137L274.716 51.5023ZM279.942 59.7523C279.314 59.7523 278.796 59.6131 278.387 59.3347C277.978 59.0535 277.692 58.6614 277.53 58.1586C277.368 57.6529 277.343 57.0648 277.453 56.3944C277.564 55.7239 277.784 55.133 278.114 54.6216C278.444 54.1074 278.854 53.7069 279.346 53.4199C279.837 53.1302 280.377 52.9853 280.965 52.9853C281.306 52.9853 281.634 53.0421 281.949 53.1557C282.265 53.2694 282.537 53.454 282.767 53.7097C282.998 53.9626 283.158 54.2978 283.249 54.7154C283.34 55.133 283.334 55.6472 283.232 56.258L283.164 56.6841H278.118L278.255 55.8148H282.277C282.343 55.4455 282.326 55.116 282.226 54.8262C282.13 54.5364 281.961 54.3077 281.719 54.1401C281.48 53.9725 281.178 53.8887 280.811 53.8887C280.434 53.8887 280.081 53.991 279.755 54.1955C279.428 54.3972 279.155 54.6529 278.936 54.9626C278.718 55.2694 278.581 55.5819 278.527 55.9001L278.408 56.6501C278.323 57.1927 278.336 57.6245 278.446 57.9455C278.56 58.2665 278.757 58.4981 279.039 58.6401C279.32 58.7793 279.672 58.8489 280.096 58.8489C280.365 58.8489 280.614 58.812 280.841 58.7381C281.069 58.6614 281.272 58.5478 281.451 58.3972C281.63 58.2438 281.78 58.0535 281.902 57.8262L282.823 58.0989C282.667 58.4285 282.446 58.7182 282.162 58.9682C281.881 59.2154 281.551 59.4086 281.174 59.5478C280.799 59.6841 280.388 59.7523 279.942 59.7523ZM289.711 54.5364L288.757 54.7921C288.723 54.6387 288.663 54.491 288.578 54.3489C288.495 54.204 288.368 54.0861 288.194 53.9952C288.024 53.9015 287.791 53.8546 287.495 53.8546C287.095 53.8546 286.747 53.9469 286.451 54.1316C286.156 54.3134 285.987 54.5449 285.944 54.8262C285.902 55.0734 285.958 55.2708 286.115 55.4185C286.271 55.5663 286.532 55.687 286.899 55.7807L287.836 56.0194C288.399 56.1643 288.799 56.3816 289.038 56.6714C289.279 56.9583 289.362 57.3319 289.285 57.7921C289.223 58.1671 289.059 58.5023 288.795 58.7978C288.531 59.0932 288.193 59.3262 287.781 59.4966C287.369 59.6671 286.91 59.7523 286.404 59.7523C285.731 59.7523 285.2 59.6074 284.811 59.3177C284.422 59.0251 284.214 58.6018 284.189 58.0478L285.194 57.8091C285.22 58.1586 285.345 58.4228 285.569 58.6018C285.797 58.7779 286.115 58.866 286.524 58.866C286.993 58.866 287.383 58.7665 287.696 58.5677C288.008 58.366 288.186 58.1245 288.228 57.8432C288.271 57.6131 288.225 57.4214 288.092 57.268C287.961 57.1145 287.734 56.9995 287.41 56.9228L286.37 56.6671C285.791 56.5222 285.385 56.3006 285.152 56.0023C284.922 55.704 284.845 55.329 284.922 54.8773C284.984 54.508 285.143 54.1813 285.399 53.8972C285.657 53.6131 285.981 53.3901 286.37 53.2282C286.762 53.0663 287.189 52.9853 287.649 52.9853C288.297 52.9853 288.781 53.1273 289.102 53.4114C289.423 53.6927 289.626 54.0677 289.711 54.5364ZM294.43 53.0705L294.293 53.9228H290.901L291.038 53.0705H294.43ZM292.282 51.5023H293.288L292.248 57.741C292.202 58.0251 292.21 58.2381 292.269 58.3802C292.332 58.5194 292.425 58.6131 292.55 58.6614C292.678 58.7069 292.816 58.7296 292.964 58.7296C293.075 58.7296 293.165 58.7239 293.237 58.7126C293.308 58.6984 293.364 58.687 293.407 58.6785L293.475 59.5819C293.398 59.6074 293.295 59.633 293.164 59.6586C293.036 59.687 292.879 59.7012 292.691 59.7012C292.407 59.7012 292.14 59.6401 291.89 59.518C291.64 59.3958 291.448 59.2097 291.315 58.9597C291.181 58.7097 291.146 58.3944 291.208 58.0137L292.282 51.5023ZM306.732 50.8887L305.283 59.616H304.261L300.647 52.7637H300.562L299.42 59.616H298.363L299.812 50.8887H300.835L304.465 57.758H304.55L305.692 50.8887H306.732ZM309.989 59.7523C309.361 59.7523 308.843 59.6131 308.434 59.3347C308.025 59.0535 307.739 58.6614 307.577 58.1586C307.415 57.6529 307.39 57.0648 307.5 56.3944C307.611 55.7239 307.831 55.133 308.161 54.6216C308.49 54.1074 308.901 53.7069 309.392 53.4199C309.884 53.1302 310.424 52.9853 311.012 52.9853C311.353 52.9853 311.681 53.0421 311.996 53.1557C312.311 53.2694 312.584 53.454 312.814 53.7097C313.044 53.9626 313.205 54.2978 313.296 54.7154C313.387 55.133 313.381 55.6472 313.279 56.258L313.211 56.6841H308.165L308.301 55.8148H312.324C312.39 55.4455 312.373 55.116 312.273 54.8262C312.176 54.5364 312.007 54.3077 311.766 54.1401C311.527 53.9725 311.225 53.8887 310.858 53.8887C310.48 53.8887 310.128 53.991 309.801 54.1955C309.475 54.3972 309.202 54.6529 308.983 54.9626C308.765 55.2694 308.628 55.5819 308.574 55.9001L308.455 56.6501C308.37 57.1927 308.382 57.6245 308.493 57.9455C308.607 58.2665 308.804 58.4981 309.086 58.6401C309.367 58.7793 309.719 58.8489 310.142 58.8489C310.412 58.8489 310.661 58.812 310.888 58.7381C311.115 58.6614 311.319 58.5478 311.498 58.3972C311.676 58.2438 311.827 58.0535 311.949 57.8262L312.87 58.0989C312.713 58.4285 312.493 58.7182 312.209 58.9682C311.928 59.2154 311.598 59.4086 311.221 59.5478C310.846 59.6841 310.435 59.7523 309.989 59.7523ZM315.752 59.616L314.849 53.0705H315.906L316.485 58.0819H316.554L318.787 53.0705H319.86L320.406 58.0648H320.474L322.724 53.0705H323.781L320.696 59.616H319.707L319.11 54.5876H319.008L316.741 59.616H315.752ZM95.5114 74.616L96.9602 65.8887H102.193L102.04 66.8262H97.8636L97.3693 69.7751H101.153L101 70.7126H97.2159L96.5682 74.616H95.5114ZM106.576 71.9398L107.224 68.0705H108.229L107.138 74.616H106.133L106.32 73.508H106.252C106.048 73.8404 105.762 74.1231 105.396 74.356C105.029 74.5861 104.599 74.7012 104.104 74.7012C103.695 74.7012 103.346 74.6117 103.056 74.4327C102.769 74.2509 102.565 73.9782 102.442 73.6145C102.323 73.2481 102.309 72.7864 102.4 72.2296L103.099 68.0705H104.104L103.423 72.1614C103.346 72.6387 103.418 73.0194 103.64 73.3035C103.862 73.5876 104.181 73.7296 104.599 73.7296C104.849 73.7296 105.113 73.6657 105.391 73.5378C105.673 73.41 105.923 73.214 106.141 72.9498C106.363 72.6856 106.508 72.3489 106.576 71.9398ZM110.634 70.6785L109.986 74.616H108.98L110.071 68.0705H111.043L110.873 69.0932H110.958C111.162 68.7609 111.439 68.4938 111.789 68.2921C112.138 68.0876 112.56 67.9853 113.054 67.9853C113.492 67.9853 113.861 68.0762 114.162 68.258C114.466 68.437 114.681 68.7097 114.806 69.0762C114.934 69.4398 114.952 69.9001 114.861 70.4569L114.162 74.616H113.157L113.838 70.5251C113.924 70.0137 113.857 69.6131 113.638 69.3234C113.422 69.0336 113.08 68.8887 112.611 68.8887C112.287 68.8887 111.988 68.9583 111.712 69.0975C111.439 69.2367 111.208 69.4398 111.017 69.7069C110.83 69.9739 110.702 70.2978 110.634 70.6785ZM118.463 74.7523C117.915 74.7523 117.455 74.6145 117.082 74.339C116.71 74.0606 116.447 73.6685 116.294 73.1628C116.143 72.6543 116.125 72.0535 116.239 71.3603C116.355 70.6728 116.572 70.0762 116.891 69.5705C117.212 69.0648 117.605 68.6742 118.071 68.3986C118.537 68.1231 119.045 67.9853 119.597 67.9853C120.023 67.9853 120.348 68.0563 120.572 68.1984C120.8 68.3376 120.964 68.4966 121.067 68.6756C121.169 68.8518 121.247 68.9966 121.301 69.1103H121.386L121.923 65.8887H122.929L121.48 74.616H120.509L120.679 73.6103H120.56C120.466 73.7296 120.335 73.8802 120.168 74.062C120 74.241 119.778 74.4015 119.503 74.5435C119.23 74.6827 118.884 74.7523 118.463 74.7523ZM118.71 73.8489C119.114 73.8489 119.474 73.7438 119.793 73.5336C120.114 73.3205 120.381 73.0265 120.594 72.6515C120.807 72.2736 120.955 71.8376 121.037 71.3432C121.119 70.8546 121.116 70.427 121.028 70.0606C120.94 69.6913 120.771 69.4043 120.521 69.1998C120.271 68.9924 119.94 68.8887 119.528 68.8887C119.105 68.8887 118.737 68.9981 118.425 69.2168C118.112 69.4327 117.858 69.7268 117.662 70.0989C117.466 70.4682 117.33 70.883 117.253 71.3432C117.176 71.8091 117.175 72.2324 117.249 72.6131C117.322 72.991 117.479 73.2921 117.717 73.5165C117.959 73.7381 118.29 73.8489 118.71 73.8489ZM135.044 70.3205C134.891 71.2296 134.597 72.0151 134.162 72.677C133.727 73.3361 133.196 73.8447 132.568 74.2026C131.94 74.5577 131.26 74.7353 130.527 74.7353C129.771 74.7353 129.128 74.5506 128.597 74.1813C128.068 73.8091 127.69 73.2836 127.463 72.6046C127.239 71.9228 127.203 71.116 127.357 70.1841C127.51 69.2751 127.804 68.491 128.239 67.8319C128.673 67.1699 129.206 66.6614 129.837 66.3063C130.467 65.9484 131.152 65.7694 131.891 65.7694C132.641 65.7694 133.278 65.9555 133.804 66.3276C134.332 66.6969 134.709 67.2225 134.933 67.9043C135.161 68.5833 135.197 69.3887 135.044 70.3205ZM134.038 70.1841C134.163 69.4398 134.145 68.8134 133.983 68.3049C133.821 67.7964 133.553 67.4114 133.178 67.1501C132.803 66.8887 132.357 66.758 131.839 66.758C131.3 66.758 130.788 66.8958 130.305 67.1714C129.822 67.4441 129.409 67.8461 129.065 68.3773C128.722 68.9057 128.487 69.5535 128.362 70.3205C128.237 71.0648 128.256 71.6913 128.418 72.1998C128.58 72.7083 128.848 73.0932 129.223 73.3546C129.598 73.616 130.044 73.7466 130.561 73.7466C131.101 73.7466 131.612 73.6103 132.095 73.3376C132.578 73.062 132.991 72.66 133.335 72.1316C133.679 71.6003 133.913 70.9512 134.038 70.1841ZM139.974 68.0705L139.838 68.9228H136.31L136.446 68.0705H139.974ZM136.412 74.616L137.656 67.1671C137.713 66.7921 137.849 66.4796 138.065 66.2296C138.284 65.9796 138.544 65.7921 138.845 65.6671C139.149 65.5421 139.457 65.4796 139.77 65.4796C140.017 65.4796 140.214 65.4995 140.362 65.5393C140.513 65.579 140.622 65.616 140.69 65.6501L140.264 66.5194C140.213 66.5023 140.145 66.481 140.06 66.4555C139.977 66.4299 139.864 66.4171 139.719 66.4171C139.386 66.4171 139.134 66.5009 138.96 66.6685C138.787 66.8361 138.67 67.0819 138.611 67.4057L137.418 74.616H136.412ZM144.299 68.0705L144.162 68.9228H140.634L140.77 68.0705H144.299ZM140.736 74.616L141.98 67.1671C142.037 66.7921 142.174 66.4796 142.39 66.2296C142.608 65.9796 142.868 65.7921 143.169 65.6671C143.473 65.5421 143.782 65.4796 144.094 65.4796C144.341 65.4796 144.539 65.4995 144.686 65.5393C144.837 65.579 144.946 65.616 145.015 65.6501L144.588 66.5194C144.537 66.5023 144.469 66.481 144.384 66.4555C144.301 66.4299 144.188 66.4171 144.043 66.4171C143.711 66.4171 143.458 66.5009 143.284 66.6685C143.111 66.8361 142.995 67.0819 142.935 67.4057L141.742 74.616H140.736ZM147.075 74.7523C146.447 74.7523 145.929 74.6131 145.52 74.3347C145.11 74.0535 144.825 73.6614 144.663 73.1586C144.501 72.6529 144.475 72.0648 144.586 71.3944C144.697 70.7239 144.917 70.133 145.247 69.6216C145.576 69.1074 145.987 68.7069 146.478 68.4199C146.97 68.1302 147.51 67.9853 148.098 67.9853C148.439 67.9853 148.767 68.0421 149.082 68.1557C149.397 68.2694 149.67 68.454 149.9 68.7097C150.13 68.9626 150.291 69.2978 150.382 69.7154C150.473 70.133 150.467 70.6472 150.365 71.258L150.297 71.6841H145.251L145.387 70.8148H149.41C149.475 70.4455 149.458 70.116 149.359 69.8262C149.262 69.5364 149.093 69.3077 148.852 69.1401C148.613 68.9725 148.311 68.8887 147.944 68.8887C147.566 68.8887 147.214 68.991 146.887 69.1955C146.561 69.3972 146.288 69.6529 146.069 69.9626C145.85 70.2694 145.714 70.5819 145.66 70.9001L145.541 71.6501C145.456 72.1927 145.468 72.6245 145.579 72.9455C145.693 73.2665 145.89 73.4981 146.172 73.6401C146.453 73.7793 146.805 73.8489 147.228 73.8489C147.498 73.8489 147.747 73.812 147.974 73.7381C148.201 73.6614 148.404 73.5478 148.583 73.3972C148.762 73.2438 148.913 73.0535 149.035 72.8262L149.956 73.0989C149.799 73.4285 149.579 73.7182 149.295 73.9682C149.014 74.2154 148.684 74.4086 148.306 74.5478C147.931 74.6841 147.521 74.7523 147.075 74.7523ZM151.355 74.616L152.446 68.0705H153.418L153.248 69.0591H153.316C153.486 68.7353 153.746 68.4725 154.096 68.2708C154.445 68.0691 154.816 67.9682 155.208 67.9682C155.284 67.9682 155.377 67.9697 155.485 67.9725C155.593 67.9725 155.676 67.9768 155.736 67.9853L155.566 69.008C155.532 68.9995 155.455 68.9867 155.336 68.9697C155.216 68.9498 155.088 68.9398 154.952 68.9398C154.634 68.9398 154.34 69.0066 154.07 69.1401C153.8 69.2708 153.574 69.4526 153.392 69.6856C153.211 69.9157 153.094 70.1785 153.043 70.4739L152.361 74.616H151.355ZM161.332 69.5364L160.378 69.7921C160.344 69.6387 160.284 69.491 160.199 69.3489C160.116 69.204 159.989 69.0861 159.815 68.9952C159.645 68.9015 159.412 68.8546 159.116 68.8546C158.716 68.8546 158.368 68.9469 158.072 69.1316C157.777 69.3134 157.608 69.5449 157.565 69.8262C157.523 70.0734 157.58 70.2708 157.736 70.4185C157.892 70.5663 158.153 70.687 158.52 70.7807L159.457 71.0194C160.02 71.1643 160.42 71.3816 160.659 71.6714C160.901 71.9583 160.983 72.3319 160.906 72.7921C160.844 73.1671 160.68 73.5023 160.416 73.7978C160.152 74.0932 159.814 74.3262 159.402 74.4966C158.99 74.6671 158.531 74.7523 158.026 74.7523C157.352 74.7523 156.821 74.6074 156.432 74.3177C156.043 74.0251 155.835 73.6018 155.81 73.0478L156.815 72.8091C156.841 73.1586 156.966 73.4228 157.19 73.6018C157.418 73.7779 157.736 73.866 158.145 73.866C158.614 73.866 159.004 73.7665 159.317 73.5677C159.629 73.366 159.807 73.1245 159.849 72.8432C159.892 72.6131 159.847 72.4214 159.713 72.268C159.582 72.1145 159.355 71.9995 159.031 71.9228L157.991 71.6671C157.412 71.5222 157.006 71.3006 156.773 71.0023C156.543 70.704 156.466 70.329 156.543 69.8773C156.605 69.508 156.764 69.1813 157.02 68.8972C157.278 68.6131 157.602 68.3901 157.991 68.2282C158.384 68.0663 158.81 67.9853 159.27 67.9853C159.918 67.9853 160.402 68.1273 160.723 68.4114C161.044 68.6927 161.247 69.0677 161.332 69.5364ZM164.892 65.8887L163.767 72.1614H162.778L163.733 65.8887H164.892ZM162.983 74.6841C162.767 74.6841 162.586 74.6103 162.441 74.4626C162.297 74.312 162.221 74.1302 162.216 73.9171C162.213 73.704 162.288 73.5265 162.441 73.3844C162.595 73.2395 162.775 73.1671 162.983 73.1671C163.193 73.1671 163.375 73.241 163.528 73.3887C163.681 73.5364 163.755 73.7126 163.75 73.9171C163.747 74.0591 163.71 74.1884 163.639 74.3049C163.571 74.4214 163.478 74.5137 163.362 74.5819C163.248 74.6501 163.122 74.6841 162.983 74.6841ZM167.771 65.8887L167.277 68.8887H166.339L166.834 65.8887H167.771ZM169.953 65.8887L169.459 68.8887H168.521L169.016 65.8887H169.953Z" fill="#444444"/>
</svg>
