<svg width="21" height="21" viewBox="0 0 21 21" fill="none" xmlns="http://www.w3.org/2000/svg">
<path d="M7.58333 3H5.08333C4.5308 3 4.0009 3.21949 3.61019 3.61019C3.21949 4.0009 3 4.5308 3 5.08333C3 5.63587 3.21949 6.16577 3.61019 6.55647C4.0009 6.94717 4.5308 7.16667 5.08333 7.16667H7.58333C8.13587 7.16667 8.66577 6.94717 9.05647 6.55647C9.44717 6.16577 9.66667 5.63587 9.66667 5.08333C9.66667 4.5308 9.44717 4.0009 9.05647 3.61019C8.66577 3.21949 8.13587 3 7.58333 3ZM7.58333 6.33333H5.08333C4.75181 6.33333 4.43387 6.20164 4.19945 5.96722C3.96503 5.7328 3.83333 5.41485 3.83333 5.08333C3.83333 4.75181 3.96503 4.43387 4.19945 4.19945C4.43387 3.96503 4.75181 3.83333 5.08333 3.83333H7.58333C7.91485 3.83333 8.2328 3.96503 8.46722 4.19945C8.70164 4.43387 8.83333 4.75181 8.83333 5.08333C8.83333 5.41485 8.70164 5.7328 8.46722 5.96722C8.2328 6.20164 7.91485 6.33333 7.58333 6.33333ZM7.58333 8.83333H5.08333C4.5308 8.83333 4.0009 9.05283 3.61019 9.44353C3.21949 9.83423 3 10.3641 3 10.9167V15.9167C3 16.4692 3.21949 16.9991 3.61019 17.3898C4.0009 17.7805 4.5308 18 5.08333 18H7.58333C8.13587 18 8.66577 17.7805 9.05647 17.3898C9.44717 16.9991 9.66667 16.4692 9.66667 15.9167V10.9167C9.66667 10.3641 9.44717 9.83423 9.05647 9.44353C8.66577 9.05283 8.13587 8.83333 7.58333 8.83333ZM8.83333 15.9167C8.83333 16.2482 8.70164 16.5661 8.46722 16.8005C8.2328 17.035 7.91485 17.1667 7.58333 17.1667H5.08333C4.75181 17.1667 4.43387 17.035 4.19945 16.8005C3.96503 16.5661 3.83333 16.2482 3.83333 15.9167V10.9167C3.83333 10.5851 3.96503 10.2672 4.19945 10.0328C4.43387 9.79836 4.75181 9.66667 5.08333 9.66667H7.58333C7.91485 9.66667 8.2328 9.79836 8.46722 10.0328C8.70164 10.2672 8.83333 10.5851 8.83333 10.9167V15.9167ZM15.9167 13.8333H13.4167C12.8641 13.8333 12.3342 14.0528 11.9435 14.4435C11.5528 14.8342 11.3333 15.3641 11.3333 15.9167C11.3333 16.4692 11.5528 16.9991 11.9435 17.3898C12.3342 17.7805 12.8641 18 13.4167 18H15.9167C16.4692 18 16.9991 17.7805 17.3898 17.3898C17.7805 16.9991 18 16.4692 18 15.9167C18 15.3641 17.7805 14.8342 17.3898 14.4435C16.9991 14.0528 16.4692 13.8333 15.9167 13.8333ZM15.9167 17.1667H13.4167C13.0851 17.1667 12.7672 17.035 12.5328 16.8005C12.2984 16.5661 12.1667 16.2482 12.1667 15.9167C12.1667 15.5851 12.2984 15.2672 12.5328 15.0328C12.7672 14.7984 13.0851 14.6667 13.4167 14.6667H15.9167C16.2482 14.6667 16.5661 14.7984 16.8005 15.0328C17.035 15.2672 17.1667 15.5851 17.1667 15.9167C17.1667 16.2482 17.035 16.5661 16.8005 16.8005C16.5661 17.035 16.2482 17.1667 15.9167 17.1667ZM15.9167 3H13.4167C12.8641 3 12.3342 3.21949 11.9435 3.61019C11.5528 4.0009 11.3333 4.5308 11.3333 5.08333V10.0833C11.3333 10.6359 11.5528 11.1658 11.9435 11.5565C12.3342 11.9472 12.8641 12.1667 13.4167 12.1667H15.9167C16.4692 12.1667 16.9991 11.9472 17.3898 11.5565C17.7805 11.1658 18 10.6359 18 10.0833V5.08333C18 4.5308 17.7805 4.0009 17.3898 3.61019C16.9991 3.21949 16.4692 3 15.9167 3ZM17.1667 10.0833C17.1667 10.4149 17.035 10.7328 16.8005 10.9672C16.5661 11.2016 16.2482 11.3333 15.9167 11.3333H13.4167C13.0851 11.3333 12.7672 11.2016 12.5328 10.9672C12.2984 10.7328 12.1667 10.4149 12.1667 10.0833V5.08333C12.1667 4.75181 12.2984 4.43387 12.5328 4.19945C12.7672 3.96503 13.0851 3.83333 13.4167 3.83333H15.9167C16.2482 3.83333 16.5661 3.96503 16.8005 4.19945C17.035 4.43387 17.1667 4.75181 17.1667 5.08333V10.0833Z" fill="#F19924"/>
</svg>
