<svg width="29" height="29" viewBox="0 0 29 29" fill="none" xmlns="http://www.w3.org/2000/svg">
<path d="M14.4994 24.977C12.8122 24.4138 11.2346 23.5643 9.83562 22.4658C5.74937 19.3508 5.85437 13.2345 5.86312 13.1733V7.16197C6.88687 6.98697 11.3494 6.12947 14.4994 3.54822C17.6581 6.17322 22.1119 6.98697 23.1794 7.16197V13.1645C23.1794 13.2345 23.2844 19.3508 19.2069 22.4658C17.7944 23.5683 16.2017 24.4179 14.4994 24.977Z" fill="white"/>
<path d="M14.4994 3.88965C17.0043 5.67232 19.8782 6.86853 22.9082 7.38965V13.1734C22.9082 13.2347 23.0044 19.2284 19.0407 22.2559C17.6781 23.3326 16.1425 24.17 14.4994 24.7322C12.87 24.1794 11.3463 23.3539 9.99319 22.2909C6.02944 19.2284 6.11694 13.2347 6.12569 13.1647V7.38965C9.15659 6.87173 12.0312 5.67523 14.5344 3.88965H14.4994ZM14.5344 3.20715C10.9994 6.1909 5.55694 6.9434 5.55694 6.9434V13.1647C5.55694 13.1647 5.44319 19.4822 9.66944 22.6759C11.117 23.8087 12.7517 24.6794 14.4994 25.2484C16.2468 24.6784 17.8813 23.8078 19.3294 22.6759C23.5557 19.4384 23.3982 13.1647 23.3982 13.1647V6.9434C23.3982 6.9434 17.9994 6.1909 14.4994 3.2159L14.5344 3.20715Z" fill="#636363"/>
<path d="M23.4075 13.1645C23.4075 13.1645 23.565 19.447 19.33 22.6845C17.88 23.8114 16.2458 24.6787 14.5 25.2483C14.2288 25.1608 13.94 25.0645 13.625 24.942C15.042 24.3773 16.3731 23.6174 17.58 22.6845C21.815 19.447 21.6575 13.1645 21.6575 13.1645V6.94324C18.7985 6.48843 16.0641 5.44886 13.625 3.88949C13.9225 3.67949 14.2113 3.46074 14.5 3.22449C18 6.19949 23.425 6.94324 23.425 6.94324L23.4075 13.1645Z" fill="#F19924"/>
<path d="M16.8356 11.1083H12.1719V11.6333H16.8356V11.1083Z" fill="#636363"/>
<path d="M16.8356 12.9808H12.1719V13.5058H16.8356V12.9808Z" fill="#636363"/>
<path d="M15.2082 19.0008L12.3995 15.2121C12.3716 15.1723 12.3566 15.125 12.3566 15.0764C12.3566 15.0279 12.3716 14.9805 12.3995 14.9408C12.4185 14.8963 12.4502 14.8585 12.4907 14.832C12.5312 14.8055 12.5786 14.7916 12.627 14.7921H13.5895C13.8067 14.8082 14.025 14.7794 14.2307 14.7074C14.4363 14.6353 14.6249 14.5216 14.7846 14.3734C14.9443 14.2252 15.0717 14.0456 15.1588 13.8458C15.2459 13.6461 15.2908 13.4306 15.2908 13.2127C15.2908 12.9948 15.2459 12.7792 15.1588 12.5795C15.0717 12.3798 14.9443 12.2002 14.7846 12.0519C14.6249 11.9037 14.4363 11.79 14.2307 11.718C14.025 11.6459 13.8067 11.6171 13.5895 11.6333H12.1895V11.1083H13.5895C13.8772 11.0897 14.1657 11.1304 14.4372 11.2277C14.7086 11.3251 14.9572 11.4771 15.1675 11.6743C15.3779 11.8715 15.5456 12.1098 15.6602 12.3744C15.7748 12.639 15.834 12.9243 15.834 13.2127C15.834 13.501 15.7748 13.7863 15.6602 14.0509C15.5456 14.3155 15.3779 14.5538 15.1675 14.751C14.9572 14.9483 14.7086 15.1003 14.4372 15.1976C14.1657 15.295 13.8772 15.3356 13.5895 15.3171H13.152L15.6457 18.6858L15.2082 19.0008Z" fill="#636363"/>
<path d="M14.4994 3.88965C17.0043 5.67232 19.8782 6.86853 22.9082 7.38965V13.1734C22.9082 13.2347 23.0044 19.2284 19.0407 22.2559C17.6781 23.3326 16.1425 24.17 14.4994 24.7322C12.87 24.1794 11.3463 23.3539 9.99319 22.2909C6.02944 19.2284 6.11694 13.2347 6.12569 13.1647V7.38965C9.15659 6.87173 12.0312 5.67523 14.5344 3.88965H14.4994ZM14.5344 3.20715C10.9994 6.1909 5.55694 6.9434 5.55694 6.9434V13.1647C5.55694 13.1647 5.44319 19.4822 9.66944 22.6759C11.117 23.8087 12.7517 24.6794 14.4994 25.2484C16.2468 24.6784 17.8813 23.8078 19.3294 22.6759C23.5557 19.4384 23.3982 13.1647 23.3982 13.1647V6.9434C23.3982 6.9434 17.9994 6.1909 14.4994 3.2159L14.5344 3.20715Z" fill="#636363"/>
</svg>
