<svg width="31" height="31" viewBox="0 0 31 31" fill="none" xmlns="http://www.w3.org/2000/svg">
<path fill-rule="evenodd" clip-rule="evenodd" d="M4.25 22.0875H26.0204H26.0213V22.0866V10.1071H4.25V22.0875ZM25.0839 21.1501H5.18741V11.0445H25.0839V21.1501ZM7.24531 17.4873C7.24531 16.5128 7.97007 16.1103 8.192 16.0108C7.73636 15.7686 7.46384 15.2818 7.46384 14.7114C7.46384 13.6601 8.23843 13.0078 9.48379 13.0078C10.6802 13.0078 11.4531 13.6593 11.4531 14.6683C11.4531 15.4632 10.9772 15.8125 10.6929 15.9508C11.1696 16.1289 11.6505 16.6613 11.6505 17.4451C11.6505 18.6778 10.8254 19.3849 9.38507 19.3849C8.08571 19.3849 7.24531 18.6399 7.24531 17.4873ZM9.46943 18.4315C8.87293 18.4315 8.50164 18.0535 8.50164 17.4451C8.50164 17.0815 8.62314 16.4723 9.43736 16.4723C10.0424 16.4723 10.3891 16.825 10.3891 17.4401C10.3891 18.0696 10.0541 18.4315 9.46943 18.4315ZM8.66114 14.7274C8.66114 15.232 8.959 15.5341 9.45679 15.5341C9.96807 15.5341 10.2499 15.2598 10.2499 14.7621C10.2499 14.2414 9.9605 13.9436 9.45593 13.9436C8.95136 13.9436 8.66114 14.2288 8.66114 14.7274ZM20.5411 12.8096C18.6731 12.8096 17.7458 14.287 17.7458 16.0918C17.7458 17.9168 18.4722 19.3841 20.4863 19.3841C22.1282 19.3841 22.853 18.3581 23.026 17.2781H21.7443C21.6254 17.7548 21.3671 18.3471 20.5133 18.3471C19.4198 18.3471 19.0856 17.3017 19.0856 16.0842C19.0856 14.9358 19.4324 13.8558 20.4973 13.8558C21.3747 13.8558 21.5865 14.3773 21.7156 14.9038H22.9889C22.9281 13.9123 22.2674 12.8096 20.5411 12.8096ZM12.8934 18.3936C12.5955 17.8561 12.4445 17.0857 12.4445 16.1028C12.4445 15.2067 12.6267 14.4516 12.9701 13.9183C13.36 13.3133 13.9371 13.0071 14.6855 13.0071C16.1123 13.0071 16.8658 14.0558 16.8658 16.0386C16.8658 18.2586 16.1241 19.3841 14.6602 19.3841C13.8519 19.3841 13.257 19.0508 12.8934 18.3936ZM14.661 18.4213C14.0105 18.4213 13.7329 17.7186 13.7329 16.0698C13.7329 14.6161 14.0249 13.9681 14.6779 13.9681C15.309 13.9681 15.5782 14.595 15.5782 16.0639C15.5782 17.5194 15.4246 18.4213 14.661 18.4213Z" fill="#F19924"/>
</svg>
