<svg width="31" height="31" viewBox="0 0 31 31" fill="none" xmlns="http://www.w3.org/2000/svg">
<path d="M11.9724 16.5028C12.0675 16.5023 12.1627 16.5019 12.2579 16.5015C12.3422 16.5011 12.4264 16.5006 12.5132 16.5001C13.0993 16.5118 13.5215 16.6513 13.9429 17.0709C14.2349 17.4542 14.3749 17.7738 14.3821 18.2592C14.3842 18.3859 14.3842 18.3859 14.3864 18.5152C14.3876 18.6069 14.3887 18.6987 14.39 18.7933C14.3914 18.8894 14.3929 18.9855 14.3944 19.0816C14.3975 19.284 14.4004 19.4864 14.4031 19.6888C14.4066 19.9437 14.4104 20.1985 14.4143 20.4533C14.4226 20.9852 14.4292 21.5171 14.435 22.0491C14.4381 22.2859 14.4426 22.5226 14.4477 22.7594C14.4497 22.8901 14.4516 23.0209 14.4535 23.1516C14.4552 23.2077 14.4569 23.2638 14.4586 23.3216C14.4637 23.8404 14.3626 24.4163 14.0048 24.8121C13.9682 24.855 13.9315 24.8979 13.8937 24.942C13.2535 25.439 12.5424 25.3969 11.7687 25.3999C11.6394 25.4013 11.5102 25.4028 11.3809 25.4044C11.1108 25.4075 10.8408 25.4097 10.5707 25.4111C10.2258 25.413 9.88103 25.4168 9.53621 25.4212C9.26953 25.4244 9.00285 25.4269 8.73615 25.4292C8.60906 25.4303 8.48198 25.4316 8.35489 25.4331C8.17677 25.435 7.99867 25.4359 7.82054 25.4366C7.74308 25.4377 7.74308 25.4377 7.66406 25.4388C7.01885 25.4387 6.48252 25.321 6.01587 24.8563C5.72622 24.4761 5.58395 24.1572 5.57667 23.6756C5.57526 23.5928 5.57385 23.5099 5.57239 23.4246C5.57121 23.3346 5.57003 23.2446 5.56881 23.1519C5.56734 23.0585 5.56587 22.9651 5.56435 22.8688C5.56124 22.67 5.55834 22.4713 5.55563 22.2725C5.5522 22.0226 5.5484 21.7727 5.54445 21.5228C5.53617 20.9985 5.5295 20.4742 5.52376 19.9498C5.52066 19.7081 5.51606 19.4664 5.51106 19.2248C5.50907 19.0875 5.50712 18.9502 5.50522 18.8129C5.50356 18.7533 5.5019 18.6938 5.50018 18.6324C5.49527 18.1033 5.58786 17.5201 5.95394 17.1151C6.00895 17.0508 6.00895 17.0508 6.06508 16.9851C6.64113 16.538 7.23662 16.5327 7.94288 16.5323C8.04734 16.5312 8.15179 16.53 8.25624 16.5287C8.53019 16.5257 8.80413 16.5242 9.0781 16.5232C9.35375 16.5218 9.62938 16.5188 9.90501 16.516C10.5941 16.5093 11.2832 16.5072 11.9724 16.5028ZM7.07752 18.1325C7.07589 18.8591 7.07463 19.5857 7.07386 20.3123C7.07349 20.6496 7.07298 20.987 7.07218 21.3243C7.07142 21.6497 7.07099 21.9751 7.07081 22.3004C7.07068 22.4248 7.07042 22.5491 7.07004 22.6734C7.06953 22.8471 7.06946 23.0208 7.06949 23.1946C7.06923 23.2463 7.06898 23.2981 7.06872 23.3515C7.06508 23.6173 7.06508 23.6173 7.1483 23.8655C7.87488 23.8671 8.60146 23.8684 9.32805 23.8691C9.6654 23.8695 10.0028 23.87 10.3401 23.8708C10.6655 23.8716 10.9908 23.872 11.3162 23.8722C11.4406 23.8723 11.5649 23.8726 11.6892 23.8729C11.8629 23.8735 12.0366 23.8735 12.2104 23.8735C12.288 23.8739 12.288 23.8739 12.3672 23.8743C12.6331 23.8779 12.6331 23.8779 12.8812 23.7947C12.8829 23.0681 12.8841 22.3415 12.8849 21.6149C12.8853 21.2776 12.8858 20.9402 12.8866 20.6029C12.8874 20.2775 12.8878 19.9521 12.888 19.6268C12.8881 19.5024 12.8883 19.3781 12.8887 19.2538C12.8892 19.08 12.8893 18.9063 12.8893 18.7326C12.8897 18.655 12.8897 18.655 12.8901 18.5757C12.8937 18.3099 12.8937 18.3099 12.8105 18.0617C12.0839 18.0601 11.3573 18.0588 10.6307 18.0581C10.2934 18.0577 9.95601 18.0572 9.61866 18.0564C9.29329 18.0556 8.96792 18.0552 8.64256 18.055C8.51822 18.0549 8.39388 18.0546 8.26955 18.0542C8.09584 18.0537 7.92213 18.0537 7.74842 18.0537C7.67076 18.0533 7.67076 18.0533 7.59153 18.0529C7.32567 18.0493 7.32567 18.0493 7.07752 18.1325Z" fill="#F19924"/>
<path d="M23.0134 6.02779C23.1086 6.02736 23.2037 6.02695 23.2989 6.02655C23.3832 6.02609 23.4674 6.02562 23.5542 6.02515C24.1404 6.03683 24.5626 6.17636 24.9839 6.59588C25.2759 6.97919 25.4159 7.29883 25.4231 7.78426C25.4252 7.91095 25.4252 7.91095 25.4274 8.0402C25.4286 8.13197 25.4298 8.22375 25.431 8.31831C25.4324 8.41441 25.4339 8.51052 25.4354 8.60663C25.4385 8.80904 25.4414 9.01145 25.4442 9.21387C25.4476 9.4687 25.4514 9.72352 25.4553 9.97834C25.4636 10.5103 25.4702 11.0422 25.476 11.5741C25.4791 11.8109 25.4836 12.0476 25.4887 12.2844C25.4907 12.4151 25.4927 12.5459 25.4946 12.6766C25.4962 12.7327 25.4979 12.7888 25.4996 12.8466C25.5047 13.3654 25.4037 13.9413 25.0458 14.3371C25.0092 14.38 24.9725 14.4229 24.9347 14.4671C24.2945 14.9641 23.5834 14.9219 22.8097 14.9249C22.6805 14.9263 22.5512 14.9279 22.4219 14.9295C22.1518 14.9326 21.8818 14.9347 21.6117 14.9362C21.2668 14.9381 20.922 14.9418 20.5772 14.9462C20.3105 14.9494 20.0439 14.9519 19.7772 14.9542C19.6501 14.9553 19.523 14.9566 19.3959 14.9581C19.2178 14.96 19.0397 14.961 18.8616 14.9616C18.7841 14.9627 18.7841 14.9627 18.7051 14.9638C18.0599 14.9637 17.5235 14.846 17.0569 14.3814C16.7672 14.0012 16.625 13.6823 16.6177 13.2006C16.6163 13.1178 16.6149 13.035 16.6134 12.9496C16.6122 12.8596 16.611 12.7696 16.6098 12.6769C16.6084 12.5835 16.6069 12.4901 16.6054 12.3939C16.6023 12.1951 16.5994 11.9963 16.5966 11.7975C16.5932 11.5476 16.5894 11.2977 16.5855 11.0478C16.5772 10.5235 16.5705 9.99919 16.5648 9.47486C16.5617 9.23313 16.5571 8.99147 16.5521 8.74978C16.5501 8.6125 16.5481 8.47522 16.5462 8.33793C16.5446 8.27836 16.5429 8.21879 16.5412 8.15742C16.5363 7.62835 16.6289 7.0451 16.995 6.64011C17.05 6.57579 17.05 6.57579 17.1061 6.51017C17.6821 6.063 18.2776 6.05772 18.9839 6.05731C19.0884 6.05624 19.1928 6.05506 19.2973 6.05376C19.5712 6.05068 19.8451 6.04926 20.1191 6.04819C20.3948 6.04681 20.6704 6.04383 20.946 6.041C21.6351 6.03432 22.3243 6.03223 23.0134 6.02779ZM18.1185 7.65753C18.1169 8.38412 18.1156 9.1107 18.1149 9.83728C18.1145 10.1746 18.114 10.512 18.1132 10.8493C18.1124 11.1747 18.112 11.5001 18.1118 11.8254C18.1117 11.9498 18.1114 12.0741 18.1111 12.1985C18.1105 12.3722 18.1105 12.5459 18.1105 12.7196C18.1102 12.7714 18.11 12.8231 18.1097 12.8765C18.1061 13.1423 18.1061 13.1423 18.1893 13.3905C18.9159 13.3921 19.6425 13.3934 20.3691 13.3941C20.7064 13.3945 21.0438 13.395 21.3811 13.3958C21.7065 13.3966 22.0319 13.397 22.3572 13.3972C22.4816 13.3973 22.6059 13.3976 22.7302 13.398C22.9039 13.3985 23.0777 13.3985 23.2514 13.3985C23.329 13.3989 23.329 13.3989 23.4083 13.3993C23.6741 13.4029 23.6741 13.4029 23.9223 13.3197C23.9239 12.5931 23.9252 11.8665 23.9259 11.14C23.9263 10.8026 23.9268 10.4652 23.9276 10.1279C23.9284 9.80252 23.9288 9.47716 23.929 9.15179C23.9291 9.02745 23.9294 8.90312 23.9297 8.77878C23.9303 8.60507 23.9303 8.43137 23.9303 8.25765C23.9307 8.17999 23.9307 8.17999 23.9311 8.10076C23.9347 7.8349 23.9347 7.8349 23.8515 7.58676C23.1249 7.58512 22.3983 7.58386 21.6717 7.58309C21.3344 7.58272 20.997 7.58222 20.6597 7.58142C20.3343 7.58065 20.0089 7.58023 19.6836 7.58004C19.5592 7.57991 19.4349 7.57966 19.3106 7.57927C19.1369 7.57876 18.9631 7.57869 18.7894 7.57872C18.7118 7.57834 18.7118 7.57834 18.6325 7.57795C18.3667 7.57431 18.3667 7.57431 18.1185 7.65753Z" fill="#F19924"/>
<path d="M11.9724 6.02779C12.0675 6.02736 12.1627 6.02695 12.2579 6.02655C12.3422 6.02609 12.4264 6.02562 12.5132 6.02515C13.0993 6.03683 13.5215 6.17636 13.9429 6.59588C14.2349 6.97919 14.3749 7.29883 14.3821 7.78426C14.3842 7.91095 14.3842 7.91095 14.3864 8.0402C14.3876 8.13197 14.3887 8.22375 14.39 8.31831C14.3914 8.41441 14.3929 8.51052 14.3944 8.60663C14.3975 8.80904 14.4004 9.01145 14.4031 9.21387C14.4066 9.4687 14.4104 9.72352 14.4143 9.97834C14.4226 10.5103 14.4292 11.0422 14.435 11.5741C14.4381 11.8109 14.4426 12.0476 14.4477 12.2844C14.4497 12.4151 14.4516 12.5459 14.4535 12.6766C14.4552 12.7327 14.4569 12.7888 14.4586 12.8466C14.4637 13.3654 14.3626 13.9413 14.0048 14.3371C13.9682 14.38 13.9315 14.4229 13.8937 14.4671C13.2535 14.9641 12.5424 14.9219 11.7687 14.9249C11.6394 14.9263 11.5102 14.9279 11.3809 14.9295C11.1108 14.9326 10.8408 14.9347 10.5707 14.9362C10.2258 14.9381 9.88103 14.9418 9.53621 14.9462C9.26953 14.9494 9.00285 14.9519 8.73615 14.9542C8.60906 14.9553 8.48198 14.9566 8.35489 14.9581C8.17677 14.96 7.99867 14.961 7.82054 14.9616C7.74308 14.9627 7.74308 14.9627 7.66406 14.9638C7.01885 14.9637 6.48252 14.846 6.01587 14.3814C5.72622 14.0012 5.58395 13.6823 5.57667 13.2006C5.57526 13.1178 5.57385 13.035 5.57239 12.9496C5.57121 12.8596 5.57003 12.7696 5.56881 12.6769C5.56734 12.5835 5.56587 12.4901 5.56435 12.3939C5.56124 12.1951 5.55834 11.9963 5.55563 11.7975C5.5522 11.5476 5.5484 11.2977 5.54445 11.0478C5.53617 10.5235 5.5295 9.99919 5.52376 9.47486C5.52066 9.23313 5.51606 8.99147 5.51106 8.74978C5.50907 8.6125 5.50712 8.47522 5.50522 8.33793C5.50356 8.27836 5.5019 8.21879 5.50018 8.15742C5.49527 7.62835 5.58786 7.0451 5.95394 6.64011C6.00895 6.57579 6.00895 6.57579 6.06508 6.51017C6.64113 6.063 7.23662 6.05772 7.94288 6.05731C8.04734 6.05624 8.15179 6.05506 8.25624 6.05376C8.53019 6.05068 8.80413 6.04926 9.0781 6.04819C9.35375 6.04681 9.62938 6.04383 9.90501 6.041C10.5941 6.03432 11.2832 6.03223 11.9724 6.02779ZM7.07752 7.65753C7.07589 8.38412 7.07463 9.1107 7.07386 9.83728C7.07349 10.1746 7.07298 10.512 7.07218 10.8493C7.07142 11.1747 7.07099 11.5001 7.07081 11.8254C7.07068 11.9498 7.07042 12.0741 7.07004 12.1985C7.06953 12.3722 7.06946 12.5459 7.06949 12.7196C7.06923 12.7714 7.06898 12.8231 7.06872 12.8765C7.06508 13.1423 7.06508 13.1423 7.1483 13.3905C7.87488 13.3921 8.60146 13.3934 9.32805 13.3941C9.6654 13.3945 10.0028 13.395 10.3401 13.3958C10.6655 13.3966 10.9908 13.397 11.3162 13.3972C11.4406 13.3973 11.5649 13.3976 11.6892 13.398C11.8629 13.3985 12.0366 13.3985 12.2104 13.3985C12.288 13.3989 12.288 13.3989 12.3672 13.3993C12.6331 13.4029 12.6331 13.4029 12.8812 13.3197C12.8829 12.5931 12.8841 11.8665 12.8849 11.14C12.8853 10.8026 12.8858 10.4652 12.8866 10.1279C12.8874 9.80252 12.8878 9.47716 12.888 9.15179C12.8881 9.02745 12.8883 8.90312 12.8887 8.77878C12.8892 8.60507 12.8893 8.43137 12.8893 8.25765C12.8897 8.17999 12.8897 8.17999 12.8901 8.10076C12.8937 7.8349 12.8937 7.8349 12.8105 7.58676C12.0839 7.58512 11.3573 7.58386 10.6307 7.58309C10.2934 7.58272 9.95601 7.58222 9.61866 7.58142C9.29329 7.58065 8.96792 7.58023 8.64256 7.58004C8.51822 7.57991 8.39388 7.57966 8.26955 7.57927C8.09584 7.57876 7.92213 7.57869 7.74842 7.57872C7.67076 7.57834 7.67076 7.57834 7.59153 7.57795C7.32567 7.57431 7.32567 7.57431 7.07752 7.65753Z" fill="#F19924"/>
<path d="M24.0642 20.2559C24.3146 20.3728 24.4047 20.4481 24.5596 20.6805C24.6202 20.9526 24.6234 21.2076 24.4811 21.4527C24.3498 21.6058 24.2096 21.7438 24.0642 21.8838C23.9914 21.9578 23.9188 22.032 23.8463 22.1063C23.5351 22.4237 23.2246 22.7371 22.8861 23.0256C22.6333 23.2444 22.396 23.4767 22.1609 23.7143C22.1244 23.7512 22.0878 23.7882 22.0501 23.8263C21.8982 23.9802 21.7466 24.1343 21.5952 24.2887C21.4833 24.4028 21.3709 24.5164 21.2585 24.63C21.2246 24.6648 21.1907 24.6997 21.1557 24.7356C20.8776 25.0158 20.7121 25.1303 20.3174 25.1616C20.0439 25.152 19.8924 25.1048 19.676 24.9272C19.5497 24.7914 19.429 24.6521 19.3094 24.5103C19.1891 24.3709 19.0644 24.2418 18.9328 24.1132C18.7606 23.944 18.5992 23.7699 18.4418 23.5868C18.2213 23.3304 17.9866 23.093 17.7437 22.8578C17.5116 22.6171 17.4302 22.4268 17.4111 22.0961C17.5 21.7685 17.5646 21.638 17.8535 21.4547C18.172 21.375 18.3156 21.3971 18.6143 21.5299C18.7352 21.6448 18.8527 21.7634 18.9682 21.8838C19.0417 21.9568 19.1153 22.0296 19.1891 22.1022C19.5797 22.489 19.9656 22.8724 20.313 23.2993C20.8173 22.8855 21.2678 22.42 21.7253 21.9563C22.102 21.575 22.4789 21.1986 22.8872 20.8505C22.9825 20.7685 23.074 20.6821 23.1643 20.5946C23.4572 20.3106 23.6377 20.1754 24.0642 20.2559Z" fill="#F19924"/>
<path d="M24.0642 16.8585C24.3146 16.9754 24.4047 17.0508 24.5596 17.2832C24.6202 17.5552 24.6234 17.8103 24.4811 18.0554C24.3498 18.2085 24.2096 18.3465 24.0642 18.4864C23.9914 18.5604 23.9188 18.6346 23.8463 18.709C23.5351 19.0263 23.2246 19.3397 22.8861 19.6283C22.6333 19.847 22.396 20.0794 22.1609 20.3169C22.1244 20.3539 22.0878 20.3909 22.0501 20.4289C21.8982 20.5828 21.7466 20.737 21.5952 20.8914C21.4833 21.0055 21.3709 21.1191 21.2585 21.2326C21.2246 21.2675 21.1907 21.3024 21.1557 21.3383C20.8776 21.6185 20.7121 21.733 20.3174 21.7643C20.0439 21.7547 19.8924 21.7074 19.676 21.5298C19.5497 21.394 19.429 21.2547 19.3094 21.1129C19.1891 20.9736 19.0644 20.8445 18.9328 20.7159C18.7606 20.5467 18.5992 20.3726 18.4418 20.1895C18.2213 19.9331 17.9866 19.6956 17.7437 19.4604C17.5116 19.2197 17.4302 19.0295 17.4111 18.6988C17.5 18.3712 17.5646 18.2406 17.8535 18.0573C18.172 17.9777 18.3156 17.9998 18.6143 18.1325C18.7352 18.2475 18.8527 18.3661 18.9682 18.4864C19.0417 18.5594 19.1153 18.6322 19.1891 18.7048C19.5797 19.0917 19.9656 19.4751 20.313 19.902C20.8173 19.4882 21.2678 19.0227 21.7253 18.559C22.102 18.1776 22.4789 17.8013 22.8872 17.4532C22.9825 17.3712 23.074 17.2847 23.1643 17.1972C23.4572 16.9133 23.6377 16.7781 24.0642 16.8585Z" fill="#F19924"/>
</svg>
