<svg width="29" height="29" viewBox="0 0 29 29" fill="none" xmlns="http://www.w3.org/2000/svg">
<path d="M11.5516 17.986L11.7966 18.266C11.4407 18.662 11.0313 19.0065 10.5804 19.2897C8.72539 20.3572 7.02789 21.4422 4.30664 20.9347V17.531C4.30664 17.531 7.04539 17.7322 8.46289 16.3235C8.77084 16.0148 9.06289 15.6906 9.33789 15.3522L9.59164 15.6497L10.8429 17.1372L11.5516 17.986Z" fill="white"/>
<path d="M15.2087 14.1359L15.025 14.3809L14.8763 14.5646L13.555 16.2359L12.9425 16.9884L12.7588 17.1984L12.5925 17.3909L12.3475 17.0934V17.0409C12.2937 16.9863 12.2439 16.9278 12.1988 16.8659C12.05 16.6821 11.8925 16.4896 11.7438 16.2884L11.6825 16.2184L11.035 15.3434L10.7375 14.9496L10.475 14.6084L10.405 14.5121L10.125 14.3021L10.3 14.0834C10.3503 14.015 10.4059 13.9506 10.4663 13.8909L11.0262 13.1909C11.4725 12.6396 11.9013 12.0621 12.435 11.5109L12.645 11.2746L12.785 11.1171L13.0038 11.3709L13.0563 11.4409C13.4063 11.8696 13.73 12.3159 14.045 12.6921L14.22 12.9284C14.2519 12.9641 14.2811 13.0021 14.3075 13.0421L14.3775 13.1209L14.8763 13.7859L14.9463 13.8646L15.2087 14.1359Z" fill="white"/>
<path d="M25.2528 9.12212L20.4491 13.3047L20.1603 13.2172V11.1959C19.1878 11.2175 18.2296 11.4348 17.3428 11.8347C16.8279 12.2125 16.371 12.6635 15.9866 13.1734L15.7678 12.8497L15.1728 11.9747L14.0266 10.2859L13.8516 10.0321C14.66 9.17578 15.6372 8.49647 16.7216 8.03712C19.7578 7.02212 20.2216 7.52087 20.2216 7.52087L20.4841 4.89587L25.2528 9.12212Z" fill="white"/>
<path d="M15.2079 14.136L15.0241 13.8997L14.9541 13.821C14.891 13.893 14.8326 13.969 14.7791 14.0485L14.6216 14.241L14.5166 14.381L13.8516 15.256L13.3004 15.9735C13.1079 16.2185 12.9154 16.4722 12.7054 16.7085L12.5216 16.9272C12.4745 16.9956 12.4218 17.06 12.3641 17.1197L12.6091 17.4172L12.7054 17.531C12.7655 17.4679 12.821 17.4006 12.8716 17.3297L13.0466 17.1197L13.1166 17.041V16.9797C13.3004 16.761 13.4579 16.5597 13.6154 16.3497L13.6679 16.2885C13.7729 16.166 13.8691 16.0347 13.9741 15.9035C14.0791 15.7722 14.1404 15.6847 14.2191 15.5797L14.7354 14.8972L14.8841 14.7135V14.6697L14.9454 14.5997C14.9716 14.5698 14.995 14.5376 15.0154 14.5035L15.2079 14.2672V14.136ZM11.5504 17.986C10.9236 18.6588 10.2117 19.2471 9.43289 19.736C9.07019 19.9647 8.68634 20.1581 8.28664 20.3135C8.08267 20.4004 7.87198 20.4706 7.65664 20.5235C6.98355 20.7221 6.28464 20.8194 5.58289 20.8122H4.55039V17.776H5.58289C6.36467 17.737 7.12827 17.5263 7.81939 17.1588C8.51051 16.7913 9.11219 16.2761 9.58164 15.6497L9.32789 15.3522L9.24039 15.2472C8.07664 16.5335 6.98289 17.251 5.58289 17.251H4.55039C4.41115 17.251 4.27762 17.3063 4.17916 17.4047C4.0807 17.5032 4.02539 17.6367 4.02539 17.776V20.8035C4.02539 20.9427 4.0807 21.0762 4.17916 21.1747C4.27762 21.2732 4.41115 21.3285 4.55039 21.3285H5.58289C6.33441 21.331 7.08256 21.2279 7.80539 21.0222C8.03709 20.9596 8.26497 20.8837 8.48789 20.7947C8.90613 20.6171 9.3124 20.4125 9.70414 20.1822C10.5045 19.6807 11.2343 19.0745 11.8741 18.3797L11.7779 18.266L11.5504 17.986ZM10.3604 14.5472L10.4304 14.6435C10.4903 14.5825 10.5431 14.515 10.5879 14.4422L10.7629 14.2235L11.3141 13.506L11.4016 13.3835C11.8129 12.8497 12.2241 12.2985 12.6791 11.7647L12.8804 11.5197L13.0291 11.3535L12.8104 11.0997L12.6879 10.951L12.5479 11.1085L12.3379 11.3535L12.2766 11.4322C11.8304 11.9572 11.4016 12.4822 10.9904 13.0685L10.9466 13.1122V13.1822L10.5266 13.7335L10.4829 13.786V13.8297L10.4304 13.891L10.3516 13.9872C10.2824 14.0747 10.2063 14.1566 10.1241 14.2322L10.1854 14.311L10.3604 14.5472ZM25.3404 8.71967L24.4654 7.94092L20.7904 4.80842C20.6941 4.72966 20.5736 4.68641 20.4491 4.68592C20.3731 4.68556 20.298 4.70357 20.2304 4.73842C20.1384 4.77815 20.0602 4.84422 20.0057 4.92831C19.9512 5.01239 19.9228 5.11073 19.9241 5.21092V7.23217H19.6791C18.5614 7.24484 17.4579 7.48399 16.4352 7.93517C15.4126 8.38634 14.492 9.04018 13.7291 9.85717L13.8516 10.0409L14.0266 10.2947C14.7521 9.51944 15.6268 8.89889 16.5981 8.47034C17.5695 8.04179 18.6175 7.81409 19.6791 7.80092H20.4491V5.21092L24.1241 8.33467L24.9991 9.11342L20.4491 13.016V10.8372H19.6791C19.0173 10.8603 18.3668 11.0153 17.7657 11.2933C17.1647 11.5713 16.6253 11.9666 16.1791 12.456L15.8379 12.7972L15.7941 12.8497L16.0129 13.1735L16.0916 13.296L16.2141 13.1647L16.5466 12.8322C16.9444 12.3839 17.43 12.0221 17.9734 11.7692C18.5167 11.5163 19.1063 11.3778 19.7054 11.3622H19.9504V13.016C19.9502 13.1159 19.9791 13.2138 20.0334 13.2976C20.0878 13.3815 20.1653 13.4478 20.2566 13.4885C20.3243 13.5233 20.3993 13.5413 20.4754 13.541C20.6015 13.5411 20.7231 13.4943 20.8166 13.4097L25.3666 9.51592C25.424 9.46664 25.47 9.40555 25.5015 9.33684C25.5331 9.26812 25.5494 9.19341 25.5494 9.1178C25.5494 9.04219 25.5331 8.96747 25.5015 8.89876C25.47 8.83005 25.424 8.76896 25.3666 8.71967H25.3404Z" fill="#636363"/>
<path d="M10.8333 17.1371L11.5508 18.0121C10.9239 18.6849 10.2121 19.2732 9.43328 19.7621C9.07058 19.9909 8.68673 20.1843 8.28703 20.3396C8.08306 20.4266 7.87237 20.4968 7.65703 20.5496C6.98835 20.7556 6.29165 20.8559 5.59203 20.8471H4.55078V19.2721H5.59203C7.5491 19.2632 9.42699 18.4982 10.8333 17.1371Z" fill="#F19924"/>
<path d="M14.9379 13.8033C14.8748 13.8753 14.8163 13.9513 14.7629 14.0308L14.6054 14.2233L14.5004 14.3633C14.2729 14.6433 14.0541 14.932 13.8266 15.2383L13.2841 15.9558C13.0916 16.2008 12.8991 16.4545 12.6891 16.6908L12.5054 16.9095C12.4582 16.9779 12.4056 17.0423 12.3479 17.102V17.0495C12.294 16.9949 12.2443 16.9365 12.1991 16.8745C12.0504 16.6908 11.8929 16.4983 11.7441 16.297L11.9016 16.1308L12.0941 15.912C12.3041 15.6758 12.5054 15.4483 12.6891 15.2033C13.1091 14.7045 13.4941 14.197 13.8704 13.6983C13.9404 13.6108 13.9929 13.532 14.0629 13.4533L14.2204 13.2433L14.3866 13.0333L14.4566 13.112L14.9379 13.8033Z" fill="#F19924"/>
<path d="M20.4492 9.28821V10.837H19.6792C19.0174 10.86 18.3669 11.0151 17.7658 11.2931C17.1648 11.5711 16.6253 11.9664 16.1792 12.4558C16.059 12.5628 15.9451 12.6768 15.838 12.797L15.7942 12.8495L15.1992 11.9745C16.503 10.417 17.8242 9.28821 19.7055 9.28821H20.4492Z" fill="#F19924"/>
<path d="M25.0002 9.11338L20.4414 13.0247V11.4759L24.0989 8.34338L25.0002 9.11338Z" fill="#F19924"/>
<path d="M4.29688 7.46835V10.9684C5.3538 10.8477 6.42372 11.013 7.39493 11.4471C8.36615 11.8811 9.20301 12.568 9.81812 13.4359C12.0581 16.4721 15.0681 21.2409 20.2044 20.9696V23.2884L20.4406 23.5334L25.2531 19.4296L20.4406 15.2646L20.1256 15.5184V17.3121C20.1256 17.3121 18.1569 18.0296 15.6369 15.2034C13.1169 12.3771 10.9119 6.7771 4.29688 7.46835Z" fill="white"/>
<path d="M15.5495 14.5557L15.3482 14.7832L15.1995 14.9582L13.8432 16.5332L13.1957 17.2769L13.0207 17.4869L12.8545 17.6794C12.7932 17.6269 12.7495 17.5657 12.6882 17.5044L12.592 17.3907L12.347 17.0932V17.0407C12.2931 16.9861 12.2434 16.9276 12.1982 16.8657C12.0495 16.6819 11.892 16.4894 11.7432 16.2882L11.682 16.2182L11.0345 15.3432L10.737 14.9494L10.4745 14.6082L10.4045 14.5119L10.1245 14.3019V14.2319L9.7832 13.7944L9.96695 13.5494L10.0982 13.3657L10.6582 12.6219L11.9532 10.8719L12.1457 10.6094L12.277 10.4432C12.4345 10.6094 12.5832 10.7844 12.7232 10.9507L12.8457 11.0994L13.0645 11.3532L13.117 11.4232C13.467 11.8519 13.7907 12.2982 14.1057 12.6744L14.2807 12.9107C14.3126 12.9464 14.3418 12.9844 14.3682 13.0244L14.4382 13.1032L14.937 13.7682L15.007 13.8469L15.1907 14.0832L15.2607 14.1707L15.5495 14.5557Z" fill="white"/>
<path d="M25.3316 18.9396L24.5091 18.2221L20.7904 15.0283C20.6941 14.9496 20.5736 14.9063 20.4491 14.9058C20.3737 14.9024 20.2987 14.9174 20.2304 14.9496C20.1377 14.9908 20.0592 15.0585 20.0048 15.1441C19.9503 15.2296 19.9223 15.3294 19.9241 15.4308V17.0933H19.6791C18.0779 17.0933 16.8966 16.1746 15.5491 14.5558L15.2779 14.2321L15.2079 14.1446L15.0241 13.9083L14.9541 13.8296L14.4554 13.1646L14.3854 13.0858C14.359 13.0458 14.3298 13.0078 14.2979 12.9721L14.1229 12.7358C13.8079 12.3333 13.4841 11.9133 13.1341 11.4846L13.0816 11.4146L12.8629 11.1608L12.7404 11.0121C12.6004 10.8458 12.4516 10.6708 12.2941 10.5046C10.6841 8.75453 8.61914 7.17078 5.62664 7.17078H4.55039C4.41115 7.17078 4.27762 7.22609 4.17916 7.32455C4.0807 7.42301 4.02539 7.55654 4.02539 7.69578V10.7408C4.02539 10.8801 4.0807 11.0136 4.17916 11.1121C4.27762 11.2105 4.41115 11.2658 4.55039 11.2658H5.58289C5.97524 11.2649 6.3652 11.3269 6.73789 11.4496C7.10444 11.5755 7.45414 11.7459 7.77914 11.9571C8.12568 12.1865 8.44815 12.4503 8.74164 12.7446L8.95164 12.9546L9.07414 13.0771C9.27539 13.2871 9.49414 13.5321 9.69539 13.7771L9.75664 13.8471L10.1241 14.2321L10.1854 14.3108L10.3866 14.5558L10.4566 14.6521L10.7191 14.9933L11.0166 15.3871L11.6641 16.2621L11.7254 16.3321C11.8741 16.5333 12.0316 16.7258 12.1804 16.9096C12.2256 16.9715 12.2753 17.03 12.3291 17.0846V17.1371L12.5741 17.4346L12.6704 17.5483C12.7316 17.6096 12.7754 17.6708 12.8366 17.7233C12.8903 17.7944 12.9487 17.8616 13.0116 17.9246C13.1691 18.0996 13.3266 18.2658 13.4754 18.4058C14.5591 19.5632 15.9205 20.4245 17.4304 20.9083C18.1563 21.1134 18.9073 21.2165 19.6616 21.2146H19.9066V23.2796C19.9048 23.381 19.9328 23.4807 19.9873 23.5663C20.0417 23.6519 20.1202 23.7196 20.2129 23.7608C20.2812 23.793 20.3562 23.808 20.4316 23.8046C20.5561 23.8041 20.6766 23.7608 20.7729 23.6821L25.3141 19.7708C25.3715 19.7225 25.4177 19.6622 25.4495 19.5942C25.4812 19.5262 25.4977 19.4521 25.4979 19.3771C25.5059 19.2963 25.4951 19.2147 25.4662 19.1388C25.4374 19.0629 25.3913 18.9947 25.3316 18.9396ZM19.6791 20.6458C18.9746 20.6523 18.2729 20.5551 17.5966 20.3571C16.1674 19.9024 14.8803 19.0855 13.8604 17.9858C13.7029 17.8371 13.5541 17.6796 13.4141 17.5221C13.2741 17.3646 13.2654 17.3558 13.1954 17.2771L13.0291 17.0933L12.9416 16.9883L12.6879 16.6821C12.6485 16.6485 12.6132 16.6103 12.5829 16.5683L12.0491 15.9121L11.4104 15.0371L10.7716 14.1621C10.6841 14.0483 10.6054 13.9433 10.5004 13.8296L10.4391 13.7508C10.3341 13.6108 10.2116 13.4796 10.0979 13.3396C9.89664 13.0858 9.67789 12.8496 9.46789 12.6221C9.25789 12.3946 9.24914 12.3946 9.13539 12.2896L8.74164 11.9308C8.5369 11.7495 8.31738 11.5856 8.08539 11.4408C7.72911 11.1978 7.34027 11.0063 6.93039 10.8721C6.50361 10.7336 6.05781 10.6628 5.60914 10.6621H4.55039V7.63453H5.58289C8.39164 7.63453 10.3341 9.09578 11.9266 10.8721C12.0754 11.0296 12.2154 11.1958 12.3466 11.3533L12.4691 11.4933L12.6879 11.7646C13.0991 12.2546 13.4666 12.7446 13.8341 13.2258C13.8954 13.2958 13.9479 13.3746 14.0179 13.4446C14.2104 13.7158 14.4116 13.9783 14.6041 14.2233L14.8754 14.5646L14.9454 14.6433L15.1991 14.9583C16.4941 16.4983 17.8241 17.5833 19.6791 17.5833H20.4491V15.3958L24.1679 18.6071L24.9904 19.3158L20.4491 23.2358V20.6108L19.6791 20.6458Z" fill="#636363"/>
<path d="M20.4417 19.2196V20.6633H19.6717C18.9663 20.6637 18.2647 20.5605 17.5892 20.3571C16.1603 19.8974 14.8736 19.0778 13.853 17.9771C13.6955 17.8283 13.5467 17.6708 13.4067 17.5133C13.2667 17.3558 12.9167 16.9708 12.6892 16.6383C12.6469 16.6019 12.6087 16.5608 12.5755 16.5158C12.4005 16.3058 12.2255 16.0783 12.0505 15.8596L11.4117 15.1071C11.2017 14.8183 10.9742 14.5383 10.773 14.2321C10.5542 13.9433 10.3267 13.6546 10.108 13.3571C9.88922 13.0596 9.67047 12.8496 9.45172 12.6221C9.23297 12.3946 9.22422 12.3858 9.11922 12.2896C8.79601 11.9672 8.4446 11.6744 8.06922 11.4146C7.70975 11.1793 7.32159 10.9911 6.91422 10.8546C6.48293 10.7449 6.03708 10.7035 5.59297 10.7321H4.54297V9.2533H5.59297C8.04297 9.2533 9.55672 11.2133 11.3155 13.5058C11.3502 13.5445 11.3824 13.5854 11.4117 13.6283C11.8055 14.1446 12.2167 14.6783 12.6455 15.2033C12.8467 15.4483 13.0567 15.7021 13.2842 15.9383C14.8942 17.7321 16.8542 19.2196 19.6717 19.2196H20.4417Z" fill="#F19924"/>
<path d="M25.0002 19.3421L20.4414 23.2533V21.8096L24.1602 18.6246L25.0002 19.3421Z" fill="#F19924"/>
</svg>
