<svg width="21" height="21" viewBox="0 0 21 21" fill="none" xmlns="http://www.w3.org/2000/svg">
<g clip-path="url(#clip0_199_3)">
<path d="M13.384 13.3739C13.384 15.1517 11.9418 16.5906 10.164 16.5906C8.38949 16.5906 6.94727 15.1517 6.94727 13.3739C6.94727 11.596 8.38949 10.1572 10.164 10.1572C11.9418 10.1572 13.384 11.596 13.384 13.3739Z" fill="white"/>
<path d="M12.1692 4.14261C12.1692 4.45073 11.9195 4.7005 11.6113 4.7005H8.72098C8.41285 4.7005 8.16309 4.45073 8.16309 4.14261C8.16309 3.83448 8.41285 3.58472 8.72098 3.58472H11.6113C11.9195 3.58472 12.1692 3.83452 12.1692 4.14261Z" fill="white"/>
<path d="M12.3161 4.64979C12.4194 4.50671 12.4821 4.33237 12.4821 4.14272C12.4821 3.86159 12.3459 3.61382 12.1385 3.45464C12.6965 2.80725 13.0889 1.89327 13.1955 0.844754C13.221 0.597137 12.96 0.421433 12.7411 0.535613C11.009 1.43159 9.3257 1.43159 7.59355 0.535613C7.37422 0.421355 7.11367 0.597527 7.13914 0.844754C7.24566 1.8928 7.63777 2.80643 8.19547 3.4537C7.98742 3.61288 7.85078 3.86104 7.85078 4.14272C7.85078 4.32343 7.90625 4.49128 8.00086 4.6305C4.8398 6.96081 2.68164 13.7265 2.68164 15.7833C2.68164 18.3839 6.03863 20.5 10.1648 20.5C14.2939 20.5 17.6532 18.3839 17.6532 15.7833C17.6531 13.7956 15.4419 7.00944 12.3161 4.64979ZM8.72133 4.38803C8.58598 4.38803 8.47582 4.27788 8.47582 4.14268C8.47582 4.00749 8.58598 3.89733 8.72133 3.89733H11.6116C11.7469 3.89733 11.8571 4.00749 11.8571 4.14268C11.8571 4.27788 11.7469 4.38803 11.6116 4.38803H8.72133ZM12.4838 1.34522C12.3056 2.15417 11.9341 2.83018 11.4571 3.27237H8.87762C8.40063 2.83018 8.02914 2.15421 7.85102 1.34522C9.39059 1.9885 10.9442 1.9885 12.4838 1.34522ZM10.1648 19.875C6.38312 19.875 3.30656 18.0394 3.30656 15.7833C3.30656 13.5616 5.6498 6.93651 8.57348 4.99811C8.62172 5.00643 8.67066 5.01307 8.72133 5.01307H9.22301C9.17074 5.136 9.14168 5.27104 9.14168 5.41284V5.94261C9.14168 6.1153 9.2816 6.25507 9.45414 6.25507C9.62672 6.25507 9.7666 6.1153 9.7666 5.94261V5.41284C9.7666 5.19253 9.9459 5.01307 10.1664 5.01307C10.3868 5.01307 10.5661 5.19253 10.5661 5.41284V6.59323C10.5661 6.76593 10.7061 6.90569 10.8786 6.90569C11.0511 6.90569 11.1911 6.76593 11.1911 6.59323V5.41284C11.1911 5.27104 11.162 5.136 11.1097 5.01307H11.6114C11.6614 5.01307 11.7097 5.00647 11.7574 4.99835C14.6832 6.93702 17.028 13.5617 17.028 15.7833C17.0282 18.0394 13.9493 19.875 10.1648 19.875Z" fill="#212121"/>
<path d="M10.1641 9.84473C8.21801 9.84473 6.63477 11.4279 6.63477 13.3737C6.63477 15.3197 8.21797 16.903 10.1641 16.903C12.112 16.903 13.6967 15.3198 13.6967 13.3737C13.6967 11.428 12.112 9.84473 10.1641 9.84473ZM10.1641 16.278C8.5627 16.278 7.25977 14.9753 7.25977 13.3737C7.25977 11.7725 8.5627 10.4697 10.1641 10.4697C11.7674 10.4697 13.0717 11.7725 13.0717 13.3737C13.0718 14.9752 11.7675 16.278 10.1641 16.278Z" fill="#212121"/>
<path d="M10.967 12.5H9.16699H9.52699C9.76569 12.5 9.99461 12.5732 10.1634 12.7034C10.3322 12.8336 10.427 13.0103 10.427 13.1944C10.427 13.3786 10.3322 13.5553 10.1634 13.6855C9.99461 13.8157 9.76569 13.8889 9.52699 13.8889H9.16699L10.607 15M10.967 13.1944H9.16699" stroke="#212121" stroke-width="0.3" stroke-linecap="round" stroke-linejoin="round"/>
</g>
<defs>
<clipPath id="clip0_199_3">
<rect width="20" height="20" fill="white" transform="translate(0.166992 0.5)"/>
</clipPath>
</defs>
</svg>
