<svg width="31" height="31" viewBox="0 0 31 31" fill="none" xmlns="http://www.w3.org/2000/svg">
<path fill-rule="evenodd" clip-rule="evenodd" d="M25.1835 24.9745H24.1997H18.8934H16.7747H13.598H11.4794H6.18144H5.1875V24.0371H6.18144V12.6271H11.4794V9.87134H12.8656V8.30534H14.7151V7.29456H15.6525V8.30534H17.5063V9.87134H18.8934V15.4966L24.1997 13.4531V24.0371H25.1844V24.9736V24.9745H25.1835ZM18.8934 16.4998L17.956 16.8652L17.7121 16.9588V24.0371H18.8934H23.2623V14.8216L18.8934 16.4998ZM13.598 12.6271H12.4168V10.8079H12.8656H17.5063H17.956V15.8527L16.7747 16.3117V24.0371H13.598V12.6271ZM9.29571 22.3251H10.2323V24.0371H11.4794H12.6606V13.5653H12.4168H11.4794H7.11884V24.0371H9.29486V22.326V22.3251H9.29571ZM16.5689 9.87134H13.803V9.24363H16.5689V9.87134ZM20.9395 22.5259V21.2131H21.8769V22.5259H20.9395ZM19.0984 21.2131V22.5259H20.0358V21.2131H19.0984ZM20.9395 19.831V18.5198H21.8769V19.831H20.9395ZM19.0984 18.5198V19.831H20.0358V18.5198H19.0984ZM10.3411 16.8247V15.5093H11.2785V16.8247H10.3411ZM8.50007 15.5093V16.8247H9.4375V15.5093H8.50007Z" fill="#F19924"/>
</svg>
