<svg width="31" height="31" viewBox="0 0 31 31" fill="none" xmlns="http://www.w3.org/2000/svg">
<path fill-rule="evenodd" clip-rule="evenodd" d="M27.2964 27.1034H27.9989H28V27.1023V25.9314H27.2964V6.26368H19.3281V16.0981H17.1814V8.22149H15.4462V6.26368H13.1329V5H11.9599V6.26368H9.6456V8.22149H7.9114V11.6667H4.24367V25.9314H3V27.1034H4.24367H12.3428H13.5148H19.3281H21.6139H27.2964ZM23.8977 23.2237H22.7268H22.7258V23.2247V25.9314H21.6139V16.0981H20.499V7.43672H26.1245V25.9314H23.8977V23.2237ZM13.5148 18.2553V25.9314H19.3281H20.4399V17.2701H19.3281H17.1814H13.5148V18.2553ZM9.30804 23.7912H8.13715H8.13607V23.7922V25.9314H5.41456V12.8396H7.9114H9.08337H12.3428V16.0981V17.0823V18.2553V25.9314H9.30804V23.7912ZM9.08337 11.6667H13.5148V16.0981H16.0095V9.39239H15.4462H9.6456H9.08337V11.6667ZM14.2743 8.22149H10.8175V7.43672H14.2743V8.22149ZM17.5443 24.0422V22.4009H18.7162V24.0422H17.5443ZM15.2426 22.4009V24.0422H16.4146V22.4009H15.2426ZM17.5443 20.673V19.0338H18.7162V20.673H17.5443ZM15.2426 19.0338V20.673H16.4146V19.0338H15.2426ZM7.91033 16.9178H7.13717V15.2658H7.91033H8.30905V16.9178H7.91033ZM9.44307 15.2701V16.9145H10.6149V15.2701H9.44307ZM23.8787 11.1709V9.5316H25.0507V11.1709H23.8787ZM21.5749 9.5316V11.1709H22.7469V9.5316H21.5749Z" fill="#F19924"/>
</svg>
