<svg width="31" height="31" viewBox="0 0 31 31" fill="none" xmlns="http://www.w3.org/2000/svg">
<path fill-rule="evenodd" clip-rule="evenodd" d="M27.9989 27.3587H24.4484H17.1814H13.7026H6.54011H3V26.1867H6.54011V12.6498H13.7026V8.68779L24.4484 4V26.1867H28V27.3576L27.9989 27.3587ZM19.9325 23.4979H21.1034V26.1867H23.2764V5.79219L14.8745 9.44934V12.6498H17.1814V26.1867H19.9314V23.499L19.9325 23.4979ZM13.7026 26.1867H7.71199V13.8217H13.7026H14.8745H16.0095V26.1867H13.7026ZM9.60657 23.2342V21.5929H10.7785V23.2342H9.60657ZM12.9515 23.2331H13.7015H14.1234V21.5918H13.7015H12.9515V23.2331ZM9.60657 18.6202V16.98H10.7785V18.6202H9.60657ZM12.9515 18.615H13.7015H14.1234V16.9736H13.7015H12.9515V18.615ZM19.9314 17.7342V15.5253H21.1045V17.7342H19.9314ZM19.9314 10.4937V12.7025H21.1045V10.4937H19.9314Z" fill="#F19924"/>
</svg>
