<svg width="21" height="21" viewBox="0 0 21 21" fill="none" xmlns="http://www.w3.org/2000/svg">
<path d="M1.3303 15.8818C1.74213 17.4495 2.46579 17.8335 4.03354 17.9594C4.70278 18.0131 5.36502 18.0051 6.03589 18.0041L7.33013 17.9985C7.91217 17.9773 8.51337 17.9277 9.10411 17.9052C9.3544 17.8956 10.1824 17.7275 10.2026 18.1513C10.2228 18.5749 9.68426 18.5382 9.40228 18.5483L7.50165 18.638L4.44406 18.6332L3.94679 18.5897C3.14125 18.5214 2.2312 18.3773 1.62292 17.7931C0.604653 16.8151 0.504152 15.2652 0.505189 13.9384C0.505415 13.6181 0.497569 13.2951 0.51849 12.9754L0.740503 10.6327L0.748754 10.0221C0.749836 9.61924 0.767781 9.20438 0.734732 8.80297L0.587294 7.24266C0.485351 6.21993 0.324883 4.87374 1.09552 4.07691L4.2009 1.18876C5.06587 0.437824 5.31448 0.46898 6.3846 0.543149L6.80414 0.560959C7.23527 0.591393 7.66658 0.629898 8.09915 0.631747L10.9556 0.626201C11.0657 0.621827 11.1727 0.600997 11.2817 0.594729L13.0246 0.501849L13.6837 0.5C14.3251 0.50018 14.8838 0.625975 15.3921 1.05683C16.8645 2.30496 16.2383 4.24242 15.9788 5.82365C15.8239 6.76788 15.8225 7.78074 16.1298 8.69489C16.1659 8.80225 16.2151 8.91578 16.2213 9.03008C16.2374 9.32788 15.7382 9.58344 15.5464 8.97629L15.4273 8.56287C15.0855 7.27796 15.1958 6.34564 15.4679 5.03128C15.6049 4.36939 15.7845 3.64591 15.6921 2.96441C15.5885 2.19986 15.0355 1.27704 14.2044 1.16072C13.7357 1.09511 13.3904 1.1471 12.9451 1.16216L10.7963 1.23502C10.6604 1.23994 10.5269 1.26965 10.3912 1.27114L7.79512 1.2683C7.69579 1.26473 7.59998 1.24535 7.5016 1.23935L5.79733 1.16721C4.98809 1.16716 5.2689 1.12271 5.20943 1.86503C5.12854 2.87451 4.72171 4.07181 3.76039 4.56918C3.04408 4.93975 2.08619 4.89823 1.29544 4.89561C0.96522 5.45037 1.28999 7.73457 1.35555 8.52446C1.41285 9.21498 1.42971 9.92565 1.38512 10.6179L1.15802 13.0709C1.0985 13.9534 1.13254 15.0352 1.3303 15.8818ZM4.53 1.75872L1.87112 4.22448C1.88988 4.24053 1.87969 4.23535 1.90084 4.24157C2.30261 4.2454 2.68257 4.23625 3.07199 4.12732C4.06663 3.84899 4.55502 2.72409 4.56079 1.76643L4.53 1.75872Z" fill="#212121"/>
<path d="M10.8479 5.27072L6.23346 5.26955C6.10739 5.26932 5.86834 5.2984 5.75729 5.24547C5.47756 5.11214 5.56954 4.68633 5.83574 4.64476L5.85301 4.64269C6.13896 4.60639 6.4543 4.63182 6.74363 4.63133L11.2878 4.62781C11.5717 4.62695 11.9787 4.52907 11.9828 4.95407C11.9859 5.27054 11.6876 5.27072 11.4518 5.27121L10.8479 5.27072ZM13.0369 7.35801L4.26808 7.34963C4.12236 7.35053 3.97334 7.36045 3.82811 7.35301C3.45632 7.33398 3.40573 6.77467 3.89881 6.71587L12.981 6.71488C13.555 6.71389 13.4018 7.29489 13.0369 7.35801ZM13.0281 9.41659L4.7842 9.41767C4.47111 9.4179 4.14409 9.43913 3.83235 9.41893C3.39405 9.39053 3.45614 8.83518 3.91599 8.78802L13.0741 8.78351C13.4362 8.79393 13.5267 9.36713 13.0281 9.41659ZM15.5444 20.1577C12.6465 20.1557 10.3638 18.0041 10.3561 15.0443C10.3491 12.3361 12.556 10.0753 15.2926 10.0328C19.8254 9.93997 22.2182 15.4432 19.0638 18.6735C18.1364 19.6233 16.8664 20.1421 15.5444 20.1577ZM15.1196 10.6731C13.9435 10.772 12.8267 11.2769 12.0551 12.1827C9.46765 15.2198 11.9329 19.8094 15.7296 19.5119L15.7547 19.5098C17.8968 19.4151 19.6273 17.6652 19.8365 15.5597C20.1043 12.8646 17.8803 10.5437 15.1493 10.671L15.1196 10.6731ZM7.31133 11.5023L4.17502 11.5044C4.05657 11.5049 3.92816 11.5151 3.81103 11.501C3.43684 11.4558 3.46619 10.9149 3.79047 10.8701C3.89809 10.8553 4.0187 10.8654 4.12808 10.8656L7.05005 10.8651L10.5359 10.8637C10.8217 10.8933 10.8817 11.2769 10.6448 11.4419L10.6288 11.4526C10.5056 11.5383 10.3066 11.5019 10.1652 11.5021L7.31133 11.5023ZM4.53559 13.5711L3.83695 13.5717C3.51124 13.542 3.43693 13.1496 3.70304 12.9859L3.72126 12.975C3.86437 12.8864 4.26799 12.9371 4.43766 12.937L8.86907 12.9367L9.36972 12.9328C10.0481 12.9293 9.83516 13.5387 9.57812 13.5691C9.4222 13.5875 9.24384 13.5718 9.08563 13.5719L4.53559 13.5711Z" fill="#212121"/>
<path d="M12.807 15.8021L12.7289 15.7561C12.6388 15.7025 12.4695 15.6153 12.4455 15.5055L12.4426 15.4898C12.3856 15.1995 12.6871 15.0499 12.9283 15.1306C13.08 15.1813 13.2272 15.2862 13.3688 15.3609L14.1968 15.804C14.4056 15.919 14.6108 16.0418 14.8262 16.144C14.9307 16.0656 15.0219 15.963 15.1166 15.8729L17.7459 13.3402C17.8946 13.1967 18.0332 13.0356 18.2279 12.9562C18.6149 12.9107 18.7287 13.2968 18.4872 13.5379L15.3339 16.5619C15.2736 16.6191 15.2113 16.6887 15.1362 16.7257L15.1177 16.7342C14.708 16.9264 14.338 16.629 13.9962 16.4439L12.807 15.8021Z" fill="#212121"/>
</svg>
