<svg width="13" height="18" viewBox="0 0 13 18" fill="none" xmlns="http://www.w3.org/2000/svg">
<path d="M11.033 0.5H2.63304C2.15565 0.5 1.69782 0.689642 1.36025 1.02721C1.02269 1.36477 0.833045 1.82261 0.833045 2.29999V16.1C0.831214 16.3317 0.897363 16.5588 1.02331 16.7534C1.14925 16.9479 1.32946 17.1012 1.54164 17.1943C1.69734 17.265 1.86626 17.3018 2.03724 17.3023C2.33015 17.3017 2.61245 17.1927 2.82984 16.9963L6.43403 13.793C6.54391 13.6951 6.6859 13.6411 6.83303 13.6411C6.98015 13.6411 7.12215 13.6951 7.23203 13.793L10.8356 16.9963C11.0085 17.1501 11.2221 17.2505 11.4507 17.2857C11.6794 17.3208 11.9133 17.2891 12.1243 17.1944C12.3354 17.0997 12.5146 16.946 12.6403 16.7518C12.766 16.5577 12.8329 16.3313 12.833 16.1V2.29999C12.833 1.82261 12.6434 1.36477 12.3058 1.02721C11.9682 0.689642 11.5104 0.5 11.033 0.5ZM11.633 16.1L8.02882 12.8966C7.69934 12.6037 7.27385 12.4419 6.83303 12.4419C6.39221 12.4419 5.96671 12.6037 5.63723 12.8966L2.03304 16.1V2.29999C2.03304 2.14087 2.09626 1.98825 2.20878 1.87573C2.3213 1.76321 2.47391 1.7 2.63304 1.7H11.033C11.1921 1.7 11.3448 1.76321 11.4573 1.87573C11.5698 1.98825 11.633 2.14087 11.633 2.29999L11.6372 16.1H11.633Z" fill="#212121"/>
</svg>
