<svg width="31" height="31" viewBox="0 0 31 31" fill="none" xmlns="http://www.w3.org/2000/svg">
<path fill-rule="evenodd" clip-rule="evenodd" d="M27.9989 27.0974H21.176H9.82189H3V25.9256H9.82189V8.22429H12.598V6.25718H14.9119V5H16.0859V6.25718H18.3988V8.22429H21.176V25.9256H28V27.0963V27.0974H27.9989ZM14.913 22.1908H16.0859V25.9256H20.0041V9.39602H18.3989H12.598H10.9937V25.9256H14.9119V22.1919V22.1908H14.913ZM17.226 8.22536H13.7708V7.43007H17.226V8.22536ZM16.5848 17.9878V16.3488H17.7576V17.9878H16.5848ZM13.2403 16.3488V17.9878H14.412V16.3488H13.2403ZM16.5848 14.0716V12.4305H17.7576V14.0716H16.5848ZM13.2403 12.4305V14.0716H14.412V12.4305H13.2403Z" fill="#F19924"/>
</svg>
