<svg width="22" height="14" viewBox="0 0 22 14" fill="none" xmlns="http://www.w3.org/2000/svg">
<path d="M0.251239 13.4981H2.52218C2.55765 13.5025 2.59365 13.4993 2.62777 13.4886C2.66189 13.478 2.69334 13.4602 2.72003 13.4364C2.74672 13.4126 2.76803 13.3834 2.78253 13.3508C2.79703 13.3181 2.80439 13.2827 2.80412 13.247V10.4173C2.80412 10.3493 2.77712 10.2841 2.72905 10.236C2.68098 10.1879 2.61579 10.1609 2.54781 10.1609H0.251239C0.217817 10.1609 0.18473 10.1676 0.153915 10.1805C0.123101 10.1935 0.0951791 10.2124 0.071786 10.2363C0.0483929 10.2602 0.0299984 10.2885 0.0176808 10.3196C0.00536321 10.3506 -0.000629765 10.3838 5.23206e-05 10.4173V13.247C5.23206e-05 13.3136 0.0265165 13.3775 0.0736232 13.4246C0.12073 13.4717 0.18462 13.4981 0.251239 13.4981Z" fill="#444444"/>
<path d="M4.78799 13.4981H7.08968C7.12267 13.4981 7.15533 13.4916 7.1858 13.479C7.21628 13.4664 7.24397 13.4479 7.2673 13.4246C7.29062 13.4012 7.30912 13.3736 7.32175 13.3431C7.33437 13.3126 7.34087 13.2799 7.34087 13.247V7.60806C7.34087 7.54144 7.3144 7.47755 7.2673 7.43044C7.22019 7.38334 7.1563 7.35687 7.08968 7.35687H4.78799C4.72137 7.35687 4.65748 7.38334 4.61037 7.43044C4.56326 7.47755 4.5368 7.54144 4.5368 7.60806V13.247C4.5368 13.3136 4.56326 13.3775 4.61037 13.4246C4.65748 13.4717 4.72137 13.4981 4.78799 13.4981Z" fill="#444444"/>
<path d="M9.35549 13.4981H11.6521C11.7187 13.4981 11.7826 13.4717 11.8297 13.4246C11.8768 13.3775 11.9032 13.3136 11.9032 13.247V8.87937C11.9032 8.81275 11.8768 8.74886 11.8297 8.70176C11.7826 8.65465 11.7187 8.62819 11.6521 8.62819H9.35549C9.28887 8.62819 9.22498 8.65465 9.17787 8.70176C9.13077 8.74886 9.1043 8.81275 9.1043 8.87937V13.247C9.1043 13.3136 9.13077 13.3775 9.17787 13.4246C9.22498 13.4717 9.28887 13.4981 9.35549 13.4981Z" fill="#444444"/>
<path d="M13.9179 13.4981H16.2196C16.2862 13.4981 16.3501 13.4717 16.3972 13.4246C16.4443 13.3775 16.4707 13.3136 16.4707 13.247V6.07018C16.4714 6.03676 16.4654 6.00355 16.4531 5.97248C16.4408 5.94141 16.4224 5.91311 16.399 5.88924C16.3756 5.86537 16.3477 5.84641 16.3169 5.83346C16.2861 5.82052 16.253 5.81386 16.2196 5.81387H13.9179C13.8844 5.81386 13.8514 5.82052 13.8205 5.83346C13.7897 5.84641 13.7618 5.86537 13.7384 5.88924C13.715 5.91311 13.6966 5.94141 13.6843 5.97248C13.672 6.00355 13.666 6.03676 13.6667 6.07018V13.247C13.6667 13.3136 13.6931 13.3775 13.7403 13.4246C13.7874 13.4717 13.8512 13.4981 13.9179 13.4981Z" fill="#444444"/>
<path d="M18.4854 13.4981H20.7819C20.8149 13.4981 20.8476 13.4916 20.8781 13.479C20.9085 13.4664 20.9362 13.4479 20.9596 13.4246C20.9829 13.4012 21.0014 13.3736 21.014 13.3431C21.0266 13.3126 21.0331 13.2799 21.0331 13.247V4.01967C21.0331 3.98669 21.0266 3.95402 21.014 3.92355C21.0014 3.89307 20.9829 3.86538 20.9596 3.84206C20.9362 3.81873 20.9085 3.80023 20.8781 3.7876C20.8476 3.77498 20.8149 3.76848 20.7819 3.76848H18.4854C18.452 3.7678 18.4187 3.7738 18.3877 3.78611C18.3566 3.79843 18.3283 3.81682 18.3044 3.84022C18.2806 3.86361 18.2616 3.89153 18.2487 3.92235C18.2357 3.95316 18.229 3.98625 18.2291 4.01967V13.247C18.229 13.2804 18.2357 13.3135 18.2487 13.3443C18.2616 13.3751 18.2806 13.403 18.3044 13.4264C18.3283 13.4498 18.3566 13.4682 18.3877 13.4805C18.4187 13.4928 18.452 13.4988 18.4854 13.4981Z" fill="#444444"/>
<path d="M1.37391 8.44358C1.33236 8.44322 1.29152 8.43277 1.2549 8.41312C1.21829 8.39348 1.187 8.36522 1.16373 8.3308C1.1455 8.30322 1.13288 8.27231 1.12662 8.23984C1.12035 8.20737 1.12056 8.17399 1.12723 8.1416C1.1339 8.10921 1.14689 8.07846 1.16547 8.05111C1.18405 8.02376 1.20785 8.00034 1.2355 7.98221L5.79788 4.96284C5.83218 4.94212 5.87057 4.92911 5.9104 4.92468C5.95023 4.92025 5.99055 4.92453 6.02856 4.93721L10.4577 6.6135L14.9073 2.9636L14.979 2.92259L19.9823 0.99511C20.0455 0.971761 20.1154 0.974272 20.1768 1.0021C20.2382 1.02992 20.2862 1.08082 20.3103 1.14377C20.3218 1.17474 20.3271 1.20766 20.3258 1.24066C20.3245 1.27365 20.3168 1.30608 20.303 1.33607C20.2892 1.36607 20.2696 1.39305 20.2453 1.41547C20.2211 1.43789 20.1927 1.45531 20.1617 1.46673L15.1943 3.37882L10.6627 7.09537C10.6288 7.12304 10.5883 7.14138 10.5451 7.14858C10.502 7.15577 10.4577 7.15156 10.4166 7.13638L5.96704 5.45496L1.51232 8.42307C1.46898 8.44261 1.42105 8.44971 1.37391 8.44358Z" fill="#444444"/>
<path d="M19.4851 2.66118C19.4462 2.65997 19.408 2.65127 19.3724 2.63555C19.3133 2.60483 19.2685 2.55235 19.2475 2.48921C19.2264 2.42607 19.2308 2.35721 19.2596 2.29721L19.7312 1.37449L18.747 0.979763C18.6927 0.949271 18.6514 0.900077 18.6307 0.841362C18.6101 0.782647 18.6115 0.718423 18.6347 0.660676C18.6579 0.60293 18.7014 0.555607 18.7569 0.52754C18.8125 0.499473 18.8764 0.492579 18.9366 0.508146L20.1721 1.02077C20.2035 1.03424 20.232 1.05388 20.2558 1.07853C20.2796 1.10318 20.2982 1.13235 20.3105 1.16431C20.3245 1.19578 20.3317 1.22983 20.3317 1.26427C20.3317 1.29871 20.3245 1.33276 20.3105 1.36423L19.7312 2.51764C19.7101 2.56413 19.6751 2.60292 19.6311 2.62864C19.587 2.65436 19.536 2.66573 19.4851 2.66118Z" fill="#444444"/>
</svg>
